NotoSansMyanmarUI-SemiBold.ufo
<glyph name="question" format="2">
  <advance width="477"/>
  <unicode hex="003F"/>
  <outline>
    <contour>
      <point x="135" y="403" type="line"/>
      <point x="264" y="403" type="line"/>
      <point x="265" y="408" type="line" smooth="yes"/>
      <point x="268" y="425"/>
      <point x="280" y="441"/>
      <point x="336" y="478" type="curve" smooth="yes"/>
      <point x="415" y="530"/>
      <point x="453" y="568"/>
      <point x="453" y="641" type="curve" smooth="yes"/>
      <point x="453" y="734"/>
      <point x="373" y="801"/>
      <point x="234" y="801" type="curve" smooth="yes"/>
      <point x="143" y="801"/>
      <point x="68" y="778"/>
      <point x="3" y="746" type="curve"/>
      <point x="56" y="649" type="line"/>
      <point x="113" y="676"/>
      <point x="167" y="693"/>
      <point x="223" y="693" type="curve" smooth="yes"/>
      <point x="279" y="693"/>
      <point x="312" y="672"/>
      <point x="312" y="634" type="curve" smooth="yes"/>
      <point x="312" y="595"/>
      <point x="288" y="573"/>
      <point x="228" y="534" type="curve" smooth="yes"/>
      <point x="160" y="490"/>
      <point x="141" y="457"/>
      <point x="136" y="412" type="curve" smooth="yes"/>
    </contour>
    <contour>
      <point x="202" y="140" type="curve" smooth="yes"/>
      <point x="278" y="140"/>
      <point x="332" y="178"/>
      <point x="332" y="248" type="curve" smooth="yes"/>
      <point x="332" y="310"/>
      <point x="278" y="353"/>
      <point x="202" y="353" type="curve" smooth="yes"/>
      <point x="125" y="353"/>
      <point x="75" y="312"/>
      <point x="75" y="247" type="curve" smooth="yes"/>
      <point x="75" y="178"/>
      <point x="126" y="140"/>
    </contour>
    <contour>
      <point x="204" y="210" type="curve" smooth="yes"/>
      <point x="177" y="210"/>
      <point x="164" y="224"/>
      <point x="164" y="247" type="curve" smooth="yes"/>
      <point x="164" y="271"/>
      <point x="181" y="284"/>
      <point x="204" y="284" type="curve" smooth="yes"/>
      <point x="227" y="284"/>
      <point x="244" y="271"/>
      <point x="244" y="247" type="curve" smooth="yes"/>
      <point x="244" y="224"/>
      <point x="227" y="210"/>
    </contour>
  </outline>
</glyph>
<glyph name="ka" format="2">
  <advance width="1110"/>
  <unicode hex="1000"/>
  <note>
ka
</note>
  <outline>
    <contour>
      <point x="190" y="140" type="curve"/>
      <point x="265" y="248" type="line"/>
      <point x="214" y="293"/>
      <point x="197" y="338"/>
      <point x="197" y="395" type="curve" smooth="yes"/>
      <point x="197" y="482"/>
      <point x="254" y="541"/>
      <point x="340" y="541" type="curve" smooth="yes"/>
      <point x="426" y="541"/>
      <point x="484" y="484"/>
      <point x="484" y="395" type="curve" smooth="yes"/>
      <point x="484" y="340"/>
      <point x="464" y="289"/>
      <point x="404" y="248" type="curve"/>
      <point x="479" y="140" type="line"/>
      <point x="572" y="189"/>
      <point x="622" y="277"/>
      <point x="622" y="395" type="curve" smooth="yes"/>
      <point x="622" y="550"/>
      <point x="517" y="649"/>
      <point x="336" y="649" type="curve" smooth="yes"/>
      <point x="162" y="649"/>
      <point x="45" y="546"/>
      <point x="45" y="395" type="curve" smooth="yes"/>
      <point x="45" y="271"/>
      <point x="106" y="184"/>
    </contour>
    <contour>
      <point x="801" y="140" type="curve" smooth="yes"/>
      <point x="949" y="140"/>
      <point x="1065" y="246"/>
      <point x="1065" y="395" type="curve" smooth="yes"/>
      <point x="1065" y="544"/>
      <point x="944" y="649"/>
      <point x="769" y="649" type="curve" smooth="yes"/>
      <point x="679" y="649"/>
      <point x="598" y="621"/>
      <point x="547" y="559" type="curve"/>
      <point x="610" y="444" type="line"/>
      <point x="634" y="496"/>
      <point x="682" y="541"/>
      <point x="761" y="541" type="curve" smooth="yes"/>
      <point x="851" y="541"/>
      <point x="913" y="485"/>
      <point x="913" y="395" type="curve" smooth="yes"/>
      <point x="913" y="310"/>
      <point x="864" y="254"/>
      <point x="786" y="254" type="curve" smooth="yes"/>
      <point x="754" y="254"/>
      <point x="738" y="259"/>
      <point x="709" y="269" type="curve"/>
      <point x="659" y="169" type="line"/>
      <point x="694" y="148"/>
      <point x="753" y="140"/>
    </contour>
  </outline>
</glyph>
<glyph name="kha" format="2">
  <advance width="699"/>
  <unicode hex="1001"/>
  <note>
kha
</note>
  <outline>
    <contour>
      <point x="332" y="140" type="curve" smooth="yes"/>
      <point x="522" y="140"/>
      <point x="654" y="233"/>
      <point x="654" y="395" type="curve" smooth="yes"/>
      <point x="654" y="551"/>
      <point x="531" y="649"/>
      <point x="340" y="649" type="curve" smooth="yes"/>
      <point x="225" y="649"/>
      <point x="144" y="628"/>
      <point x="57" y="589" type="curve"/>
      <point x="112" y="493" type="line"/>
      <point x="184" y="527"/>
      <point x="244" y="549"/>
      <point x="321" y="549" type="curve" smooth="yes"/>
      <point x="436" y="549"/>
      <point x="502" y="496"/>
      <point x="502" y="395" type="curve" smooth="yes"/>
      <point x="502" y="296"/>
      <point x="445" y="243"/>
      <point x="335" y="243" type="curve" smooth="yes"/>
      <point x="272" y="243"/>
      <point x="209" y="265"/>
      <point x="186" y="295" type="curve"/>
      <point x="238" y="315"/>
      <point x="293" y="325"/>
      <point x="344" y="325" type="curve" smooth="yes"/>
      <point x="394" y="325"/>
      <point x="441" y="310"/>
      <point x="492" y="289" type="curve"/>
      <point x="517" y="377" type="line"/>
      <point x="458" y="402"/>
      <point x="397" y="415"/>
      <point x="330" y="415" type="curve" smooth="yes"/>
      <point x="241" y="415"/>
      <point x="167" y="402"/>
      <point x="43" y="344" type="curve"/>
      <point x="64" y="218"/>
      <point x="177" y="140"/>
    </contour>
  </outline>
</glyph>
<glyph name="ga" format="2">
  <advance width="689"/>
  <unicode hex="1002"/>
  <note>
ga
</note>
  <outline>
    <contour>
      <point x="191" y="140" type="curve"/>
      <point x="266" y="248" type="line"/>
      <point x="214" y="293"/>
      <point x="197" y="338"/>
      <point x="197" y="395" type="curve" smooth="yes"/>
      <point x="197" y="481"/>
      <point x="256" y="541"/>
      <point x="344" y="541" type="curve" smooth="yes"/>
      <point x="432" y="541"/>
      <point x="492" y="484"/>
      <point x="492" y="395" type="curve" smooth="yes"/>
      <point x="492" y="340"/>
      <point x="475" y="293"/>
      <point x="423" y="248" type="curve"/>
      <point x="498" y="140" type="line"/>
      <point x="583" y="184"/>
      <point x="644" y="271"/>
      <point x="644" y="395" type="curve" smooth="yes"/>
      <point x="644" y="548"/>
      <point x="526" y="649"/>
      <point x="345" y="649" type="curve" smooth="yes"/>
      <point x="164" y="649"/>
      <point x="45" y="548"/>
      <point x="45" y="395" type="curve" smooth="yes"/>
      <point x="45" y="271"/>
      <point x="106" y="184"/>
    </contour>
  </outline>
</glyph>
<glyph name="gha" format="2">
  <advance width="1111"/>
  <unicode hex="1003"/>
  <note>
gha
</note>
  <outline>
    <contour>
      <point x="321" y="140" type="curve" smooth="yes"/>
      <point x="507" y="140"/>
      <point x="622" y="234"/>
      <point x="622" y="394" type="curve" smooth="yes"/>
      <point x="622" y="525"/>
      <point x="562" y="605"/>
      <point x="479" y="649" type="curve"/>
      <point x="405" y="541" type="line"/>
      <point x="465" y="501"/>
      <point x="485" y="449"/>
      <point x="485" y="394" type="curve" smooth="yes"/>
      <point x="485" y="305"/>
      <point x="424" y="248"/>
      <point x="324" y="248" type="curve" smooth="yes"/>
      <point x="253" y="248"/>
      <point x="202" y="287"/>
      <point x="202" y="334" type="curve" smooth="yes"/>
      <point x="202" y="366"/>
      <point x="215" y="385"/>
      <point x="256" y="415" type="curve" smooth="yes"/>
      <point x="303" y="449"/>
      <point x="330" y="486"/>
      <point x="330" y="536" type="curve" smooth="yes"/>
      <point x="330" y="603"/>
      <point x="279" y="650"/>
      <point x="186" y="650" type="curve" smooth="yes"/>
      <point x="125" y="650"/>
      <point x="69" y="625"/>
      <point x="32" y="575" type="curve"/>
      <point x="107" y="505" type="line"/>
      <point x="124" y="519"/>
      <point x="147" y="532"/>
      <point x="168" y="532" type="curve" smooth="yes"/>
      <point x="184" y="532"/>
      <point x="191" y="527"/>
      <point x="191" y="517" type="curve" smooth="yes"/>
      <point x="191" y="497"/>
      <point x="166" y="488"/>
      <point x="125" y="457" type="curve" smooth="yes"/>
      <point x="80" y="422"/>
      <point x="51" y="381"/>
      <point x="51" y="325" type="curve" smooth="yes"/>
      <point x="51" y="213"/>
      <point x="162" y="140"/>
    </contour>
    <contour>
      <point x="770" y="140" type="curve" smooth="yes"/>
      <point x="950" y="140"/>
      <point x="1066" y="237"/>
      <point x="1066" y="394" type="curve" smooth="yes"/>
      <point x="1066" y="542"/>
      <point x="949" y="649"/>
      <point x="791" y="649" type="curve" smooth="yes"/>
      <point x="753" y="649"/>
      <point x="691" y="639"/>
      <point x="660" y="621" type="curve"/>
      <point x="710" y="521" type="line"/>
      <point x="746" y="532"/>
      <point x="757" y="535"/>
      <point x="787" y="535" type="curve" smooth="yes"/>
      <point x="863" y="535"/>
      <point x="914" y="482"/>
      <point x="914" y="394" type="curve" smooth="yes"/>
      <point x="914" y="310"/>
      <point x="858" y="247"/>
      <point x="772" y="247" type="curve" smooth="yes"/>
      <point x="690" y="247"/>
      <point x="634" y="291"/>
      <point x="610" y="344" type="curve"/>
      <point x="549" y="228" type="line"/>
      <point x="586" y="182"/>
      <point x="656" y="140"/>
    </contour>
  </outline>
</glyph>
<glyph name="nga" format="2">
  <advance width="661"/>
  <unicode hex="1004"/>
  <note>
nga
</note>
  <outline>
    <contour>
      <point x="353" y="141" type="curve" smooth="yes"/>
      <point x="474" y="141"/>
      <point x="575" y="194"/>
      <point x="618" y="267" type="curve"/>
      <point x="504" y="322" type="line"/>
      <point x="455" y="263"/>
      <point x="412" y="249"/>
      <point x="361" y="249" type="curve" smooth="yes"/>
      <point x="262" y="249"/>
      <point x="197" y="306"/>
      <point x="197" y="395" type="curve" smooth="yes"/>
      <point x="197" y="481"/>
      <point x="258" y="541"/>
      <point x="350" y="541" type="curve" smooth="yes"/>
      <point x="406" y="541"/>
      <point x="455" y="526"/>
      <point x="501" y="473" type="curve"/>
      <point x="605" y="531" type="line"/>
      <point x="564" y="604"/>
      <point x="463" y="649"/>
      <point x="353" y="649" type="curve" smooth="yes"/>
      <point x="171" y="649"/>
      <point x="45" y="546"/>
      <point x="45" y="395" type="curve" smooth="yes"/>
      <point x="45" y="244"/>
      <point x="171" y="141"/>
    </contour>
  </outline>
</glyph>
<glyph name="ca" format="2">
  <advance width="698"/>
  <unicode hex="1005"/>
  <note>
ca
</note>
  <outline>
    <contour>
      <point x="350" y="140" type="curve" smooth="yes"/>
      <point x="528" y="140"/>
      <point x="653" y="244"/>
      <point x="653" y="395" type="curve" smooth="yes"/>
      <point x="653" y="541"/>
      <point x="533" y="649"/>
      <point x="350" y="649" type="curve" smooth="yes"/>
      <point x="170" y="649"/>
      <point x="45" y="546"/>
      <point x="45" y="395" type="curve" smooth="yes"/>
      <point x="45" y="244"/>
      <point x="170" y="140"/>
    </contour>
    <contour>
      <point x="302" y="235" type="line"/>
      <point x="343" y="288"/>
      <point x="363" y="335"/>
      <point x="363" y="394" type="curve" smooth="yes"/>
      <point x="363" y="459"/>
      <point x="336" y="507"/>
      <point x="304" y="550" type="curve"/>
      <point x="215" y="517" type="line"/>
      <point x="242" y="484"/>
      <point x="265" y="449"/>
      <point x="265" y="397" type="curve" smooth="yes"/>
      <point x="265" y="343"/>
      <point x="245" y="308"/>
      <point x="212" y="271" type="curve"/>
    </contour>
    <contour>
      <point x="329" y="248" type="curve" smooth="yes"/>
      <point x="248" y="248"/>
      <point x="162" y="306"/>
      <point x="162" y="395" type="curve" smooth="yes"/>
      <point x="162" y="474"/>
      <point x="238" y="541"/>
      <point x="336" y="541" type="curve" smooth="yes"/>
      <point x="436" y="541"/>
      <point x="501" y="484"/>
      <point x="501" y="395" type="curve" smooth="yes"/>
      <point x="501" y="302"/>
      <point x="435" y="248"/>
    </contour>
  </outline>
</glyph>
<glyph name="cha" format="2">
  <advance width="1112"/>
  <unicode hex="1006"/>
  <note>
cha
</note>
  <outline>
    <contour>
      <point x="332" y="140" type="curve" smooth="yes"/>
      <point x="492" y="140"/>
      <point x="604" y="233"/>
      <point x="604" y="395" type="curve" smooth="yes"/>
      <point x="604" y="551"/>
      <point x="500" y="649"/>
      <point x="340" y="649" type="curve" smooth="yes"/>
      <point x="226" y="649"/>
      <point x="177" y="636"/>
      <point x="77" y="586" type="curve"/>
      <point x="126" y="500" type="line"/>
      <point x="198" y="538"/>
      <point x="245" y="549"/>
      <point x="313" y="549" type="curve" smooth="yes"/>
      <point x="405" y="549"/>
      <point x="466" y="496"/>
      <point x="466" y="395" type="curve" smooth="yes"/>
      <point x="466" y="296"/>
      <point x="415" y="243"/>
      <point x="317" y="243" type="curve" smooth="yes"/>
      <point x="262" y="243"/>
      <point x="206" y="265"/>
      <point x="186" y="295" type="curve"/>
      <point x="232" y="315"/>
      <point x="281" y="325"/>
      <point x="326" y="325" type="curve" smooth="yes"/>
      <point x="381" y="325"/>
      <point x="425" y="306"/>
      <point x="481" y="278" type="curve"/>
      <point x="511" y="360" type="line"/>
      <point x="454" y="397"/>
      <point x="382" y="415"/>
      <point x="317" y="415" type="curve" smooth="yes"/>
      <point x="228" y="415"/>
      <point x="167" y="402"/>
      <point x="43" y="344" type="curve"/>
      <point x="64" y="218"/>
      <point x="177" y="140"/>
    </contour>
    <contour>
      <point x="760" y="140" type="curve" smooth="yes"/>
      <point x="940" y="140"/>
      <point x="1067" y="244"/>
      <point x="1067" y="395" type="curve" smooth="yes"/>
      <point x="1067" y="541"/>
      <point x="946" y="649"/>
      <point x="760" y="649" type="curve" smooth="yes"/>
      <point x="659" y="649"/>
      <point x="582" y="618"/>
      <point x="532" y="567" type="curve"/>
      <point x="593" y="443" type="line"/>
      <point x="618" y="500"/>
      <point x="667" y="541"/>
      <point x="758" y="541" type="curve" smooth="yes"/>
      <point x="854" y="541"/>
      <point x="916" y="485"/>
      <point x="916" y="395" type="curve" smooth="yes"/>
      <point x="916" y="307"/>
      <point x="854" y="248"/>
      <point x="761" y="248" type="curve" smooth="yes"/>
      <point x="668" y="248"/>
      <point x="618" y="291"/>
      <point x="593" y="345" type="curve"/>
      <point x="531" y="223" type="line"/>
      <point x="582" y="172"/>
      <point x="657" y="140"/>
    </contour>
  </outline>
</glyph>
<glyph name="ja" format="2">
  <advance width="698"/>
  <unicode hex="1007"/>
  <note>
ja
</note>
  <outline>
    <contour>
      <point x="376" y="140" type="curve" smooth="yes"/>
      <point x="438" y="140"/>
      <point x="496" y="148"/>
      <point x="559" y="180" type="curve"/>
      <point x="468" y="267" type="line"/>
      <point x="436" y="253"/>
      <point x="411" y="248"/>
      <point x="376" y="248" type="curve" smooth="yes"/>
      <point x="255" y="248"/>
      <point x="197" y="307"/>
      <point x="197" y="395" type="curve" smooth="yes"/>
      <point x="197" y="481"/>
      <point x="258" y="541"/>
      <point x="350" y="541" type="curve" smooth="yes"/>
      <point x="375" y="541"/>
      <point x="405" y="541"/>
      <point x="412" y="541" type="curve"/>
      <point x="421" y="568" type="line"/>
      <point x="376" y="546"/>
      <point x="352" y="516"/>
      <point x="352" y="476" type="curve" smooth="yes"/>
      <point x="352" y="411"/>
      <point x="403" y="371"/>
      <point x="481" y="371" type="curve" smooth="yes"/>
      <point x="514" y="371"/>
      <point x="525" y="373"/>
      <point x="540" y="384" type="curve"/>
      <point x="517" y="387" type="line"/>
      <point x="521" y="346"/>
      <point x="540" y="307"/>
      <point x="636" y="307" type="curve" smooth="yes"/>
      <point x="676" y="307" type="line"/>
      <point x="676" y="414" type="line"/>
      <point x="633" y="414"/>
      <point x="611" y="424"/>
      <point x="611" y="451" type="curve" smooth="yes"/>
      <point x="611" y="467"/>
      <point x="614" y="471"/>
      <point x="614" y="495" type="curve" smooth="yes"/>
      <point x="614" y="575"/>
      <point x="528" y="649"/>
      <point x="362" y="649" type="curve" smooth="yes"/>
      <point x="165" y="649"/>
      <point x="45" y="544"/>
      <point x="45" y="395" type="curve" smooth="yes"/>
      <point x="45" y="231"/>
      <point x="178" y="140"/>
    </contour>
    <contour>
      <point x="478" y="442" type="curve" smooth="yes"/>
      <point x="447" y="442"/>
      <point x="431" y="457"/>
      <point x="431" y="480" type="curve" smooth="yes"/>
      <point x="431" y="504"/>
      <point x="451" y="518"/>
      <point x="478" y="518" type="curve" smooth="yes"/>
      <point x="505" y="518"/>
      <point x="525" y="504"/>
      <point x="525" y="480" type="curve" smooth="yes"/>
      <point x="525" y="457"/>
      <point x="505" y="442"/>
    </contour>
  </outline>
</glyph>
<glyph name="jha" format="2">
  <advance width="915"/>
  <unicode hex="1008"/>
  <note>
jha
</note>
  <outline>
    <contour>
      <point x="602" y="-270" type="curve" smooth="yes"/>
      <point x="748" y="-270"/>
      <point x="837" y="-180"/>
      <point x="837" y="-35" type="curve" smooth="yes"/>
      <point x="837" y="641" type="line"/>
      <point x="686" y="641" type="line"/>
      <point x="686" y="-11" type="line" smooth="yes"/>
      <point x="686" y="-113"/>
      <point x="662" y="-156"/>
      <point x="605" y="-156" type="curve" smooth="yes"/>
      <point x="548" y="-156"/>
      <point x="523" y="-114"/>
      <point x="523" y="-12" type="curve" smooth="yes"/>
      <point x="523" y="210" type="line"/>
      <point x="372" y="156" type="line"/>
      <point x="372" y="-33" type="line" smooth="yes"/>
      <point x="372" y="-182"/>
      <point x="459" y="-270"/>
    </contour>
    <contour>
      <point x="335" y="140" type="curve" smooth="yes"/>
      <point x="509" y="140"/>
      <point x="620" y="244"/>
      <point x="620" y="395" type="curve" smooth="yes"/>
      <point x="620" y="541"/>
      <point x="513" y="649"/>
      <point x="335" y="649" type="curve" smooth="yes"/>
      <point x="170" y="649"/>
      <point x="45" y="546"/>
      <point x="45" y="395" type="curve" smooth="yes"/>
      <point x="45" y="244"/>
      <point x="170" y="140"/>
    </contour>
    <contour>
      <point x="314" y="248" type="curve" smooth="yes"/>
      <point x="238" y="248"/>
      <point x="162" y="299"/>
      <point x="162" y="395" type="curve" smooth="yes"/>
      <point x="162" y="477"/>
      <point x="227" y="541"/>
      <point x="321" y="541" type="curve" smooth="yes"/>
      <point x="416" y="541"/>
      <point x="468" y="484"/>
      <point x="468" y="395" type="curve" smooth="yes"/>
      <point x="468" y="302"/>
      <point x="415" y="248"/>
    </contour>
    <contour>
      <point x="294" y="235" type="line"/>
      <point x="328" y="288"/>
      <point x="345" y="335"/>
      <point x="345" y="394" type="curve" smooth="yes"/>
      <point x="345" y="459"/>
      <point x="323" y="507"/>
      <point x="296" y="550" type="curve"/>
      <point x="207" y="517" type="line"/>
      <point x="229" y="484"/>
      <point x="247" y="449"/>
      <point x="247" y="397" type="curve" smooth="yes"/>
      <point x="247" y="343"/>
      <point x="231" y="308"/>
      <point x="204" y="271" type="curve"/>
    </contour>
  </outline>
</glyph>
<glyph name="nya" format="2">
  <advance width="660"/>
  <unicode hex="1009"/>
  <note>
nya
</note>
  <outline>
    <contour>
      <point x="296" y="-270" type="curve" smooth="yes"/>
      <point x="815" y="-270" type="line" smooth="yes"/>
      <point x="959" y="-270"/>
      <point x="1032" y="-206"/>
      <point x="1032" y="-72" type="curve" smooth="yes"/>
      <point x="1032" y="-50" type="line"/>
      <point x="882" y="-50" type="line"/>
      <point x="882" y="-86" type="line" smooth="yes"/>
      <point x="882" y="-132"/>
      <point x="862" y="-158"/>
      <point x="818" y="-158" type="curve" smooth="yes"/>
      <point x="294" y="-158" type="line" smooth="yes"/>
      <point x="255" y="-158"/>
      <point x="228" y="-139"/>
      <point x="228" y="-86" type="curve" smooth="yes"/>
      <point x="228" y="189" type="line"/>
      <point x="78" y="266" type="line"/>
      <point x="78" y="-74" type="line" smooth="yes"/>
      <point x="78" y="-205"/>
      <point x="151" y="-270"/>
    </contour>
    <contour>
      <point x="346" y="141" type="curve" smooth="yes"/>
      <point x="499" y="141"/>
      <point x="615" y="252"/>
      <point x="615" y="395" type="curve" smooth="yes"/>
      <point x="615" y="549"/>
      <point x="499" y="649"/>
      <point x="327" y="649" type="curve" smooth="yes"/>
      <point x="217" y="649"/>
      <point x="132" y="604"/>
      <point x="91" y="531" type="curve"/>
      <point x="195" y="473" type="line"/>
      <point x="241" y="526"/>
      <point x="274" y="541"/>
      <point x="330" y="541" type="curve" smooth="yes"/>
      <point x="409" y="541"/>
      <point x="463" y="483"/>
      <point x="463" y="395" type="curve" smooth="yes"/>
      <point x="463" y="305"/>
      <point x="404" y="249"/>
      <point x="319" y="249" type="curve" smooth="yes"/>
      <point x="268" y="249"/>
      <point x="241" y="263"/>
      <point x="192" y="322" type="curve"/>
      <point x="78" y="267" type="line"/>
      <point x="128" y="221"/>
      <point x="234" y="141"/>
    </contour>
  </outline>
</glyph>
<glyph name="tta" format="2">
  <advance width="679"/>
  <unicode hex="100B"/>
  <note>
tta
</note>
  <outline>
    <contour>
      <point x="432" y="-270" type="line"/>
      <point x="678" y="-270" type="line"/>
      <point x="678" y="-162" type="line"/>
      <point x="582" y="-162" type="line"/>
      <point x="582" y="-4" type="line"/>
      <point x="502" y="-40"/>
      <point x="412" y="-62"/>
      <point x="320" y="-62" type="curve" smooth="yes"/>
      <point x="273" y="-62"/>
      <point x="244" y="-59"/>
      <point x="217" y="-54" type="curve"/>
      <point x="217" y="1" type="line"/>
      <point x="250" y="-4"/>
      <point x="283" y="-5"/>
      <point x="316" y="-5" type="curve" smooth="yes"/>
      <point x="414" y="-5"/>
      <point x="510" y="22"/>
      <point x="582" y="63" type="curve"/>
      <point x="582" y="266" type="line"/>
      <point x="432" y="189" type="line"/>
      <point x="432" y="117" type="line"/>
      <point x="407" y="104"/>
      <point x="363" y="94"/>
      <point x="295" y="94" type="curve" smooth="yes"/>
      <point x="205" y="94"/>
      <point x="120" y="119"/>
      <point x="67" y="149" type="curve"/>
      <point x="67" y="-127" type="line"/>
      <point x="147" y="-153"/>
      <point x="229" y="-161"/>
      <point x="316" y="-161" type="curve" smooth="yes"/>
      <point x="355" y="-161"/>
      <point x="396" y="-156"/>
      <point x="432" y="-148" type="curve"/>
    </contour>
    <contour>
      <point x="314" y="140" type="curve" smooth="yes"/>
      <point x="403" y="140"/>
      <point x="469" y="189"/>
      <point x="582" y="266" type="curve"/>
      <point x="468" y="321" type="line"/>
      <point x="444" y="273"/>
      <point x="398" y="248"/>
      <point x="342" y="248" type="curve" smooth="yes"/>
      <point x="249" y="248"/>
      <point x="197" y="308"/>
      <point x="197" y="395" type="curve" smooth="yes"/>
      <point x="197" y="483"/>
      <point x="250" y="541"/>
      <point x="332" y="541" type="curve" smooth="yes"/>
      <point x="392" y="541"/>
      <point x="439" y="519"/>
      <point x="466" y="473" type="curve"/>
      <point x="571" y="532" type="line"/>
      <point x="538" y="601"/>
      <point x="449" y="649"/>
      <point x="333" y="649" type="curve" smooth="yes"/>
      <point x="162" y="649"/>
      <point x="45" y="544"/>
      <point x="45" y="395" type="curve" smooth="yes"/>
      <point x="45" y="252"/>
      <point x="149" y="140"/>
    </contour>
  </outline>
</glyph>
<glyph name="ttha" format="2">
  <advance width="660"/>
  <unicode hex="100C"/>
  <note>
ttha
</note>
  <outline>
    <contour>
      <point x="259" y="-270" type="curve" smooth="yes"/>
      <point x="365" y="-270" type="line" smooth="yes"/>
      <point x="510" y="-270"/>
      <point x="582" y="-206"/>
      <point x="582" y="-77" type="curve" smooth="yes"/>
      <point x="582" y="266" type="line"/>
      <point x="433" y="156" type="line"/>
      <point x="433" y="-86" type="line" smooth="yes"/>
      <point x="433" y="-132"/>
      <point x="413" y="-158"/>
      <point x="369" y="-158" type="curve" smooth="yes"/>
      <point x="257" y="-158" type="line" smooth="yes"/>
      <point x="228" y="-158"/>
      <point x="196" y="-150"/>
      <point x="196" y="-123" type="curve" smooth="yes"/>
      <point x="196" y="-107"/>
      <point x="209" y="-93"/>
      <point x="242" y="-93" type="curve" smooth="yes"/>
      <point x="264" y="-93"/>
      <point x="284" y="-100"/>
      <point x="304" y="-111" type="curve"/>
      <point x="372" y="-19" type="line"/>
      <point x="333" y="4"/>
      <point x="288" y="20"/>
      <point x="215" y="20" type="curve" smooth="yes"/>
      <point x="121" y="20"/>
      <point x="45" y="-37"/>
      <point x="45" y="-122" type="curve" smooth="yes"/>
      <point x="45" y="-219"/>
      <point x="124" y="-270"/>
    </contour>
    <contour>
      <point x="314" y="140" type="curve" smooth="yes"/>
      <point x="402" y="140"/>
      <point x="468" y="147"/>
      <point x="582" y="266" type="curve"/>
      <point x="468" y="321" type="line"/>
      <point x="444" y="273"/>
      <point x="398" y="248"/>
      <point x="342" y="248" type="curve" smooth="yes"/>
      <point x="249" y="248"/>
      <point x="197" y="308"/>
      <point x="197" y="395" type="curve" smooth="yes"/>
      <point x="197" y="483"/>
      <point x="250" y="541"/>
      <point x="332" y="541" type="curve" smooth="yes"/>
      <point x="392" y="541"/>
      <point x="439" y="519"/>
      <point x="466" y="473" type="curve"/>
      <point x="571" y="532" type="line"/>
      <point x="538" y="601"/>
      <point x="449" y="649"/>
      <point x="333" y="649" type="curve" smooth="yes"/>
      <point x="162" y="649"/>
      <point x="45" y="544"/>
      <point x="45" y="395" type="curve" smooth="yes"/>
      <point x="45" y="252"/>
      <point x="149" y="140"/>
    </contour>
  </outline>
</glyph>
<glyph name="dda" format="2">
  <advance width="679"/>
  <unicode hex="100D"/>
  <note>
dda
</note>
  <outline>
    <contour>
      <point x="443" y="-270" type="line"/>
      <point x="689" y="-270" type="line"/>
      <point x="689" y="-162" type="line"/>
      <point x="593" y="-162" type="line"/>
      <point x="593" y="148" type="line"/>
      <point x="540" y="115"/>
      <point x="455" y="86"/>
      <point x="365" y="86" type="curve" smooth="yes"/>
      <point x="297" y="86"/>
      <point x="253" y="92"/>
      <point x="228" y="99" type="curve"/>
      <point x="228" y="190" type="line"/>
      <point x="78" y="267" type="line"/>
      <point x="78" y="15" type="line"/>
      <point x="150" y="-11"/>
      <point x="246" y="-29"/>
      <point x="344" y="-29" type="curve" smooth="yes"/>
      <point x="377" y="-29"/>
      <point x="410" y="-28"/>
      <point x="443" y="-23" type="curve"/>
    </contour>
    <contour>
      <point x="349" y="141" type="curve" smooth="yes"/>
      <point x="514" y="141"/>
      <point x="615" y="253"/>
      <point x="615" y="396" type="curve" smooth="yes"/>
      <point x="615" y="545"/>
      <point x="498" y="650"/>
      <point x="327" y="650" type="curve" smooth="yes"/>
      <point x="211" y="650"/>
      <point x="122" y="602"/>
      <point x="89" y="532" type="curve"/>
      <point x="194" y="474" type="line"/>
      <point x="221" y="520"/>
      <point x="268" y="542"/>
      <point x="328" y="542" type="curve" smooth="yes"/>
      <point x="410" y="542"/>
      <point x="463" y="484"/>
      <point x="463" y="396" type="curve" smooth="yes"/>
      <point x="463" y="309"/>
      <point x="411" y="249"/>
      <point x="318" y="249" type="curve" smooth="yes"/>
      <point x="262" y="249"/>
      <point x="216" y="274"/>
      <point x="192" y="322" type="curve"/>
      <point x="78" y="267" type="line"/>
      <point x="191" y="165"/>
      <point x="247" y="141"/>
    </contour>
  </outline>
</glyph>
<glyph name="ddha" format="2">
  <advance width="712"/>
  <unicode hex="100E"/>
  <note>
ddha
</note>
  <outline>
    <contour>
      <point x="340" y="140" type="curve" smooth="yes"/>
      <point x="523" y="140"/>
      <point x="652" y="234"/>
      <point x="652" y="395" type="curve" smooth="yes"/>
      <point x="652" y="525"/>
      <point x="588" y="605"/>
      <point x="499" y="649" type="curve"/>
      <point x="425" y="541" type="line"/>
      <point x="492" y="501"/>
      <point x="515" y="450"/>
      <point x="515" y="395" type="curve" smooth="yes"/>
      <point x="515" y="305"/>
      <point x="451" y="248"/>
      <point x="340" y="248" type="curve" smooth="yes"/>
      <point x="253" y="248"/>
      <point x="202" y="287"/>
      <point x="202" y="334" type="curve" smooth="yes"/>
      <point x="202" y="366"/>
      <point x="215" y="385"/>
      <point x="256" y="415" type="curve" smooth="yes"/>
      <point x="303" y="449"/>
      <point x="330" y="486"/>
      <point x="330" y="536" type="curve" smooth="yes"/>
      <point x="330" y="603"/>
      <point x="279" y="650"/>
      <point x="186" y="650" type="curve" smooth="yes"/>
      <point x="125" y="650"/>
      <point x="69" y="625"/>
      <point x="32" y="575" type="curve"/>
      <point x="107" y="505" type="line"/>
      <point x="124" y="519"/>
      <point x="147" y="532"/>
      <point x="168" y="532" type="curve" smooth="yes"/>
      <point x="184" y="532"/>
      <point x="191" y="527"/>
      <point x="191" y="517" type="curve" smooth="yes"/>
      <point x="191" y="497"/>
      <point x="166" y="488"/>
      <point x="125" y="457" type="curve" smooth="yes"/>
      <point x="80" y="422"/>
      <point x="51" y="381"/>
      <point x="51" y="325" type="curve" smooth="yes"/>
      <point x="51" y="213"/>
      <point x="162" y="140"/>
    </contour>
  </outline>
</glyph>
<glyph name="nna" format="2">
  <advance width="1354"/>
  <unicode hex="100F"/>
  <note>
nna
</note>
  <outline>
    <contour>
      <point x="677" y="142" type="curve" smooth="yes"/>
      <point x="784" y="142"/>
      <point x="853" y="195"/>
      <point x="853" y="281" type="curve" smooth="yes"/>
      <point x="853" y="320"/>
      <point x="840" y="350"/>
      <point x="840" y="388" type="curve" smooth="yes"/>
      <point x="840" y="482"/>
      <point x="902" y="542"/>
      <point x="1002" y="542" type="curve" smooth="yes"/>
      <point x="1092" y="542"/>
      <point x="1156" y="487"/>
      <point x="1156" y="395" type="curve" smooth="yes"/>
      <point x="1156" y="306"/>
      <point x="1100" y="255"/>
      <point x="1025" y="255" type="curve" smooth="yes"/>
      <point x="1000" y="255"/>
      <point x="981" y="256"/>
      <point x="959" y="265" type="curve"/>
      <point x="925" y="157" type="line"/>
      <point x="962" y="144"/>
      <point x="991" y="141"/>
      <point x="1041" y="141" type="curve" smooth="yes"/>
      <point x="1195" y="141"/>
      <point x="1309" y="251"/>
      <point x="1309" y="395" type="curve" smooth="yes"/>
      <point x="1309" y="542"/>
      <point x="1183" y="649"/>
      <point x="1006" y="649" type="curve" smooth="yes"/>
      <point x="841" y="649"/>
      <point x="720" y="557"/>
      <point x="720" y="404" type="curve" smooth="yes"/>
      <point x="720" y="359"/>
      <point x="732" y="347"/>
      <point x="732" y="301" type="curve" smooth="yes"/>
      <point x="732" y="271"/>
      <point x="713" y="253"/>
      <point x="678" y="253" type="curve" smooth="yes"/>
      <point x="640" y="253"/>
      <point x="622" y="271"/>
      <point x="622" y="301" type="curve" smooth="yes"/>
      <point x="622" y="350"/>
      <point x="633" y="352"/>
      <point x="633" y="404" type="curve" smooth="yes"/>
      <point x="633" y="555"/>
      <point x="514" y="649"/>
      <point x="347" y="649" type="curve" smooth="yes"/>
      <point x="171" y="649"/>
      <point x="45" y="547"/>
      <point x="45" y="395" type="curve" smooth="yes"/>
      <point x="45" y="251"/>
      <point x="159" y="141"/>
      <point x="313" y="141" type="curve" smooth="yes"/>
      <point x="362" y="141"/>
      <point x="394" y="144"/>
      <point x="428" y="156" type="curve"/>
      <point x="393" y="264" type="line"/>
      <point x="372" y="256"/>
      <point x="353" y="255"/>
      <point x="329" y="255" type="curve" smooth="yes"/>
      <point x="254" y="255"/>
      <point x="197" y="308"/>
      <point x="197" y="395" type="curve" smooth="yes"/>
      <point x="197" y="485"/>
      <point x="260" y="541"/>
      <point x="352" y="541" type="curve" smooth="yes"/>
      <point x="448" y="541"/>
      <point x="512" y="482"/>
      <point x="512" y="388" type="curve" smooth="yes"/>
      <point x="512" y="350"/>
      <point x="500" y="320"/>
      <point x="500" y="281" type="curve" smooth="yes"/>
      <point x="500" y="193"/>
      <point x="571" y="142"/>
    </contour>
    <contour>
      <point x="605" y="504" type="line"/>
      <point x="614" y="529"/>
      <point x="638" y="541"/>
      <point x="678" y="541" type="curve" smooth="yes"/>
      <point x="708" y="541"/>
      <point x="742" y="530"/>
      <point x="748" y="502" type="curve"/>
      <point x="824" y="584" type="line"/>
      <point x="793" y="619"/>
      <point x="747" y="649"/>
      <point x="678" y="649" type="curve" smooth="yes"/>
      <point x="615" y="649"/>
      <point x="572" y="630"/>
      <point x="525" y="581" type="curve"/>
    </contour>
  </outline>
</glyph>
<glyph name="ta" format="2">
  <advance width="1109"/>
  <unicode hex="1010"/>
  <note>
ta
</note>
  <outline>
    <contour>
      <point x="340" y="140" type="curve" smooth="yes"/>
      <point x="511" y="140"/>
      <point x="619" y="244"/>
      <point x="619" y="395" type="curve" smooth="yes"/>
      <point x="619" y="540"/>
      <point x="520" y="649"/>
      <point x="340" y="649" type="curve" smooth="yes"/>
      <point x="170" y="649"/>
      <point x="45" y="546"/>
      <point x="45" y="395" type="curve" smooth="yes"/>
      <point x="45" y="244"/>
      <point x="170" y="140"/>
    </contour>
    <contour>
      <point x="339" y="248" type="curve" smooth="yes"/>
      <point x="256" y="248"/>
      <point x="197" y="308"/>
      <point x="197" y="395" type="curve" smooth="yes"/>
      <point x="197" y="482"/>
      <point x="257" y="541"/>
      <point x="339" y="541" type="curve" smooth="yes"/>
      <point x="428" y="541"/>
      <point x="482" y="485"/>
      <point x="482" y="395" type="curve" smooth="yes"/>
      <point x="482" y="307"/>
      <point x="430" y="248"/>
    </contour>
    <contour>
      <point x="789" y="140" type="curve" smooth="yes"/>
      <point x="947" y="140"/>
      <point x="1064" y="247"/>
      <point x="1064" y="396" type="curve" smooth="yes"/>
      <point x="1064" y="552"/>
      <point x="948" y="649"/>
      <point x="768" y="649" type="curve" smooth="yes"/>
      <point x="654" y="649"/>
      <point x="584" y="607"/>
      <point x="547" y="561" type="curve"/>
      <point x="608" y="445" type="line"/>
      <point x="632" y="498"/>
      <point x="688" y="542"/>
      <point x="770" y="542" type="curve" smooth="yes"/>
      <point x="856" y="542"/>
      <point x="912" y="479"/>
      <point x="912" y="396" type="curve" smooth="yes"/>
      <point x="912" y="307"/>
      <point x="861" y="254"/>
      <point x="785" y="254" type="curve" smooth="yes"/>
      <point x="756" y="254"/>
      <point x="745" y="257"/>
      <point x="710" y="269" type="curve"/>
      <point x="660" y="169" type="line"/>
      <point x="691" y="151"/>
      <point x="752" y="140"/>
    </contour>
  </outline>
</glyph>
<glyph name="tha" format="2">
  <advance width="1110"/>
  <unicode hex="1011"/>
  <note>
tha
</note>
  <outline>
    <contour>
      <point x="340" y="140" type="curve" smooth="yes"/>
      <point x="509" y="140"/>
      <point x="620" y="244"/>
      <point x="620" y="395" type="curve" smooth="yes"/>
      <point x="620" y="541"/>
      <point x="513" y="649"/>
      <point x="340" y="649" type="curve" smooth="yes"/>
      <point x="170" y="649"/>
      <point x="45" y="546"/>
      <point x="45" y="395" type="curve" smooth="yes"/>
      <point x="45" y="244"/>
      <point x="170" y="140"/>
    </contour>
    <contour>
      <point x="339" y="248" type="curve" smooth="yes"/>
      <point x="256" y="248"/>
      <point x="197" y="308"/>
      <point x="197" y="395" type="curve" smooth="yes"/>
      <point x="197" y="482"/>
      <point x="257" y="541"/>
      <point x="339" y="541" type="curve" smooth="yes"/>
      <point x="427" y="541"/>
      <point x="481" y="485"/>
      <point x="481" y="395" type="curve" smooth="yes"/>
      <point x="481" y="307"/>
      <point x="430" y="248"/>
    </contour>
    <contour>
      <point x="766" y="140" type="curve" smooth="yes"/>
      <point x="943" y="140"/>
      <point x="1065" y="240"/>
      <point x="1065" y="395" type="curve" smooth="yes"/>
      <point x="1065" y="546"/>
      <point x="944" y="649"/>
      <point x="770" y="649" type="curve" smooth="yes"/>
      <point x="679" y="649"/>
      <point x="597" y="622"/>
      <point x="545" y="559" type="curve"/>
      <point x="607" y="442" type="line"/>
      <point x="634" y="500"/>
      <point x="679" y="541"/>
      <point x="763" y="541" type="curve" smooth="yes"/>
      <point x="853" y="541"/>
      <point x="913" y="486"/>
      <point x="913" y="395" type="curve" smooth="yes"/>
      <point x="913" y="308"/>
      <point x="854" y="248"/>
      <point x="766" y="248" type="curve" smooth="yes"/>
      <point x="679" y="248"/>
      <point x="634" y="290"/>
      <point x="608" y="346" type="curve"/>
      <point x="545" y="231" type="line"/>
      <point x="597" y="168"/>
      <point x="676" y="140"/>
    </contour>
  </outline>
</glyph>
<glyph name="da" format="2">
  <advance width="665"/>
  <unicode hex="1012"/>
  <note>
da
</note>
  <outline>
    <contour>
      <point x="339" y="140" type="curve" smooth="yes"/>
      <point x="531" y="140"/>
      <point x="620" y="196"/>
      <point x="620" y="284" type="curve" smooth="yes"/>
      <point x="620" y="356"/>
      <point x="560" y="389"/>
      <point x="468" y="403" type="curve"/>
      <point x="468" y="407" type="line"/>
      <point x="552" y="428"/>
      <point x="587" y="461"/>
      <point x="587" y="515" type="curve" smooth="yes"/>
      <point x="587" y="602"/>
      <point x="498" y="649"/>
      <point x="319" y="649" type="curve" smooth="yes"/>
      <point x="160" y="649"/>
      <point x="63" y="594"/>
      <point x="63" y="509" type="curve" smooth="yes"/>
      <point x="63" y="478"/>
      <point x="77" y="446"/>
      <point x="105" y="424" type="curve"/>
      <point x="207" y="477" type="line"/>
      <point x="193" y="491"/>
      <point x="191" y="495"/>
      <point x="191" y="509" type="curve" smooth="yes"/>
      <point x="191" y="538"/>
      <point x="265" y="550"/>
      <point x="324" y="550" type="curve" smooth="yes"/>
      <point x="385" y="550"/>
      <point x="452" y="543"/>
      <point x="452" y="505" type="curve" smooth="yes"/>
      <point x="452" y="469"/>
      <point x="397" y="454"/>
      <point x="336" y="454" type="curve" smooth="yes"/>
      <point x="318" y="454" type="line"/>
      <point x="318" y="359" type="line"/>
      <point x="344" y="359" type="line" smooth="yes"/>
      <point x="424" y="359"/>
      <point x="471" y="343"/>
      <point x="471" y="307" type="curve" smooth="yes"/>
      <point x="471" y="268"/>
      <point x="413" y="243"/>
      <point x="346" y="243" type="curve" smooth="yes"/>
      <point x="240" y="243"/>
      <point x="173" y="280"/>
      <point x="130" y="343" type="curve"/>
      <point x="23" y="289" type="line"/>
      <point x="70" y="193"/>
      <point x="181" y="140"/>
    </contour>
  </outline>
</glyph>
<glyph name="dha" format="2">
  <advance width="698"/>
  <unicode hex="1013"/>
  <note>
dha
</note>
  <outline>
    <contour>
      <point x="205" y="293" type="line"/>
      <point x="245" y="311"/>
      <point x="287" y="325"/>
      <point x="348" y="325" type="curve" smooth="yes"/>
      <point x="412" y="325"/>
      <point x="451" y="314"/>
      <point x="495" y="295" type="curve"/>
      <point x="527" y="370" type="line"/>
      <point x="469" y="399"/>
      <point x="417" y="415"/>
      <point x="352" y="415" type="curve" smooth="yes"/>
      <point x="278" y="415"/>
      <point x="222" y="394"/>
      <point x="173" y="370" type="curve"/>
    </contour>
    <contour>
      <point x="350" y="140" type="curve" smooth="yes"/>
      <point x="528" y="140"/>
      <point x="653" y="244"/>
      <point x="653" y="395" type="curve" smooth="yes"/>
      <point x="653" y="541"/>
      <point x="533" y="649"/>
      <point x="350" y="649" type="curve" smooth="yes"/>
      <point x="170" y="649"/>
      <point x="45" y="546"/>
      <point x="45" y="395" type="curve" smooth="yes"/>
      <point x="45" y="244"/>
      <point x="170" y="140"/>
    </contour>
    <contour>
      <point x="348" y="243" type="curve" smooth="yes"/>
      <point x="237" y="243"/>
      <point x="189" y="305"/>
      <point x="189" y="395" type="curve" smooth="yes"/>
      <point x="189" y="482"/>
      <point x="252" y="541"/>
      <point x="349" y="541" type="curve" smooth="yes"/>
      <point x="444" y="541"/>
      <point x="509" y="485"/>
      <point x="509" y="395" type="curve" smooth="yes"/>
      <point x="509" y="304"/>
      <point x="459" y="243"/>
    </contour>
  </outline>
</glyph>
<glyph name="na" format="2">
  <advance width="561"/>
  <unicode hex="1014"/>
  <note>
na
</note>
  <outline>
    <contour>
      <point x="214" y="-270" type="line"/>
      <point x="323" y="-270" type="line"/>
      <point x="323" y="157" type="line" smooth="yes"/>
      <point x="323" y="307"/>
      <point x="248" y="369"/>
      <point x="150" y="369" type="curve" smooth="yes"/>
      <point x="76" y="369"/>
      <point x="19" y="322"/>
      <point x="19" y="264" type="curve" smooth="yes"/>
      <point x="19" y="190"/>
      <point x="84" y="142"/>
      <point x="244" y="142" type="curve" smooth="yes"/>
      <point x="285" y="142" type="line" smooth="yes"/>
      <point x="467" y="144"/>
      <point x="528" y="209"/>
      <point x="528" y="295" type="curve" smooth="yes"/>
      <point x="528" y="390"/>
      <point x="470" y="421"/>
      <point x="356" y="461" type="curve" smooth="yes"/>
      <point x="305" y="479"/>
      <point x="262" y="494"/>
      <point x="262" y="520" type="curve" smooth="yes"/>
      <point x="262" y="541"/>
      <point x="283" y="550"/>
      <point x="306" y="550" type="curve" smooth="yes"/>
      <point x="335" y="550"/>
      <point x="382" y="534"/>
      <point x="409" y="505" type="curve"/>
      <point x="486" y="583" type="line"/>
      <point x="434" y="628"/>
      <point x="371" y="650"/>
      <point x="296" y="650" type="curve" smooth="yes"/>
      <point x="195" y="650"/>
      <point x="120" y="596"/>
      <point x="120" y="521" type="curve" smooth="yes"/>
      <point x="120" y="458"/>
      <point x="157" y="423"/>
      <point x="251" y="387" type="curve" smooth="yes"/>
      <point x="326" y="358"/>
      <point x="386" y="336"/>
      <point x="386" y="293" type="curve" smooth="yes"/>
      <point x="386" y="242"/>
      <point x="313" y="231"/>
      <point x="232" y="230" type="curve" smooth="yes"/>
      <point x="226" y="230" type="line" smooth="yes"/>
      <point x="147" y="230"/>
      <point x="110" y="238"/>
      <point x="110" y="271" type="curve" smooth="yes"/>
      <point x="110" y="289"/>
      <point x="126" y="303"/>
      <point x="148" y="303" type="curve" smooth="yes"/>
      <point x="199" y="303"/>
      <point x="214" y="250"/>
      <point x="214" y="156" type="curve" smooth="yes"/>
    </contour>
  </outline>
</glyph>
<glyph name="pa" format="2">
  <advance width="698"/>
  <unicode hex="1015"/>
  <note>
pa
</note>
  <outline>
    <contour>
      <point x="350" y="140" type="curve" smooth="yes"/>
      <point x="536" y="140"/>
      <point x="653" y="244"/>
      <point x="653" y="395" type="curve" smooth="yes"/>
      <point x="653" y="518"/>
      <point x="591" y="605"/>
      <point x="505" y="649" type="curve"/>
      <point x="430" y="541" type="line"/>
      <point x="484" y="496"/>
      <point x="501" y="449"/>
      <point x="501" y="395" type="curve" smooth="yes"/>
      <point x="501" y="306"/>
      <point x="438" y="248"/>
      <point x="349" y="248" type="curve" smooth="yes"/>
      <point x="258" y="248"/>
      <point x="197" y="308"/>
      <point x="197" y="395" type="curve" smooth="yes"/>
      <point x="197" y="451"/>
      <point x="215" y="496"/>
      <point x="268" y="541" type="curve"/>
      <point x="193" y="649" type="line"/>
      <point x="107" y="605"/>
      <point x="45" y="518"/>
      <point x="45" y="395" type="curve" smooth="yes"/>
      <point x="45" y="243"/>
      <point x="164" y="140"/>
    </contour>
  </outline>
</glyph>
<glyph name="pha" format="2">
  <advance width="697"/>
  <unicode hex="1016"/>
  <note>
pha
</note>
  <outline>
    <contour>
      <point x="348" y="140" type="curve" smooth="yes"/>
      <point x="533" y="140"/>
      <point x="652" y="243"/>
      <point x="652" y="395" type="curve" smooth="yes"/>
      <point x="652" y="509"/>
      <point x="581" y="605"/>
      <point x="462" y="649" type="curve"/>
      <point x="389" y="581"/>
      <point x="341" y="508"/>
      <point x="341" y="408" type="curve" smooth="yes"/>
      <point x="341" y="345"/>
      <point x="362" y="290"/>
      <point x="397" y="238" type="curve"/>
      <point x="485" y="279" type="line"/>
      <point x="452" y="320"/>
      <point x="431" y="362"/>
      <point x="431" y="408" type="curve" smooth="yes"/>
      <point x="431" y="457"/>
      <point x="449" y="488"/>
      <point x="476" y="518" type="curve"/>
      <point x="517" y="481"/>
      <point x="530" y="443"/>
      <point x="530" y="397" type="curve" smooth="yes"/>
      <point x="530" y="314"/>
      <point x="445" y="248"/>
      <point x="360" y="248" type="curve" smooth="yes"/>
      <point x="260" y="248"/>
      <point x="197" y="302"/>
      <point x="197" y="395" type="curve" smooth="yes"/>
      <point x="197" y="449"/>
      <point x="215" y="496"/>
      <point x="268" y="541" type="curve"/>
      <point x="193" y="649" type="line"/>
      <point x="107" y="605"/>
      <point x="45" y="518"/>
      <point x="45" y="395" type="curve" smooth="yes"/>
      <point x="45" y="244"/>
      <point x="162" y="140"/>
    </contour>
  </outline>
</glyph>
<glyph name="ba" format="2">
  <advance width="701"/>
  <unicode hex="1017"/>
  <note>
ba
</note>
  <outline>
    <contour>
      <point x="350" y="140" type="curve" smooth="yes"/>
      <point x="536" y="140"/>
      <point x="653" y="244"/>
      <point x="653" y="395" type="curve" smooth="yes"/>
      <point x="653" y="519"/>
      <point x="608" y="607"/>
      <point x="546" y="651" type="curve"/>
      <point x="441" y="552" type="line"/>
      <point x="487" y="504"/>
      <point x="501" y="452"/>
      <point x="501" y="395" type="curve" smooth="yes"/>
      <point x="501" y="306"/>
      <point x="438" y="248"/>
      <point x="349" y="248" type="curve" smooth="yes"/>
      <point x="258" y="248"/>
      <point x="197" y="308"/>
      <point x="197" y="395" type="curve" smooth="yes"/>
      <point x="197" y="456"/>
      <point x="213" y="504"/>
      <point x="260" y="552" type="curve"/>
      <point x="154" y="649" type="line"/>
      <point x="91" y="605"/>
      <point x="45" y="518"/>
      <point x="45" y="395" type="curve" smooth="yes"/>
      <point x="45" y="243"/>
      <point x="164" y="140"/>
    </contour>
    <contour>
      <point x="350" y="400" type="curve" smooth="yes"/>
      <point x="464" y="400"/>
      <point x="557" y="485"/>
      <point x="557" y="590" type="curve" smooth="yes"/>
      <point x="557" y="612"/>
      <point x="553" y="632"/>
      <point x="546" y="651" type="curve"/>
      <point x="437" y="597" type="line"/>
      <point x="439" y="590"/>
      <point x="439" y="584"/>
      <point x="439" y="577" type="curve" smooth="yes"/>
      <point x="439" y="537"/>
      <point x="401" y="513"/>
      <point x="350" y="513" type="curve" smooth="yes"/>
      <point x="297" y="513"/>
      <point x="260" y="539"/>
      <point x="260" y="577" type="curve" smooth="yes"/>
      <point x="260" y="583"/>
      <point x="260" y="588"/>
      <point x="264" y="595" type="curve"/>
      <point x="154" y="649" type="line"/>
      <point x="147" y="631"/>
      <point x="144" y="612"/>
      <point x="144" y="592" type="curve" smooth="yes"/>
      <point x="144" y="486"/>
      <point x="236" y="400"/>
    </contour>
  </outline>
</glyph>
<glyph name="bha" format="2">
  <advance width="1111"/>
  <unicode hex="1018"/>
  <note>
bha
</note>
  <outline>
    <contour>
      <point x="307" y="141" type="curve" smooth="yes"/>
      <point x="490" y="141"/>
      <point x="605" y="244"/>
      <point x="605" y="395" type="curve" smooth="yes"/>
      <point x="605" y="546"/>
      <point x="483" y="649"/>
      <point x="307" y="649" type="curve" smooth="yes"/>
      <point x="197" y="649"/>
      <point x="96" y="604"/>
      <point x="55" y="531" type="curve"/>
      <point x="159" y="473" type="line"/>
      <point x="205" y="526"/>
      <point x="254" y="541"/>
      <point x="310" y="541" type="curve" smooth="yes"/>
      <point x="402" y="541"/>
      <point x="463" y="481"/>
      <point x="463" y="395" type="curve" smooth="yes"/>
      <point x="463" y="306"/>
      <point x="398" y="249"/>
      <point x="299" y="249" type="curve" smooth="yes"/>
      <point x="248" y="249"/>
      <point x="205" y="263"/>
      <point x="156" y="322" type="curve"/>
      <point x="42" y="267" type="line"/>
      <point x="85" y="194"/>
      <point x="186" y="141"/>
    </contour>
    <contour>
      <point x="789" y="140" type="curve" smooth="yes"/>
      <point x="949" y="140"/>
      <point x="1065" y="246"/>
      <point x="1065" y="395" type="curve" smooth="yes"/>
      <point x="1065" y="544"/>
      <point x="944" y="649"/>
      <point x="758" y="649" type="curve" smooth="yes"/>
      <point x="654" y="649"/>
      <point x="576" y="613"/>
      <point x="529" y="562" type="curve"/>
      <point x="592" y="448" type="line"/>
      <point x="619" y="497"/>
      <point x="673" y="541"/>
      <point x="757" y="541" type="curve" smooth="yes"/>
      <point x="851" y="541"/>
      <point x="913" y="485"/>
      <point x="913" y="395" type="curve" smooth="yes"/>
      <point x="913" y="310"/>
      <point x="864" y="254"/>
      <point x="774" y="254" type="curve" smooth="yes"/>
      <point x="748" y="254"/>
      <point x="729" y="259"/>
      <point x="695" y="269" type="curve"/>
      <point x="645" y="169" type="line"/>
      <point x="683" y="148"/>
      <point x="748" y="140"/>
    </contour>
  </outline>
</glyph>
<glyph name="ma" format="2">
  <advance width="697"/>
  <unicode hex="1019"/>
  <note>
ma
</note>
  <outline>
    <contour>
      <point x="350" y="140" type="curve" smooth="yes"/>
      <point x="536" y="140"/>
      <point x="653" y="244"/>
      <point x="653" y="395" type="curve" smooth="yes"/>
      <point x="653" y="518"/>
      <point x="591" y="605"/>
      <point x="505" y="649" type="curve"/>
      <point x="430" y="541" type="line"/>
      <point x="489" y="496"/>
      <point x="508" y="449"/>
      <point x="508" y="395" type="curve" smooth="yes"/>
      <point x="508" y="289"/>
      <point x="447" y="242"/>
      <point x="348" y="242" type="curve" smooth="yes"/>
      <point x="247" y="242"/>
      <point x="190" y="294"/>
      <point x="190" y="395" type="curve" smooth="yes"/>
      <point x="190" y="451"/>
      <point x="210" y="496"/>
      <point x="268" y="541" type="curve"/>
      <point x="193" y="649" type="line"/>
      <point x="107" y="605"/>
      <point x="45" y="518"/>
      <point x="45" y="395" type="curve" smooth="yes"/>
      <point x="45" y="243"/>
      <point x="164" y="140"/>
    </contour>
    <contour>
      <point x="205" y="293" type="line"/>
      <point x="245" y="311"/>
      <point x="287" y="325"/>
      <point x="348" y="325" type="curve" smooth="yes"/>
      <point x="412" y="325"/>
      <point x="451" y="314"/>
      <point x="495" y="295" type="curve"/>
      <point x="527" y="370" type="line"/>
      <point x="469" y="399"/>
      <point x="417" y="415"/>
      <point x="352" y="415" type="curve" smooth="yes"/>
      <point x="278" y="415"/>
      <point x="222" y="394"/>
      <point x="173" y="370" type="curve"/>
    </contour>
  </outline>
</glyph>
<glyph name="la" format="2">
  <advance width="1110"/>
  <unicode hex="101C"/>
  <note>
la
</note>
  <outline>
    <contour>
      <point x="315" y="140" type="curve" smooth="yes"/>
      <point x="365" y="140"/>
      <point x="425" y="148"/>
      <point x="462" y="169" type="curve"/>
      <point x="411" y="269" type="line"/>
      <point x="382" y="260"/>
      <point x="364" y="254"/>
      <point x="331" y="254" type="curve" smooth="yes"/>
      <point x="250" y="254"/>
      <point x="197" y="308"/>
      <point x="197" y="395" type="curve" smooth="yes"/>
      <point x="197" y="475"/>
      <point x="237" y="534"/>
      <point x="315" y="534" type="curve" smooth="yes"/>
      <point x="390" y="534"/>
      <point x="442" y="493"/>
      <point x="494" y="353" type="curve" smooth="yes"/>
      <point x="546" y="214"/>
      <point x="636" y="141"/>
      <point x="791" y="141" type="curve" smooth="yes"/>
      <point x="960" y="141"/>
      <point x="1065" y="253"/>
      <point x="1065" y="395" type="curve" smooth="yes"/>
      <point x="1065" y="557"/>
      <point x="965" y="649"/>
      <point x="795" y="649" type="curve" smooth="yes"/>
      <point x="746" y="649"/>
      <point x="686" y="641"/>
      <point x="648" y="621" type="curve"/>
      <point x="700" y="521" type="line"/>
      <point x="728" y="530"/>
      <point x="745" y="535"/>
      <point x="779" y="535" type="curve" smooth="yes"/>
      <point x="865" y="535"/>
      <point x="914" y="474"/>
      <point x="914" y="395" type="curve" smooth="yes"/>
      <point x="914" y="312"/>
      <point x="868" y="255"/>
      <point x="795" y="255" type="curve" smooth="yes"/>
      <point x="719" y="255"/>
      <point x="672" y="298"/>
      <point x="616" y="438" type="curve" smooth="yes"/>
      <point x="559" y="580"/>
      <point x="474" y="649"/>
      <point x="320" y="649" type="curve" smooth="yes"/>
      <point x="153" y="649"/>
      <point x="45" y="539"/>
      <point x="45" y="395" type="curve" smooth="yes"/>
      <point x="45" y="234"/>
      <point x="146" y="140"/>
    </contour>
  </outline>
</glyph>
<glyph name="wa" format="2">
  <advance width="698"/>
  <unicode hex="101D"/>
  <note>
wa
</note>
  <outline>
    <contour>
      <point x="350" y="140" type="curve" smooth="yes"/>
      <point x="528" y="140"/>
      <point x="653" y="244"/>
      <point x="653" y="395" type="curve" smooth="yes"/>
      <point x="653" y="541"/>
      <point x="533" y="649"/>
      <point x="350" y="649" type="curve" smooth="yes"/>
      <point x="170" y="649"/>
      <point x="45" y="546"/>
      <point x="45" y="395" type="curve" smooth="yes"/>
      <point x="45" y="244"/>
      <point x="170" y="140"/>
    </contour>
    <contour>
      <point x="349" y="248" type="curve" smooth="yes"/>
      <point x="256" y="248"/>
      <point x="197" y="308"/>
      <point x="197" y="395" type="curve" smooth="yes"/>
      <point x="197" y="482"/>
      <point x="257" y="541"/>
      <point x="349" y="541" type="curve" smooth="yes"/>
      <point x="439" y="541"/>
      <point x="501" y="485"/>
      <point x="501" y="395" type="curve" smooth="yes"/>
      <point x="501" y="307"/>
      <point x="442" y="248"/>
    </contour>
  </outline>
</glyph>
<glyph name="sa" format="2">
  <advance width="1114"/>
  <unicode hex="101E"/>
  <note>
sa
</note>
  <outline>
    <contour>
      <point x="308" y="140" type="curve" smooth="yes"/>
      <point x="528" y="140"/>
      <point x="610" y="272"/>
      <point x="610" y="395" type="curve" smooth="yes"/>
      <point x="610" y="546"/>
      <point x="485" y="649"/>
      <point x="306" y="649" type="curve" smooth="yes"/>
      <point x="196" y="649"/>
      <point x="96" y="604"/>
      <point x="55" y="531" type="curve"/>
      <point x="159" y="473" type="line"/>
      <point x="206" y="527"/>
      <point x="252" y="541"/>
      <point x="308" y="541" type="curve" smooth="yes"/>
      <point x="398" y="541"/>
      <point x="458" y="481"/>
      <point x="458" y="395" type="curve" smooth="yes"/>
      <point x="458" y="306"/>
      <point x="396" y="248"/>
      <point x="297" y="248" type="curve" smooth="yes"/>
      <point x="239" y="248"/>
      <point x="192" y="273"/>
      <point x="157" y="321" type="curve"/>
      <point x="43" y="266" type="line"/>
      <point x="83" y="196"/>
      <point x="183" y="140"/>
    </contour>
    <contour>
      <point x="764" y="140" type="curve" smooth="yes"/>
      <point x="945" y="140"/>
      <point x="1069" y="246"/>
      <point x="1069" y="395" type="curve" smooth="yes"/>
      <point x="1069" y="543"/>
      <point x="948" y="649"/>
      <point x="797" y="649" type="curve" smooth="yes"/>
      <point x="748" y="649"/>
      <point x="688" y="641"/>
      <point x="650" y="621" type="curve"/>
      <point x="702" y="521" type="line"/>
      <point x="737" y="532"/>
      <point x="750" y="535"/>
      <point x="782" y="535" type="curve" smooth="yes"/>
      <point x="865" y="535"/>
      <point x="917" y="479"/>
      <point x="917" y="395" type="curve" smooth="yes"/>
      <point x="917" y="309"/>
      <point x="857" y="248"/>
      <point x="757" y="248" type="curve" smooth="yes"/>
      <point x="680" y="248"/>
      <point x="619" y="294"/>
      <point x="598" y="344" type="curve"/>
      <point x="534" y="232" type="line"/>
      <point x="577" y="177"/>
      <point x="658" y="140"/>
    </contour>
  </outline>
</glyph>
<glyph name="ha" format="2">
  <advance width="1109"/>
  <unicode hex="101F"/>
  <note>
ha
</note>
  <outline>
    <contour>
      <point x="337" y="140" type="curve" smooth="yes"/>
      <point x="516" y="140"/>
      <point x="629" y="243"/>
      <point x="629" y="395" type="curve" smooth="yes"/>
      <point x="629" y="496"/>
      <point x="583" y="600"/>
      <point x="487" y="649" type="curve"/>
      <point x="412" y="541" type="line"/>
      <point x="457" y="499"/>
      <point x="477" y="460"/>
      <point x="477" y="395" type="curve" smooth="yes"/>
      <point x="477" y="306"/>
      <point x="419" y="248"/>
      <point x="336" y="248" type="curve" smooth="yes"/>
      <point x="253" y="248"/>
      <point x="197" y="308"/>
      <point x="197" y="395" type="curve" smooth="yes"/>
      <point x="197" y="460"/>
      <point x="220" y="503"/>
      <point x="262" y="541" type="curve"/>
      <point x="188" y="649" type="line"/>
      <point x="105" y="605"/>
      <point x="45" y="518"/>
      <point x="45" y="395" type="curve" smooth="yes"/>
      <point x="45" y="243"/>
      <point x="159" y="140"/>
    </contour>
    <contour>
      <point x="805" y="140" type="curve" smooth="yes"/>
      <point x="953" y="140"/>
      <point x="1064" y="247"/>
      <point x="1064" y="395" type="curve" smooth="yes"/>
      <point x="1064" y="544"/>
      <point x="946" y="649"/>
      <point x="772" y="649" type="curve" smooth="yes"/>
      <point x="677" y="649"/>
      <point x="596" y="614"/>
      <point x="565" y="569" type="curve"/>
      <point x="617" y="444" type="line"/>
      <point x="640" y="497"/>
      <point x="688" y="541"/>
      <point x="765" y="541" type="curve" smooth="yes"/>
      <point x="854" y="541"/>
      <point x="912" y="484"/>
      <point x="912" y="395" type="curve" smooth="yes"/>
      <point x="912" y="312"/>
      <point x="867" y="254"/>
      <point x="789" y="254" type="curve" smooth="yes"/>
      <point x="757" y="254"/>
      <point x="741" y="260"/>
      <point x="715" y="269" type="curve"/>
      <point x="664" y="169" type="line"/>
      <point x="703" y="148"/>
      <point x="744" y="140"/>
    </contour>
  </outline>
</glyph>
<glyph name="lla" format="2">
  <advance width="679"/>
  <unicode hex="1020"/>
  <note>
lla
</note>
  <outline>
    <contour>
      <point x="265" y="-270" type="curve" smooth="yes"/>
      <point x="385" y="-270" type="line" smooth="yes"/>
      <point x="529" y="-270"/>
      <point x="584" y="-216"/>
      <point x="584" y="-83" type="curve" smooth="yes"/>
      <point x="584" y="-65" type="line"/>
      <point x="469" y="-65" type="line"/>
      <point x="469" y="-108" type="line" smooth="yes"/>
      <point x="469" y="-165"/>
      <point x="446" y="-188"/>
      <point x="403" y="-188" type="curve" smooth="yes"/>
      <point x="255" y="-188" type="line" smooth="yes"/>
      <point x="215" y="-188"/>
      <point x="187" y="-173"/>
      <point x="187" y="-108" type="curve" smooth="yes"/>
      <point x="187" y="67" type="line"/>
      <point x="230" y="59"/>
      <point x="273" y="54"/>
      <point x="334" y="54" type="curve" smooth="yes"/>
      <point x="414" y="54"/>
      <point x="510" y="71"/>
      <point x="582" y="105" type="curve"/>
      <point x="582" y="314" type="line"/>
      <point x="432" y="236" type="line"/>
      <point x="432" y="164" type="line"/>
      <point x="407" y="152"/>
      <point x="363" y="142"/>
      <point x="295" y="142" type="curve" smooth="yes"/>
      <point x="205" y="142"/>
      <point x="120" y="167"/>
      <point x="67" y="197" type="curve"/>
      <point x="67" y="-74" type="line" smooth="yes"/>
      <point x="67" y="-222"/>
      <point x="120" y="-270"/>
    </contour>
    <contour>
      <point x="314" y="188" type="curve" smooth="yes"/>
      <point x="414" y="188"/>
      <point x="491" y="233"/>
      <point x="582" y="314" type="curve"/>
      <point x="468" y="369" type="line"/>
      <point x="444" y="321"/>
      <point x="398" y="296"/>
      <point x="342" y="296" type="curve" smooth="yes"/>
      <point x="249" y="296"/>
      <point x="197" y="343"/>
      <point x="197" y="411" type="curve" smooth="yes"/>
      <point x="197" y="499"/>
      <point x="250" y="541"/>
      <point x="332" y="541" type="curve" smooth="yes"/>
      <point x="392" y="541"/>
      <point x="439" y="519"/>
      <point x="466" y="473" type="curve"/>
      <point x="571" y="532" type="line"/>
      <point x="538" y="601"/>
      <point x="449" y="649"/>
      <point x="333" y="649" type="curve" smooth="yes"/>
      <point x="162" y="649"/>
      <point x="45" y="555"/>
      <point x="45" y="411" type="curve" smooth="yes"/>
      <point x="45" y="285"/>
      <point x="149" y="188"/>
    </contour>
  </outline>
</glyph>
<glyph name="a_m" format="2">
  <advance width="1014"/>
  <unicode hex="1021"/>
  <note>
a_m
</note>
  <outline>
    <contour>
      <point x="301" y="140" type="curve" smooth="yes"/>
      <point x="469" y="140"/>
      <point x="547" y="197"/>
      <point x="547" y="285" type="curve" smooth="yes"/>
      <point x="547" y="357"/>
      <point x="494" y="389"/>
      <point x="414" y="403" type="curve"/>
      <point x="414" y="407" type="line"/>
      <point x="485" y="425"/>
      <point x="517" y="460"/>
      <point x="517" y="512" type="curve" smooth="yes"/>
      <point x="517" y="596"/>
      <point x="453" y="649"/>
      <point x="285" y="649" type="curve" smooth="yes"/>
      <point x="146" y="649"/>
      <point x="63" y="593"/>
      <point x="63" y="509" type="curve" smooth="yes"/>
      <point x="63" y="478"/>
      <point x="77" y="446"/>
      <point x="105" y="424" type="curve"/>
      <point x="207" y="477" type="line"/>
      <point x="193" y="491"/>
      <point x="191" y="495"/>
      <point x="191" y="509" type="curve" smooth="yes"/>
      <point x="191" y="538"/>
      <point x="240" y="550"/>
      <point x="289" y="550" type="curve" smooth="yes"/>
      <point x="349" y="550"/>
      <point x="383" y="537"/>
      <point x="383" y="505" type="curve" smooth="yes"/>
      <point x="383" y="476"/>
      <point x="356" y="454"/>
      <point x="296" y="454" type="curve" smooth="yes"/>
      <point x="282" y="454" type="line"/>
      <point x="282" y="360" type="line"/>
      <point x="302" y="360" type="line" smooth="yes"/>
      <point x="362" y="360"/>
      <point x="398" y="343"/>
      <point x="398" y="307" type="curve" smooth="yes"/>
      <point x="398" y="269"/>
      <point x="352" y="244"/>
      <point x="300" y="244" type="curve" smooth="yes"/>
      <point x="215" y="244"/>
      <point x="165" y="282"/>
      <point x="130" y="343" type="curve"/>
      <point x="23" y="289" type="line"/>
      <point x="65" y="193"/>
      <point x="162" y="140"/>
    </contour>
    <contour>
      <point x="681" y="140" type="curve" smooth="yes"/>
      <point x="851" y="140"/>
      <point x="969" y="243"/>
      <point x="969" y="395" type="curve" smooth="yes"/>
      <point x="969" y="544"/>
      <point x="851" y="649"/>
      <point x="679" y="649" type="curve" smooth="yes"/>
      <point x="589" y="649"/>
      <point x="521" y="622"/>
      <point x="471" y="592" type="curve"/>
      <point x="504" y="489" type="line"/>
      <point x="548" y="523"/>
      <point x="614" y="541"/>
      <point x="676" y="541" type="curve" smooth="yes"/>
      <point x="790" y="541"/>
      <point x="851" y="480"/>
      <point x="851" y="396" type="curve" smooth="yes"/>
      <point x="851" y="299"/>
      <point x="784" y="246"/>
      <point x="689" y="246" type="curve" smooth="yes"/>
      <point x="673" y="246"/>
      <point x="657" y="246"/>
      <point x="641" y="246" type="curve"/>
      <point x="678" y="198" type="line"/>
      <point x="686" y="311"/>
      <point x="756" y="373"/>
      <point x="869" y="382" type="curve"/>
      <point x="856" y="462" type="line"/>
      <point x="655" y="428"/>
      <point x="578" y="334"/>
      <point x="575" y="154" type="curve"/>
      <point x="611" y="144"/>
      <point x="646" y="140"/>
    </contour>
  </outline>
</glyph>
<glyph name="a_shn" format="2">
  <advance width="1104"/>
  <unicode hex="1022"/>
  <note>
a_shn
</note>
  <outline>
    <contour>
      <point x="186" y="140" type="curve" smooth="yes"/>
      <point x="279" y="140"/>
      <point x="330" y="188"/>
      <point x="330" y="254" type="curve" smooth="yes"/>
      <point x="330" y="305"/>
      <point x="303" y="342"/>
      <point x="256" y="376" type="curve" smooth="yes"/>
      <point x="215" y="406"/>
      <point x="202" y="424"/>
      <point x="202" y="457" type="curve" smooth="yes"/>
      <point x="202" y="504"/>
      <point x="253" y="542"/>
      <point x="324" y="542" type="curve" smooth="yes"/>
      <point x="422" y="542"/>
      <point x="482" y="486"/>
      <point x="482" y="396" type="curve" smooth="yes"/>
      <point x="482" y="341"/>
      <point x="463" y="289"/>
      <point x="405" y="249" type="curve"/>
      <point x="479" y="141" type="line"/>
      <point x="560" y="185"/>
      <point x="619" y="265"/>
      <point x="619" y="396" type="curve" smooth="yes"/>
      <point x="619" y="557"/>
      <point x="505" y="650"/>
      <point x="321" y="650" type="curve" smooth="yes"/>
      <point x="162" y="650"/>
      <point x="51" y="577"/>
      <point x="51" y="465" type="curve" smooth="yes"/>
      <point x="51" y="409"/>
      <point x="80" y="369"/>
      <point x="125" y="334" type="curve" smooth="yes"/>
      <point x="166" y="302"/>
      <point x="191" y="293"/>
      <point x="191" y="273" type="curve" smooth="yes"/>
      <point x="191" y="263"/>
      <point x="184" y="258"/>
      <point x="168" y="258" type="curve" smooth="yes"/>
      <point x="147" y="258"/>
      <point x="124" y="271"/>
      <point x="107" y="285" type="curve"/>
      <point x="32" y="216" type="line"/>
      <point x="69" y="165"/>
      <point x="125" y="140"/>
    </contour>
    <contour>
      <point x="784" y="141" type="curve" smooth="yes"/>
      <point x="952" y="141"/>
      <point x="1059" y="228"/>
      <point x="1059" y="397" type="curve" smooth="yes"/>
      <point x="1059" y="553"/>
      <point x="943" y="650"/>
      <point x="763" y="650" type="curve" smooth="yes"/>
      <point x="649" y="650"/>
      <point x="585" y="608"/>
      <point x="542" y="562" type="curve"/>
      <point x="603" y="446" type="line"/>
      <point x="627" y="499"/>
      <point x="683" y="543"/>
      <point x="765" y="543" type="curve" smooth="yes"/>
      <point x="851" y="543"/>
      <point x="907" y="480"/>
      <point x="907" y="397" type="curve" smooth="yes"/>
      <point x="907" y="308"/>
      <point x="856" y="255"/>
      <point x="780" y="255" type="curve" smooth="yes"/>
      <point x="750" y="255"/>
      <point x="739" y="258"/>
      <point x="703" y="270" type="curve"/>
      <point x="653" y="170" type="line"/>
      <point x="684" y="152"/>
      <point x="746" y="141"/>
    </contour>
  </outline>
</glyph>
<glyph name="i_m" format="2">
  <advance width="1088"/>
  <unicode hex="1023"/>
  <note>
i_m
</note>
  <outline>
    <contour>
      <point x="185" y="140" type="curve"/>
      <point x="260" y="248" type="line"/>
      <point x="212" y="294"/>
      <point x="197" y="338"/>
      <point x="197" y="395" type="curve" smooth="yes"/>
      <point x="197" y="482"/>
      <point x="251" y="541"/>
      <point x="332" y="541" type="curve" smooth="yes"/>
      <point x="413" y="541"/>
      <point x="468" y="484"/>
      <point x="468" y="395" type="curve" smooth="yes"/>
      <point x="468" y="258" type="line"/>
      <point x="620" y="258" type="line"/>
      <point x="620" y="395" type="line" smooth="yes"/>
      <point x="620" y="478"/>
      <point x="671" y="541"/>
      <point x="755" y="541" type="curve" smooth="yes"/>
      <point x="837" y="541"/>
      <point x="891" y="482"/>
      <point x="891" y="395" type="curve" smooth="yes"/>
      <point x="891" y="342"/>
      <point x="875" y="294"/>
      <point x="828" y="248" type="curve"/>
      <point x="903" y="140" type="line"/>
      <point x="984" y="184"/>
      <point x="1043" y="271"/>
      <point x="1043" y="395" type="curve" smooth="yes"/>
      <point x="1043" y="546"/>
      <point x="932" y="649"/>
      <point x="756" y="649" type="curve" smooth="yes"/>
      <point x="652" y="649"/>
      <point x="557" y="606"/>
      <point x="528" y="521" type="curve"/>
      <point x="563" y="523" type="line"/>
      <point x="536" y="604"/>
      <point x="440" y="649"/>
      <point x="333" y="649" type="curve" smooth="yes"/>
      <point x="159" y="649"/>
      <point x="45" y="548"/>
      <point x="45" y="395" type="curve" smooth="yes"/>
      <point x="45" y="271"/>
      <point x="104" y="184"/>
    </contour>
    <contour>
      <point x="808" y="-270" type="line"/>
      <point x="976" y="-270" type="line"/>
      <point x="976" y="-181" type="line"/>
      <point x="888" y="-181" type="line"/>
      <point x="906" y="-151"/>
      <point x="913" y="-126"/>
      <point x="913" y="-81" type="curve" smooth="yes"/>
      <point x="913" y="23"/>
      <point x="829" y="107"/>
      <point x="700" y="107" type="curve" smooth="yes"/>
      <point x="618" y="107"/>
      <point x="545" y="71"/>
      <point x="526" y="-10" type="curve"/>
      <point x="564" y="-13" type="line"/>
      <point x="537" y="73"/>
      <point x="464" y="107"/>
      <point x="388" y="107" type="curve" smooth="yes"/>
      <point x="259" y="107"/>
      <point x="172" y="24"/>
      <point x="172" y="-90" type="curve" smooth="yes"/>
      <point x="172" y="-182"/>
      <point x="216" y="-247"/>
      <point x="277" y="-279" type="curve"/>
      <point x="337" y="-194" type="line"/>
      <point x="301" y="-162"/>
      <point x="291" y="-128"/>
      <point x="291" y="-90" type="curve" smooth="yes"/>
      <point x="291" y="-21"/>
      <point x="333" y="20"/>
      <point x="387" y="20" type="curve" smooth="yes"/>
      <point x="443" y="20"/>
      <point x="483" y="-22"/>
      <point x="483" y="-90" type="curve" smooth="yes"/>
      <point x="483" y="-190" type="line"/>
      <point x="602" y="-190" type="line"/>
      <point x="602" y="-90" type="line" smooth="yes"/>
      <point x="602" y="-24"/>
      <point x="640" y="20"/>
      <point x="698" y="20" type="curve" smooth="yes"/>
      <point x="753" y="20"/>
      <point x="794" y="-26"/>
      <point x="794" y="-81" type="curve" smooth="yes"/>
      <point x="794" y="-128"/>
      <point x="783" y="-153"/>
      <point x="748" y="-185" type="curve"/>
    </contour>
  </outline>
</glyph>
<glyph name="ii" format="2">
  <advance width="1393"/>
  <unicode hex="1024"/>
  <note>
ii
</note>
  <outline>
    <contour>
      <point x="279" y="-270" type="curve" smooth="yes"/>
      <point x="784" y="-270" type="line" smooth="yes"/>
      <point x="929" y="-270"/>
      <point x="1001" y="-206"/>
      <point x="1001" y="-76" type="curve" smooth="yes"/>
      <point x="1001" y="384" type="line" smooth="yes"/>
      <point x="1001" y="533"/>
      <point x="913" y="649"/>
      <point x="746" y="649" type="curve" smooth="yes"/>
      <point x="666" y="649"/>
      <point x="583" y="613"/>
      <point x="545" y="558" type="curve"/>
      <point x="600" y="463" type="line"/>
      <point x="627" y="498"/>
      <point x="664" y="535"/>
      <point x="726" y="535" type="curve" smooth="yes"/>
      <point x="812" y="535"/>
      <point x="852" y="474"/>
      <point x="852" y="381" type="curve" smooth="yes"/>
      <point x="852" y="-87" type="line" smooth="yes"/>
      <point x="852" y="-132"/>
      <point x="831" y="-157"/>
      <point x="789" y="-157" type="curve" smooth="yes"/>
      <point x="279" y="-157" type="line" smooth="yes"/>
      <point x="231" y="-157"/>
      <point x="199" y="-147"/>
      <point x="199" y="-123" type="curve" smooth="yes"/>
      <point x="199" y="-87"/>
      <point x="256" y="-69"/>
      <point x="370" y="-69" type="curve" smooth="yes"/>
      <point x="498" y="-69"/>
      <point x="604" y="-75"/>
      <point x="678" y="-111" type="curve"/>
      <point x="746" y="-19" type="line"/>
      <point x="650" y="32"/>
      <point x="523" y="45"/>
      <point x="370" y="45" type="curve" smooth="yes"/>
      <point x="155" y="45"/>
      <point x="48" y="-16"/>
      <point x="48" y="-122" type="curve" smooth="yes"/>
      <point x="48" y="-219"/>
      <point x="117" y="-270"/>
    </contour>
    <contour>
      <point x="185" y="140" type="curve"/>
      <point x="260" y="248" type="line"/>
      <point x="212" y="294"/>
      <point x="197" y="338"/>
      <point x="197" y="395" type="curve" smooth="yes"/>
      <point x="197" y="481"/>
      <point x="250" y="541"/>
      <point x="332" y="541" type="curve" smooth="yes"/>
      <point x="416" y="541"/>
      <point x="468" y="479"/>
      <point x="468" y="395" type="curve" smooth="yes"/>
      <point x="468" y="330"/>
      <point x="446" y="287"/>
      <point x="405" y="248" type="curve"/>
      <point x="480" y="140" type="line"/>
      <point x="562" y="184"/>
      <point x="620" y="270"/>
      <point x="620" y="395" type="curve" smooth="yes"/>
      <point x="620" y="544"/>
      <point x="508" y="650"/>
      <point x="333" y="650" type="curve" smooth="yes"/>
      <point x="157" y="650"/>
      <point x="45" y="542"/>
      <point x="45" y="395" type="curve" smooth="yes"/>
      <point x="45" y="271"/>
      <point x="104" y="184"/>
    </contour>
    <contour>
      <point x="1163" y="-270" type="line"/>
      <point x="1314" y="-270" type="line"/>
      <point x="1314" y="397" type="line" smooth="yes"/>
      <point x="1314" y="581"/>
      <point x="1258" y="676"/>
      <point x="1098" y="793" type="curve" smooth="yes"/>
      <point x="1058" y="822"/>
      <point x="1038" y="852"/>
      <point x="1038" y="883" type="curve" smooth="yes"/>
      <point x="1038" y="919"/>
      <point x="1071" y="945"/>
      <point x="1107" y="945" type="curve" smooth="yes"/>
      <point x="1154" y="945"/>
      <point x="1180" y="916"/>
      <point x="1207" y="865" type="curve"/>
      <point x="1315" y="918" type="line"/>
      <point x="1278" y="1004"/>
      <point x="1208" y="1053"/>
      <point x="1102" y="1053" type="curve" smooth="yes"/>
      <point x="978" y="1053"/>
      <point x="892" y="979"/>
      <point x="892" y="884" type="curve" smooth="yes"/>
      <point x="892" y="811"/>
      <point x="920" y="757"/>
      <point x="1021" y="686" type="curve" smooth="yes"/>
      <point x="1123" y="614"/>
      <point x="1163" y="532"/>
      <point x="1163" y="402" type="curve" smooth="yes"/>
    </contour>
  </outline>
</glyph>
<glyph name="u_m" format="2">
  <advance width="663"/>
  <unicode hex="1025"/>
  <note>
u_m
</note>
  <outline>
    <contour>
      <point x="295" y="-270" type="curve" smooth="yes"/>
      <point x="401" y="-270" type="line" smooth="yes"/>
      <point x="536" y="-270"/>
      <point x="615" y="-219"/>
      <point x="615" y="-122" type="curve" smooth="yes"/>
      <point x="615" y="-37"/>
      <point x="539" y="20"/>
      <point x="445" y="20" type="curve" smooth="yes"/>
      <point x="372" y="20"/>
      <point x="327" y="4"/>
      <point x="288" y="-19" type="curve"/>
      <point x="356" y="-111" type="line"/>
      <point x="376" y="-100"/>
      <point x="396" y="-93"/>
      <point x="418" y="-93" type="curve" smooth="yes"/>
      <point x="451" y="-93"/>
      <point x="464" y="-107"/>
      <point x="464" y="-123" type="curve" smooth="yes"/>
      <point x="464" y="-150"/>
      <point x="432" y="-158"/>
      <point x="403" y="-158" type="curve" smooth="yes"/>
      <point x="291" y="-158" type="line" smooth="yes"/>
      <point x="247" y="-158"/>
      <point x="227" y="-132"/>
      <point x="227" y="-86" type="curve" smooth="yes"/>
      <point x="227" y="156" type="line"/>
      <point x="78" y="266" type="line"/>
      <point x="78" y="-77" type="line" smooth="yes"/>
      <point x="78" y="-206"/>
      <point x="150" y="-270"/>
    </contour>
    <contour>
      <point x="346" y="140" type="curve" smooth="yes"/>
      <point x="511" y="140"/>
      <point x="615" y="252"/>
      <point x="615" y="395" type="curve" smooth="yes"/>
      <point x="615" y="544"/>
      <point x="498" y="649"/>
      <point x="327" y="649" type="curve" smooth="yes"/>
      <point x="211" y="649"/>
      <point x="122" y="601"/>
      <point x="89" y="532" type="curve"/>
      <point x="194" y="473" type="line"/>
      <point x="221" y="519"/>
      <point x="268" y="541"/>
      <point x="328" y="541" type="curve" smooth="yes"/>
      <point x="410" y="541"/>
      <point x="463" y="483"/>
      <point x="463" y="395" type="curve" smooth="yes"/>
      <point x="463" y="308"/>
      <point x="411" y="248"/>
      <point x="318" y="248" type="curve" smooth="yes"/>
      <point x="262" y="248"/>
      <point x="216" y="273"/>
      <point x="192" y="321" type="curve"/>
      <point x="78" y="266" type="line"/>
      <point x="192" y="147"/>
      <point x="258" y="140"/>
    </contour>
  </outline>
</glyph>
<glyph name="e_m" format="2">
  <advance width="630"/>
  <unicode hex="1027"/>
  <note>
e_m
</note>
  <outline>
    <contour>
      <point x="333" y="140" type="curve" smooth="yes"/>
      <point x="466" y="140"/>
      <point x="569" y="209"/>
      <point x="587" y="319" type="curve"/>
      <point x="517" y="354"/>
      <point x="447" y="376"/>
      <point x="342" y="376" type="curve" smooth="yes"/>
      <point x="274" y="376"/>
      <point x="232" y="366"/>
      <point x="195" y="353" type="curve"/>
      <point x="191" y="366"/>
      <point x="189" y="379"/>
      <point x="189" y="395" type="curve" smooth="yes"/>
      <point x="189" y="411"/>
      <point x="192" y="427"/>
      <point x="195" y="436" type="curve"/>
      <point x="242" y="420"/>
      <point x="293" y="414"/>
      <point x="342" y="414" type="curve" smooth="yes"/>
      <point x="445" y="414"/>
      <point x="518" y="436"/>
      <point x="587" y="470" type="curve"/>
      <point x="569" y="580"/>
      <point x="467" y="649"/>
      <point x="331" y="649" type="curve" smooth="yes"/>
      <point x="163" y="649"/>
      <point x="45" y="544"/>
      <point x="45" y="395" type="curve" smooth="yes"/>
      <point x="45" y="243"/>
      <point x="164" y="140"/>
    </contour>
    <contour>
      <point x="329" y="230" type="curve" smooth="yes"/>
      <point x="273" y="230"/>
      <point x="240" y="251"/>
      <point x="222" y="276" type="curve"/>
      <point x="255" y="291"/>
      <point x="296" y="298"/>
      <point x="331" y="298" type="curve" smooth="yes"/>
      <point x="369" y="298"/>
      <point x="404" y="292"/>
      <point x="444" y="276" type="curve"/>
      <point x="427" y="250"/>
      <point x="380" y="230"/>
    </contour>
    <contour>
      <point x="333" y="492" type="curve" smooth="yes"/>
      <point x="298" y="492"/>
      <point x="255" y="498"/>
      <point x="222" y="514" type="curve"/>
      <point x="240" y="540"/>
      <point x="273" y="559"/>
      <point x="329" y="559" type="curve" smooth="yes"/>
      <point x="380" y="559"/>
      <point x="427" y="540"/>
      <point x="444" y="514" type="curve"/>
      <point x="404" y="497"/>
      <point x="368" y="492"/>
    </contour>
  </outline>
</glyph>
<glyph name="e_mon" format="2">
  <advance width="763"/>
  <unicode hex="1028"/>
  <note>
e_mon
</note>
  <outline>
    <contour>
      <point x="379" y="-271" type="curve" smooth="yes"/>
      <point x="576" y="-271"/>
      <point x="685" y="-177"/>
      <point x="685" y="-4" type="curve" smooth="yes"/>
      <point x="685" y="-1" type="line"/>
      <point x="539" y="-1" type="line"/>
      <point x="539" y="-3" type="line" smooth="yes"/>
      <point x="539" y="-111"/>
      <point x="477" y="-162"/>
      <point x="382" y="-162" type="curve" smooth="yes"/>
      <point x="286" y="-162"/>
      <point x="224" y="-113"/>
      <point x="224" y="-3" type="curve" smooth="yes"/>
      <point x="224" y="382" type="line" smooth="yes"/>
      <point x="224" y="493"/>
      <point x="279" y="541"/>
      <point x="387" y="541" type="curve" smooth="yes"/>
      <point x="485" y="541"/>
      <point x="540" y="487"/>
      <point x="540" y="382" type="curve" smooth="yes"/>
      <point x="540" y="319"/>
      <point x="510" y="232"/>
      <point x="452" y="232" type="curve" smooth="yes"/>
      <point x="429" y="232"/>
      <point x="425" y="244"/>
      <point x="425" y="253" type="curve" smooth="yes"/>
      <point x="425" y="264"/>
      <point x="434" y="273"/>
      <point x="458" y="293" type="curve" smooth="yes"/>
      <point x="480" y="311"/>
      <point x="494" y="337"/>
      <point x="494" y="376" type="curve" smooth="yes"/>
      <point x="494" y="427"/>
      <point x="446" y="469"/>
      <point x="374" y="469" type="curve" smooth="yes"/>
      <point x="339" y="469"/>
      <point x="291" y="459"/>
      <point x="260" y="422" type="curve"/>
      <point x="321" y="361" type="line"/>
      <point x="340" y="373"/>
      <point x="355" y="379"/>
      <point x="368" y="379" type="curve" smooth="yes"/>
      <point x="382" y="379"/>
      <point x="386" y="372"/>
      <point x="386" y="364" type="curve" smooth="yes"/>
      <point x="386" y="356"/>
      <point x="379" y="348"/>
      <point x="363" y="335" type="curve" smooth="yes"/>
      <point x="337" y="316"/>
      <point x="307" y="288"/>
      <point x="307" y="238" type="curve" smooth="yes"/>
      <point x="307" y="181"/>
      <point x="358" y="140"/>
      <point x="454" y="140" type="curve" smooth="yes"/>
      <point x="585" y="140"/>
      <point x="685" y="237"/>
      <point x="685" y="394" type="curve" smooth="yes"/>
      <point x="685" y="556"/>
      <point x="575" y="650"/>
      <point x="379" y="650" type="curve" smooth="yes"/>
      <point x="189" y="650"/>
      <point x="78" y="552"/>
      <point x="78" y="382" type="curve" smooth="yes"/>
      <point x="78" y="-3" type="line" smooth="yes"/>
      <point x="78" y="-173"/>
      <point x="189" y="-271"/>
    </contour>
  </outline>
</glyph>
<glyph name="o_m" format="2">
  <advance width="1418"/>
  <unicode hex="1029"/>
  <note>
o_m
</note>
  <outline>
    <contour>
      <point x="295" y="-270" type="curve" smooth="yes"/>
      <point x="1164" y="-270" type="line" smooth="yes"/>
      <point x="1309" y="-270"/>
      <point x="1381" y="-205"/>
      <point x="1381" y="-72" type="curve" smooth="yes"/>
      <point x="1381" y="307" type="line"/>
      <point x="1272" y="307" type="line"/>
      <point x="1272" y="-86" type="line" smooth="yes"/>
      <point x="1272" y="-134"/>
      <point x="1251" y="-158"/>
      <point x="1209" y="-158" type="curve" smooth="yes"/>
      <point x="291" y="-158" type="line" smooth="yes"/>
      <point x="249" y="-158"/>
      <point x="228" y="-134"/>
      <point x="228" y="-86" type="curve" smooth="yes"/>
      <point x="228" y="868" type="line" smooth="yes"/>
      <point x="228" y="916"/>
      <point x="249" y="940"/>
      <point x="291" y="940" type="curve" smooth="yes"/>
      <point x="1209" y="940" type="line" smooth="yes"/>
      <point x="1251" y="940"/>
      <point x="1272" y="916"/>
      <point x="1272" y="868" type="curve" smooth="yes"/>
      <point x="1272" y="828" type="line"/>
      <point x="1381" y="828" type="line"/>
      <point x="1381" y="855" type="line" smooth="yes"/>
      <point x="1381" y="987"/>
      <point x="1309" y="1053"/>
      <point x="1164" y="1053" type="curve" smooth="yes"/>
      <point x="295" y="1053" type="line" smooth="yes"/>
      <point x="150" y="1053"/>
      <point x="78" y="987"/>
      <point x="78" y="855" type="curve" smooth="yes"/>
      <point x="78" y="-72" type="line" smooth="yes"/>
      <point x="78" y="-205"/>
      <point x="150" y="-270"/>
    </contour>
    <contour>
      <point x="638" y="140" type="curve" smooth="yes"/>
      <point x="858" y="140"/>
      <point x="940" y="272"/>
      <point x="940" y="395" type="curve" smooth="yes"/>
      <point x="940" y="546"/>
      <point x="815" y="649"/>
      <point x="636" y="649" type="curve" smooth="yes"/>
      <point x="526" y="649"/>
      <point x="426" y="604"/>
      <point x="385" y="531" type="curve"/>
      <point x="489" y="473" type="line"/>
      <point x="536" y="527"/>
      <point x="582" y="541"/>
      <point x="638" y="541" type="curve" smooth="yes"/>
      <point x="728" y="541"/>
      <point x="788" y="481"/>
      <point x="788" y="395" type="curve" smooth="yes"/>
      <point x="788" y="306"/>
      <point x="726" y="248"/>
      <point x="627" y="248" type="curve" smooth="yes"/>
      <point x="569" y="248"/>
      <point x="522" y="273"/>
      <point x="487" y="321" type="curve"/>
      <point x="373" y="266" type="line"/>
      <point x="413" y="196"/>
      <point x="513" y="140"/>
    </contour>
    <contour>
      <point x="1094" y="140" type="curve" smooth="yes"/>
      <point x="1275" y="140"/>
      <point x="1399" y="246"/>
      <point x="1399" y="395" type="curve" smooth="yes"/>
      <point x="1399" y="543"/>
      <point x="1278" y="649"/>
      <point x="1127" y="649" type="curve" smooth="yes"/>
      <point x="1078" y="649"/>
      <point x="1018" y="641"/>
      <point x="980" y="621" type="curve"/>
      <point x="1032" y="521" type="line"/>
      <point x="1067" y="532"/>
      <point x="1080" y="535"/>
      <point x="1112" y="535" type="curve" smooth="yes"/>
      <point x="1195" y="535"/>
      <point x="1247" y="479"/>
      <point x="1247" y="395" type="curve" smooth="yes"/>
      <point x="1247" y="309"/>
      <point x="1187" y="248"/>
      <point x="1087" y="248" type="curve" smooth="yes"/>
      <point x="1010" y="248"/>
      <point x="949" y="294"/>
      <point x="928" y="344" type="curve"/>
      <point x="864" y="232" type="line"/>
      <point x="907" y="177"/>
      <point x="988" y="140"/>
    </contour>
  </outline>
</glyph>
<glyph name="_tall_aa" format="2">
  <advance width="317"/>
  <unicode hex="102B"/>
  <note>
_tall_aa
</note>
  <outline>
    <contour>
      <point x="92" y="149" type="line"/>
      <point x="239" y="149" type="line"/>
      <point x="239" y="826" type="line" smooth="yes"/>
      <point x="239" y="968"/>
      <point x="143" y="1053"/>
      <point x="-26" y="1053" type="curve" smooth="yes"/>
      <point x="-192" y="1053"/>
      <point x="-288" y="967"/>
      <point x="-288" y="827" type="curve" smooth="yes"/>
      <point x="-288" y="813" type="line"/>
      <point x="-142" y="813" type="line"/>
      <point x="-142" y="826" type="line" smooth="yes"/>
      <point x="-142" y="914"/>
      <point x="-97" y="946"/>
      <point x="-25" y="946" type="curve" smooth="yes"/>
      <point x="55" y="946"/>
      <point x="92" y="909"/>
      <point x="92" y="826" type="curve" smooth="yes"/>
    </contour>
  </outline>
</glyph>
<glyph name="_aa" format="2">
  <advance width="413"/>
  <unicode hex="102C"/>
  <note>
_aa
</note>
  <outline>
    <contour>
      <point x="113" y="140" type="curve" smooth="yes"/>
      <point x="273" y="140"/>
      <point x="368" y="233"/>
      <point x="368" y="395" type="curve" smooth="yes"/>
      <point x="368" y="550"/>
      <point x="259" y="649"/>
      <point x="88" y="649" type="curve" smooth="yes"/>
      <point x="-12" y="649"/>
      <point x="-62" y="633"/>
      <point x="-165" y="577" type="curve"/>
      <point x="-99" y="484" type="line"/>
      <point x="-50" y="509"/>
      <point x="0" y="531"/>
      <point x="73" y="531" type="curve" smooth="yes"/>
      <point x="163" y="531"/>
      <point x="216" y="478"/>
      <point x="216" y="386" type="curve" smooth="yes"/>
      <point x="216" y="306"/>
      <point x="168" y="254"/>
      <point x="97" y="254" type="curve" smooth="yes"/>
      <point x="66" y="254"/>
      <point x="49" y="261"/>
      <point x="26" y="269" type="curve"/>
      <point x="-25" y="169" type="line"/>
      <point x="10" y="148"/>
      <point x="66" y="140"/>
    </contour>
  </outline>
</glyph>
<glyph name="_i" format="2">
  <unicode hex="102D"/>
  <note>
_i
</note>
  <outline>
    <contour>
      <point x="-314" y="712" type="curve" smooth="yes"/>
      <point x="-199" y="712"/>
      <point x="-120" y="782"/>
      <point x="-120" y="883" type="curve" smooth="yes"/>
      <point x="-120" y="980"/>
      <point x="-196" y="1053"/>
      <point x="-314" y="1053" type="curve" smooth="yes"/>
      <point x="-431" y="1053"/>
      <point x="-508" y="983"/>
      <point x="-508" y="883" type="curve" smooth="yes"/>
      <point x="-508" y="783"/>
      <point x="-429" y="712"/>
    </contour>
    <contour>
      <point x="-314" y="797" type="curve" smooth="yes"/>
      <point x="-363" y="797"/>
      <point x="-389" y="837"/>
      <point x="-389" y="883" type="curve" smooth="yes"/>
      <point x="-389" y="929"/>
      <point x="-363" y="968"/>
      <point x="-314" y="968" type="curve" smooth="yes"/>
      <point x="-265" y="968"/>
      <point x="-239" y="929"/>
      <point x="-239" y="883" type="curve" smooth="yes"/>
      <point x="-239" y="836"/>
      <point x="-265" y="797"/>
    </contour>
  </outline>
</glyph>
<glyph name="_ii" format="2">
  <unicode hex="102E"/>
  <note>
_ii
</note>
  <outline>
    <contour>
      <point x="-314" y="712" type="curve" smooth="yes"/>
      <point x="-200" y="712"/>
      <point x="-120" y="782"/>
      <point x="-120" y="883" type="curve" smooth="yes"/>
      <point x="-120" y="980"/>
      <point x="-195" y="1053"/>
      <point x="-314" y="1053" type="curve" smooth="yes"/>
      <point x="-429" y="1053"/>
      <point x="-508" y="983"/>
      <point x="-508" y="883" type="curve" smooth="yes"/>
      <point x="-508" y="782"/>
      <point x="-429" y="712"/>
    </contour>
    <contour>
      <point x="-313" y="788" type="curve" smooth="yes"/>
      <point x="-376" y="788"/>
      <point x="-400" y="821"/>
      <point x="-400" y="883" type="curve" smooth="yes"/>
      <point x="-400" y="936"/>
      <point x="-367" y="973"/>
      <point x="-314" y="973" type="curve" smooth="yes"/>
      <point x="-261" y="973"/>
      <point x="-228" y="935"/>
      <point x="-228" y="883" type="curve" smooth="yes"/>
      <point x="-228" y="831"/>
      <point x="-240" y="788"/>
    </contour>
    <contour>
      <point x="-396" y="826" type="line"/>
      <point x="-373" y="840"/>
      <point x="-341" y="849"/>
      <point x="-312" y="849" type="curve" smooth="yes"/>
      <point x="-282" y="849"/>
      <point x="-253" y="840"/>
      <point x="-229" y="828" type="curve"/>
      <point x="-215" y="870" type="line"/>
      <point x="-248" y="885"/>
      <point x="-276" y="895"/>
      <point x="-313" y="895" type="curve" smooth="yes"/>
      <point x="-348" y="895"/>
      <point x="-384" y="883"/>
      <point x="-410" y="868" type="curve"/>
    </contour>
  </outline>
</glyph>
<glyph name="_u" format="2">
  <unicode hex="102F"/>
  <note>
_u
</note>
  <outline>
    <contour>
      <point x="-365" y="-270" type="line"/>
      <point x="-139" y="-270" type="line"/>
      <point x="-139" y="-182" type="line"/>
      <point x="-265" y="-182" type="line"/>
      <point x="-265" y="107" type="line"/>
      <point x="-365" y="107" type="line"/>
    </contour>
  </outline>
</glyph>
<glyph name="_e" format="2">
  <advance width="632"/>
  <unicode hex="1031"/>
  <note>
_e
</note>
  <outline>
    <contour>
      <point x="333" y="140" type="curve" smooth="yes"/>
      <point x="485" y="140"/>
      <point x="573" y="218"/>
      <point x="589" y="344" type="curve"/>
      <point x="506" y="389"/>
      <point x="436" y="415"/>
      <point x="355" y="415" type="curve" smooth="yes"/>
      <point x="300" y="415"/>
      <point x="239" y="402"/>
      <point x="180" y="377" type="curve"/>
      <point x="205" y="289" type="line"/>
      <point x="244" y="305"/>
      <point x="288" y="325"/>
      <point x="344" y="325" type="curve" smooth="yes"/>
      <point x="383" y="325"/>
      <point x="415" y="315"/>
      <point x="446" y="295" type="curve"/>
      <point x="424" y="265"/>
      <point x="394" y="243"/>
      <point x="338" y="243" type="curve" smooth="yes"/>
      <point x="252" y="243"/>
      <point x="195" y="296"/>
      <point x="195" y="395" type="curve" smooth="yes"/>
      <point x="195" y="496"/>
      <point x="261" y="549"/>
      <point x="355" y="549" type="curve" smooth="yes"/>
      <point x="403" y="549"/>
      <point x="461" y="538"/>
      <point x="511" y="500" type="curve"/>
      <point x="560" y="586" type="line"/>
      <point x="483" y="636"/>
      <point x="425" y="649"/>
      <point x="335" y="649" type="curve" smooth="yes"/>
      <point x="166" y="649"/>
      <point x="43" y="551"/>
      <point x="43" y="395" type="curve" smooth="yes"/>
      <point x="43" y="233"/>
      <point x="175" y="140"/>
    </contour>
  </outline>
</glyph>
<glyph name="_ai" format="2">
  <unicode hex="1032"/>
  <note>
_ai
</note>
  <outline>
    <contour>
      <point x="-201" y="733" type="line"/>
      <point x="-125" y="816" type="line"/>
      <point x="-338" y="973" type="line"/>
      <point x="-414" y="890" type="line"/>
    </contour>
  </outline>
</glyph>
<glyph name="_ii_mon" format="2">
  <unicode hex="1033"/>
  <note>
_ii_mon
</note>
  <outline>
    <contour>
      <point x="-325" y="712" type="curve" smooth="yes"/>
      <point x="-200" y="712"/>
      <point x="-112" y="783"/>
      <point x="-112" y="881" type="curve" smooth="yes"/>
      <point x="-112" y="979"/>
      <point x="-206" y="1053"/>
      <point x="-325" y="1053" type="curve" smooth="yes"/>
      <point x="-448" y="1053"/>
      <point x="-540" y="981"/>
      <point x="-540" y="881" type="curve" smooth="yes"/>
      <point x="-540" y="783"/>
      <point x="-454" y="712"/>
    </contour>
    <contour>
      <point x="-325" y="766" type="curve" smooth="yes"/>
      <point x="-411" y="766"/>
      <point x="-467" y="815"/>
      <point x="-467" y="882" type="curve" smooth="yes"/>
      <point x="-467" y="952"/>
      <point x="-402" y="999"/>
      <point x="-325" y="999" type="curve" smooth="yes"/>
      <point x="-250" y="999"/>
      <point x="-185" y="952"/>
      <point x="-185" y="882" type="curve" smooth="yes"/>
      <point x="-185" y="817"/>
      <point x="-243" y="766"/>
    </contour>
    <contour>
      <point x="-325" y="802" type="curve" smooth="yes"/>
      <point x="-273" y="802"/>
      <point x="-235" y="834"/>
      <point x="-235" y="882" type="curve" smooth="yes"/>
      <point x="-235" y="927"/>
      <point x="-274" y="963"/>
      <point x="-325" y="963" type="curve" smooth="yes"/>
      <point x="-376" y="963"/>
      <point x="-416" y="928"/>
      <point x="-416" y="882" type="curve" smooth="yes"/>
      <point x="-416" y="837"/>
      <point x="-380" y="802"/>
    </contour>
    <contour>
      <point x="-327" y="846" type="curve" smooth="yes"/>
      <point x="-351" y="846"/>
      <point x="-366" y="862"/>
      <point x="-366" y="882" type="curve" smooth="yes"/>
      <point x="-366" y="904"/>
      <point x="-350" y="918"/>
      <point x="-327" y="918" type="curve" smooth="yes"/>
      <point x="-303" y="918"/>
      <point x="-286" y="904"/>
      <point x="-286" y="882" type="curve" smooth="yes"/>
      <point x="-286" y="862"/>
      <point x="-302" y="846"/>
    </contour>
  </outline>
</glyph>
<glyph name="_o_mon" format="2">
  <unicode hex="1034"/>
  <note>
_o_mon
</note>
  <outline>
    <contour>
      <point x="-416" y="726" type="line"/>
      <point x="-195" y="889" type="line"/>
      <point x="-271" y="973" type="line"/>
      <point x="-492" y="809" type="line"/>
    </contour>
  </outline>
</glyph>
<glyph name="_e_above" format="2">
  <unicode hex="1035"/>
  <note>
_e_above
</note>
  <outline>
    <contour>
      <point x="-314" y="712" type="curve" smooth="yes"/>
      <point x="-226" y="712"/>
      <point x="-153" y="754"/>
      <point x="-129" y="827" type="curve"/>
      <point x="-170" y="865"/>
      <point x="-231" y="896"/>
      <point x="-313" y="896" type="curve" smooth="yes"/>
      <point x="-349" y="896"/>
      <point x="-386" y="881"/>
      <point x="-411" y="865" type="curve"/>
      <point x="-396" y="815" type="line"/>
      <point x="-372" y="834"/>
      <point x="-343" y="845"/>
      <point x="-312" y="845" type="curve" smooth="yes"/>
      <point x="-285" y="845"/>
      <point x="-263" y="837"/>
      <point x="-242" y="825" type="curve"/>
      <point x="-256" y="802"/>
      <point x="-281" y="788"/>
      <point x="-312" y="788" type="curve" smooth="yes"/>
      <point x="-375" y="788"/>
      <point x="-400" y="820"/>
      <point x="-400" y="882" type="curve" smooth="yes"/>
      <point x="-400" y="936"/>
      <point x="-367" y="973"/>
      <point x="-314" y="973" type="curve" smooth="yes"/>
      <point x="-275" y="973"/>
      <point x="-239" y="958"/>
      <point x="-225" y="923" type="curve"/>
      <point x="-138" y="960" type="line"/>
      <point x="-166" y="1019"/>
      <point x="-230" y="1053"/>
      <point x="-314" y="1053" type="curve" smooth="yes"/>
      <point x="-435" y="1053"/>
      <point x="-508" y="976"/>
      <point x="-508" y="882" type="curve" smooth="yes"/>
      <point x="-508" y="784"/>
      <point x="-433" y="712"/>
    </contour>
  </outline>
</glyph>
<glyph name="anusvara" format="2">
  <unicode hex="1036"/>
  <note>
anusvara
</note>
  <outline>
    <contour>
      <point x="-327" y="703" type="curve" smooth="yes"/>
      <point x="-251" y="703"/>
      <point x="-197" y="741"/>
      <point x="-197" y="811" type="curve" smooth="yes"/>
      <point x="-197" y="872"/>
      <point x="-250" y="917"/>
      <point x="-327" y="917" type="curve" smooth="yes"/>
      <point x="-403" y="917"/>
      <point x="-454" y="876"/>
      <point x="-454" y="810" type="curve" smooth="yes"/>
      <point x="-454" y="741"/>
      <point x="-403" y="703"/>
    </contour>
    <contour>
      <point x="-325" y="772" type="curve" smooth="yes"/>
      <point x="-352" y="772"/>
      <point x="-365" y="787"/>
      <point x="-365" y="810" type="curve" smooth="yes"/>
      <point x="-365" y="834"/>
      <point x="-347" y="846"/>
      <point x="-325" y="846" type="curve" smooth="yes"/>
      <point x="-302" y="846"/>
      <point x="-285" y="834"/>
      <point x="-285" y="810" type="curve" smooth="yes"/>
      <point x="-285" y="787"/>
      <point x="-302" y="772"/>
    </contour>
  </outline>
</glyph>
<glyph name="dot_below" format="2">
  <unicode hex="1037"/>
  <note>
dot_below
</note>
  <outline>
    <contour>
      <point x="-317" y="-127" type="curve" smooth="yes"/>
      <point x="-241" y="-127"/>
      <point x="-187" y="-89"/>
      <point x="-187" y="-19" type="curve" smooth="yes"/>
      <point x="-187" y="43"/>
      <point x="-241" y="86"/>
      <point x="-317" y="86" type="curve" smooth="yes"/>
      <point x="-394" y="86"/>
      <point x="-444" y="45"/>
      <point x="-444" y="-20" type="curve" smooth="yes"/>
      <point x="-444" y="-89"/>
      <point x="-393" y="-127"/>
    </contour>
    <contour>
      <point x="-315" y="-57" type="curve" smooth="yes"/>
      <point x="-342" y="-57"/>
      <point x="-355" y="-43"/>
      <point x="-355" y="-20" type="curve" smooth="yes"/>
      <point x="-355" y="4"/>
      <point x="-338" y="17"/>
      <point x="-315" y="17" type="curve" smooth="yes"/>
      <point x="-292" y="17"/>
      <point x="-275" y="4"/>
      <point x="-275" y="-20" type="curve" smooth="yes"/>
      <point x="-275" y="-43"/>
      <point x="-292" y="-57"/>
    </contour>
  </outline>
</glyph>
<glyph name="visarga" format="2">
  <advance width="383"/>
  <unicode hex="1038"/>
  <note>
visarga
</note>
  <outline>
    <contour>
      <point x="190" y="419" type="curve" smooth="yes"/>
      <point x="266" y="419"/>
      <point x="320" y="457"/>
      <point x="320" y="527" type="curve" smooth="yes"/>
      <point x="320" y="588"/>
      <point x="268" y="632"/>
      <point x="190" y="632" type="curve" smooth="yes"/>
      <point x="112" y="632"/>
      <point x="63" y="592"/>
      <point x="63" y="526" type="curve" smooth="yes"/>
      <point x="63" y="458"/>
      <point x="114" y="419"/>
    </contour>
    <contour>
      <point x="190" y="141" type="curve" smooth="yes"/>
      <point x="266" y="141"/>
      <point x="320" y="180"/>
      <point x="320" y="249" type="curve" smooth="yes"/>
      <point x="320" y="310"/>
      <point x="268" y="354"/>
      <point x="190" y="354" type="curve" smooth="yes"/>
      <point x="112" y="354"/>
      <point x="63" y="314"/>
      <point x="63" y="248" type="curve" smooth="yes"/>
      <point x="63" y="180"/>
      <point x="114" y="141"/>
    </contour>
    <contour>
      <point x="192" y="210" type="curve" smooth="yes"/>
      <point x="165" y="210"/>
      <point x="152" y="225"/>
      <point x="152" y="248" type="curve" smooth="yes"/>
      <point x="152" y="272"/>
      <point x="169" y="284"/>
      <point x="192" y="284" type="curve" smooth="yes"/>
      <point x="215" y="284"/>
      <point x="232" y="272"/>
      <point x="232" y="248" type="curve" smooth="yes"/>
      <point x="232" y="225"/>
      <point x="215" y="210"/>
    </contour>
    <contour>
      <point x="192" y="488" type="curve" smooth="yes"/>
      <point x="165" y="488"/>
      <point x="152" y="504"/>
      <point x="152" y="526" type="curve" smooth="yes"/>
      <point x="152" y="550"/>
      <point x="169" y="562"/>
      <point x="192" y="562" type="curve" smooth="yes"/>
      <point x="215" y="562"/>
      <point x="232" y="550"/>
      <point x="232" y="526" type="curve" smooth="yes"/>
      <point x="232" y="504"/>
      <point x="215" y="488"/>
    </contour>
  </outline>
</glyph>
<glyph name="virama" format="2">
  <unicode hex="1039"/>
  <note>
virama
</note>
  <outline>
    <contour>
      <point x="-376" y="-244" type="line"/>
      <point x="-257" y="-244" type="line"/>
      <point x="-257" y="-136" type="line"/>
      <point x="-138" y="-136" type="line"/>
      <point x="-138" y="-47" type="line"/>
      <point x="-257" y="-47" type="line"/>
      <point x="-257" y="61" type="line"/>
      <point x="-376" y="61" type="line"/>
      <point x="-376" y="-47" type="line"/>
      <point x="-495" y="-47" type="line"/>
      <point x="-495" y="-136" type="line"/>
      <point x="-376" y="-136" type="line"/>
    </contour>
  </outline>
</glyph>
<glyph name="asat" format="2">
  <unicode hex="103A"/>
  <note>
asat
</note>
  <outline>
    <contour>
      <point x="-384" y="712" type="curve"/>
      <point x="-308" y="777" type="line"/>
      <point x="-324" y="792"/>
      <point x="-388" y="830"/>
      <point x="-388" y="894" type="curve" smooth="yes"/>
      <point x="-388" y="933"/>
      <point x="-357" y="968"/>
      <point x="-314" y="968" type="curve" smooth="yes"/>
      <point x="-273" y="968"/>
      <point x="-248" y="946"/>
      <point x="-236" y="928" type="curve"/>
      <point x="-153" y="973" type="line"/>
      <point x="-180" y="1025"/>
      <point x="-244" y="1053"/>
      <point x="-313" y="1053" type="curve" smooth="yes"/>
      <point x="-426" y="1053"/>
      <point x="-507" y="985"/>
      <point x="-507" y="888" type="curve" smooth="yes"/>
      <point x="-507" y="826"/>
      <point x="-483" y="777"/>
    </contour>
  </outline>
</glyph>
<glyph name="medial_ya" format="2">
  <advance width="310"/>
  <unicode hex="103B"/>
  <note>
medial_ya
</note>
  <outline>
    <contour>
      <point x="232" y="-271" type="line"/>
      <point x="232" y="649" type="line"/>
      <point x="85" y="649" type="line"/>
      <point x="85" y="-118" type="line"/>
      <point x="-94" y="-65" type="line"/>
      <point x="-94" y="337" type="line"/>
      <point x="-201" y="337" type="line"/>
      <point x="-201" y="-148" type="line"/>
    </contour>
  </outline>
</glyph>
<glyph name="medial_ra" format="2">
  <advance width="331"/>
  <unicode hex="103C"/>
  <note>
medial_ra
</note>
  <outline>
    <contour>
      <point x="295" y="-270" type="curve" smooth="yes"/>
      <point x="747" y="-270" type="line" smooth="yes"/>
      <point x="892" y="-270"/>
      <point x="964" y="-205"/>
      <point x="964" y="-72" type="curve" smooth="yes"/>
      <point x="964" y="307" type="line"/>
      <point x="853" y="307" type="line"/>
      <point x="853" y="-86" type="line" smooth="yes"/>
      <point x="853" y="-134"/>
      <point x="832" y="-158"/>
      <point x="790" y="-158" type="curve" smooth="yes"/>
      <point x="291" y="-158" type="line" smooth="yes"/>
      <point x="249" y="-158"/>
      <point x="228" y="-134"/>
      <point x="228" y="-86" type="curve" smooth="yes"/>
      <point x="228" y="868" type="line" smooth="yes"/>
      <point x="228" y="916"/>
      <point x="249" y="940"/>
      <point x="291" y="940" type="curve" smooth="yes"/>
      <point x="790" y="940" type="line" smooth="yes"/>
      <point x="832" y="940"/>
      <point x="853" y="916"/>
      <point x="853" y="868" type="curve" smooth="yes"/>
      <point x="853" y="828" type="line"/>
      <point x="964" y="828" type="line"/>
      <point x="964" y="855" type="line" smooth="yes"/>
      <point x="964" y="987"/>
      <point x="892" y="1053"/>
      <point x="747" y="1053" type="curve" smooth="yes"/>
      <point x="295" y="1053" type="line" smooth="yes"/>
      <point x="150" y="1053"/>
      <point x="78" y="987"/>
      <point x="78" y="855" type="curve" smooth="yes"/>
      <point x="78" y="-72" type="line" smooth="yes"/>
      <point x="78" y="-205"/>
      <point x="150" y="-270"/>
    </contour>
  </outline>
</glyph>
<glyph name="medial_wa" format="2">
  <unicode hex="103D"/>
  <note>
medial_wa
</note>
  <outline>
    <contour>
      <point x="-328" y="-248" type="curve" smooth="yes"/>
      <point x="-193" y="-248"/>
      <point x="-119" y="-172"/>
      <point x="-119" y="-71" type="curve" smooth="yes"/>
      <point x="-119" y="31"/>
      <point x="-193" y="107"/>
      <point x="-324" y="107" type="curve" smooth="yes"/>
      <point x="-453" y="107"/>
      <point x="-529" y="33"/>
      <point x="-529" y="-72" type="curve" smooth="yes"/>
      <point x="-529" y="-176"/>
      <point x="-450" y="-248"/>
    </contour>
    <contour>
      <point x="-324" y="-162" type="curve" smooth="yes"/>
      <point x="-380" y="-162"/>
      <point x="-410" y="-124"/>
      <point x="-410" y="-71" type="curve" smooth="yes"/>
      <point x="-410" y="-13"/>
      <point x="-379" y="21"/>
      <point x="-323" y="21" type="curve" smooth="yes"/>
      <point x="-269" y="21"/>
      <point x="-238" y="-16"/>
      <point x="-238" y="-71" type="curve" smooth="yes"/>
      <point x="-238" y="-124"/>
      <point x="-270" y="-162"/>
    </contour>
  </outline>
</glyph>
<glyph name="medial_ha" format="2">
  <unicode hex="103E"/>
  <note>
medial_ha
</note>
  <outline>
    <contour>
      <point x="-491" y="-270" type="line"/>
      <point x="-265" y="-270" type="line"/>
      <point x="-265" y="107" type="line"/>
      <point x="-365" y="107" type="line"/>
      <point x="-365" y="-182" type="line"/>
      <point x="-491" y="-182" type="line"/>
    </contour>
  </outline>
</glyph>
<glyph name="great_sa" format="2">
  <advance width="1525"/>
  <unicode hex="103F"/>
  <note>
great_sa
</note>
  <outline>
    <contour>
      <point x="308" y="140" type="curve" smooth="yes"/>
      <point x="518" y="140"/>
      <point x="596" y="272"/>
      <point x="596" y="395" type="curve" smooth="yes"/>
      <point x="596" y="546"/>
      <point x="477" y="649"/>
      <point x="306" y="649" type="curve" smooth="yes"/>
      <point x="196" y="649"/>
      <point x="96" y="604"/>
      <point x="55" y="531" type="curve"/>
      <point x="159" y="473" type="line"/>
      <point x="206" y="527"/>
      <point x="252" y="541"/>
      <point x="308" y="541" type="curve" smooth="yes"/>
      <point x="390" y="541"/>
      <point x="444" y="481"/>
      <point x="444" y="395" type="curve" smooth="yes"/>
      <point x="444" y="306"/>
      <point x="387" y="248"/>
      <point x="297" y="248" type="curve" smooth="yes"/>
      <point x="239" y="248"/>
      <point x="192" y="273"/>
      <point x="157" y="321" type="curve"/>
      <point x="43" y="266" type="line"/>
      <point x="83" y="196"/>
      <point x="183" y="140"/>
    </contour>
    <contour>
      <point x="742" y="140" type="curve" smooth="yes"/>
      <point x="913" y="140"/>
      <point x="1037" y="246"/>
      <point x="1037" y="395" type="curve" smooth="yes"/>
      <point x="1037" y="543"/>
      <point x="916" y="649"/>
      <point x="775" y="649" type="curve" smooth="yes"/>
      <point x="721" y="649"/>
      <point x="666" y="641"/>
      <point x="632" y="621" type="curve"/>
      <point x="684" y="521" type="line"/>
      <point x="713" y="532"/>
      <point x="724" y="535"/>
      <point x="760" y="535" type="curve" smooth="yes"/>
      <point x="833" y="535"/>
      <point x="885" y="479"/>
      <point x="885" y="395" type="curve" smooth="yes"/>
      <point x="885" y="309"/>
      <point x="825" y="248"/>
      <point x="735" y="248" type="curve" smooth="yes"/>
      <point x="658" y="248"/>
      <point x="604" y="294"/>
      <point x="586" y="344" type="curve"/>
      <point x="522" y="232" type="line"/>
      <point x="561" y="177"/>
      <point x="635" y="140"/>
    </contour>
    <contour>
      <point x="1185" y="140" type="curve" smooth="yes"/>
      <point x="1356" y="140"/>
      <point x="1480" y="246"/>
      <point x="1480" y="395" type="curve" smooth="yes"/>
      <point x="1480" y="543"/>
      <point x="1359" y="649"/>
      <point x="1218" y="649" type="curve" smooth="yes"/>
      <point x="1164" y="649"/>
      <point x="1109" y="641"/>
      <point x="1075" y="621" type="curve"/>
      <point x="1127" y="521" type="line"/>
      <point x="1156" y="532"/>
      <point x="1167" y="535"/>
      <point x="1203" y="535" type="curve" smooth="yes"/>
      <point x="1276" y="535"/>
      <point x="1328" y="479"/>
      <point x="1328" y="395" type="curve" smooth="yes"/>
      <point x="1328" y="309"/>
      <point x="1268" y="248"/>
      <point x="1178" y="248" type="curve" smooth="yes"/>
      <point x="1101" y="248"/>
      <point x="1047" y="294"/>
      <point x="1029" y="344" type="curve"/>
      <point x="965" y="232" type="line"/>
      <point x="1004" y="177"/>
      <point x="1078" y="140"/>
    </contour>
  </outline>
</glyph>
<glyph name="zero_m" format="2">
  <advance width="665"/>
  <unicode hex="1040"/>
  <note>
zero_m
</note>
  <outline>
    <contour>
      <point x="333" y="140" type="curve" smooth="yes"/>
      <point x="501" y="140"/>
      <point x="620" y="243"/>
      <point x="620" y="395" type="curve" smooth="yes"/>
      <point x="620" y="541"/>
      <point x="506" y="649"/>
      <point x="333" y="649" type="curve" smooth="yes"/>
      <point x="164" y="649"/>
      <point x="45" y="547"/>
      <point x="45" y="395" type="curve" smooth="yes"/>
      <point x="45" y="242"/>
      <point x="165" y="140"/>
    </contour>
    <contour>
      <point x="332" y="248" type="curve" smooth="yes"/>
      <point x="251" y="248"/>
      <point x="197" y="307"/>
      <point x="197" y="395" type="curve" smooth="yes"/>
      <point x="197" y="482"/>
      <point x="252" y="541"/>
      <point x="332" y="541" type="curve" smooth="yes"/>
      <point x="414" y="541"/>
      <point x="468" y="485"/>
      <point x="468" y="395" type="curve" smooth="yes"/>
      <point x="468" y="305"/>
      <point x="414" y="248"/>
    </contour>
  </outline>
</glyph>
<glyph name="one_m" format="2">
  <advance width="625"/>
  <unicode hex="1041"/>
  <note>
one_m
</note>
  <outline>
    <contour>
      <point x="292" y="140" type="curve" smooth="yes"/>
      <point x="460" y="140"/>
      <point x="580" y="243"/>
      <point x="580" y="395" type="curve" smooth="yes"/>
      <point x="580" y="547"/>
      <point x="461" y="649"/>
      <point x="292" y="649" type="curve" smooth="yes"/>
      <point x="188" y="649"/>
      <point x="94" y="604"/>
      <point x="55" y="531" type="curve"/>
      <point x="159" y="473" type="line"/>
      <point x="202" y="527"/>
      <point x="242" y="541"/>
      <point x="293" y="541" type="curve" smooth="yes"/>
      <point x="374" y="541"/>
      <point x="428" y="483"/>
      <point x="428" y="395" type="curve" smooth="yes"/>
      <point x="428" y="305"/>
      <point x="371" y="248"/>
      <point x="283" y="248" type="curve" smooth="yes"/>
      <point x="232" y="248"/>
      <point x="188" y="273"/>
      <point x="157" y="321" type="curve"/>
      <point x="43" y="266" type="line"/>
      <point x="81" y="194"/>
      <point x="177" y="140"/>
    </contour>
  </outline>
</glyph>
<glyph name="two_m" format="2">
  <advance width="728"/>
  <unicode hex="1042"/>
  <note>
two_m
</note>
  <outline>
    <contour>
      <point x="349" y="-270" type="curve" smooth="yes"/>
      <point x="540" y="-270"/>
      <point x="650" y="-172"/>
      <point x="650" y="-2" type="curve" smooth="yes"/>
      <point x="650" y="640" type="line"/>
      <point x="504" y="640" type="line"/>
      <point x="504" y="-2" type="line" smooth="yes"/>
      <point x="504" y="-112"/>
      <point x="442" y="-161"/>
      <point x="346" y="-161" type="curve" smooth="yes"/>
      <point x="251" y="-161"/>
      <point x="189" y="-110"/>
      <point x="189" y="-2" type="curve" smooth="yes"/>
      <point x="189" y="0" type="line"/>
      <point x="43" y="0" type="line"/>
      <point x="43" y="-3" type="line" smooth="yes"/>
      <point x="43" y="-176"/>
      <point x="152" y="-270"/>
    </contour>
  </outline>
</glyph>
<glyph name="three_m" format="2">
  <advance width="625"/>
  <unicode hex="1043"/>
  <note>
three_m
</note>
  <outline>
    <contour>
      <point x="366" y="-270" type="line"/>
      <point x="520" y="-270" type="line"/>
      <point x="353" y="9" type="line" smooth="yes"/>
      <point x="323" y="59"/>
      <point x="292" y="101"/>
      <point x="252" y="156" type="curve"/>
      <point x="236" y="152" type="line"/>
      <point x="248" y="144"/>
      <point x="267" y="140"/>
      <point x="294" y="140" type="curve" smooth="yes"/>
      <point x="462" y="140"/>
      <point x="582" y="243"/>
      <point x="582" y="395" type="curve" smooth="yes"/>
      <point x="582" y="547"/>
      <point x="463" y="649"/>
      <point x="294" y="649" type="curve" smooth="yes"/>
      <point x="190" y="649"/>
      <point x="96" y="604"/>
      <point x="57" y="531" type="curve"/>
      <point x="161" y="473" type="line"/>
      <point x="204" y="527"/>
      <point x="244" y="541"/>
      <point x="295" y="541" type="curve" smooth="yes"/>
      <point x="375" y="541"/>
      <point x="430" y="483"/>
      <point x="430" y="395" type="curve" smooth="yes"/>
      <point x="430" y="304"/>
      <point x="373" y="248"/>
      <point x="285" y="248" type="curve" smooth="yes"/>
      <point x="234" y="248"/>
      <point x="190" y="273"/>
      <point x="159" y="321" type="curve"/>
      <point x="45" y="266" type="line"/>
    </contour>
  </outline>
</glyph>
<glyph name="four_m" format="2">
  <advance width="625"/>
  <unicode hex="1044"/>
  <note>
four_m
</note>
  <outline>
    <contour>
      <point x="108" y="-270" type="line"/>
      <point x="262" y="-270" type="line"/>
      <point x="582" y="266" type="line"/>
      <point x="468" y="321" type="line"/>
      <point x="425" y="262"/>
      <point x="387" y="248"/>
      <point x="342" y="248" type="curve" smooth="yes"/>
      <point x="254" y="248"/>
      <point x="197" y="304"/>
      <point x="197" y="395" type="curve" smooth="yes"/>
      <point x="197" y="482"/>
      <point x="252" y="541"/>
      <point x="332" y="541" type="curve" smooth="yes"/>
      <point x="380" y="541"/>
      <point x="424" y="527"/>
      <point x="466" y="473" type="curve"/>
      <point x="570" y="531" type="line"/>
      <point x="531" y="604"/>
      <point x="437" y="649"/>
      <point x="333" y="649" type="curve" smooth="yes"/>
      <point x="164" y="649"/>
      <point x="45" y="547"/>
      <point x="45" y="395" type="curve" smooth="yes"/>
      <point x="45" y="242"/>
      <point x="165" y="140"/>
      <point x="333" y="140" type="curve" smooth="yes"/>
      <point x="354" y="140"/>
      <point x="370" y="144"/>
      <point x="379" y="149" type="curve"/>
      <point x="379" y="161" type="line"/>
      <point x="342" y="112"/>
      <point x="304" y="59"/>
      <point x="274" y="9" type="curve" smooth="yes"/>
    </contour>
  </outline>
</glyph>
<glyph name="five_m" format="2">
  <advance width="763"/>
  <unicode hex="1045"/>
  <note>
five_m
</note>
  <outline>
    <contour>
      <point x="384" y="-270" type="curve" smooth="yes"/>
      <point x="575" y="-270"/>
      <point x="685" y="-173"/>
      <point x="685" y="-2" type="curve" smooth="yes"/>
      <point x="685" y="382" type="line" smooth="yes"/>
      <point x="685" y="555"/>
      <point x="577" y="650"/>
      <point x="384" y="650" type="curve" smooth="yes"/>
      <point x="191" y="650"/>
      <point x="71" y="556"/>
      <point x="71" y="401" type="curve" smooth="yes"/>
      <point x="71" y="307"/>
      <point x="139" y="244"/>
      <point x="242" y="244" type="curve" smooth="yes"/>
      <point x="344" y="244"/>
      <point x="411" y="305"/>
      <point x="411" y="387" type="curve" smooth="yes"/>
      <point x="411" y="471"/>
      <point x="356" y="512"/>
      <point x="288" y="512" type="curve" smooth="yes"/>
      <point x="270" y="512"/>
      <point x="254" y="509"/>
      <point x="242" y="505" type="curve"/>
      <point x="264" y="532"/>
      <point x="312" y="550"/>
      <point x="376" y="550" type="curve" smooth="yes"/>
      <point x="476" y="550"/>
      <point x="539" y="483"/>
      <point x="539" y="382" type="curve" smooth="yes"/>
      <point x="539" y="-2" type="line" smooth="yes"/>
      <point x="539" y="-112"/>
      <point x="479" y="-161"/>
      <point x="381" y="-161" type="curve" smooth="yes"/>
      <point x="287" y="-161"/>
      <point x="224" y="-110"/>
      <point x="224" y="-2" type="curve" smooth="yes"/>
      <point x="224" y="0" type="line"/>
      <point x="78" y="0" type="line"/>
      <point x="78" y="-3" type="line" smooth="yes"/>
      <point x="78" y="-176"/>
      <point x="187" y="-270"/>
    </contour>
    <contour>
      <point x="241" y="342" type="curve" smooth="yes"/>
      <point x="218" y="342"/>
      <point x="199" y="355"/>
      <point x="199" y="383" type="curve" smooth="yes"/>
      <point x="199" y="407"/>
      <point x="216" y="425"/>
      <point x="241" y="425" type="curve" smooth="yes"/>
      <point x="268" y="425"/>
      <point x="287" y="411"/>
      <point x="287" y="383" type="curve" smooth="yes"/>
      <point x="287" y="361"/>
      <point x="272" y="342"/>
    </contour>
  </outline>
</glyph>
<glyph name="six_m" format="2">
  <advance width="763"/>
  <unicode hex="1046"/>
  <note>
six_m
</note>
  <outline>
    <contour>
      <point x="379" y="140" type="curve" smooth="yes"/>
      <point x="569" y="140"/>
      <point x="685" y="231"/>
      <point x="685" y="371" type="curve" smooth="yes"/>
      <point x="685" y="443"/>
      <point x="631" y="499"/>
      <point x="546" y="499" type="curve" smooth="yes"/>
      <point x="519" y="499"/>
      <point x="451" y="487"/>
      <point x="425" y="487" type="curve" smooth="yes"/>
      <point x="403" y="487"/>
      <point x="387" y="501"/>
      <point x="387" y="520" type="curve" smooth="yes"/>
      <point x="387" y="541"/>
      <point x="406" y="550"/>
      <point x="422" y="550" type="curve" smooth="yes"/>
      <point x="447" y="550"/>
      <point x="457" y="539"/>
      <point x="470" y="528" type="curve"/>
      <point x="549" y="586" type="line"/>
      <point x="519" y="629"/>
      <point x="472" y="650"/>
      <point x="409" y="650" type="curve" smooth="yes"/>
      <point x="315" y="650"/>
      <point x="254" y="599"/>
      <point x="254" y="519" type="curve" smooth="yes"/>
      <point x="254" y="440"/>
      <point x="317" y="388"/>
      <point x="411" y="388" type="curve" smooth="yes"/>
      <point x="462" y="388"/>
      <point x="492" y="399"/>
      <point x="513" y="399" type="curve" smooth="yes"/>
      <point x="531" y="399"/>
      <point x="539" y="387"/>
      <point x="539" y="371" type="curve" smooth="yes"/>
      <point x="539" y="303"/>
      <point x="477" y="250"/>
      <point x="387" y="250" type="curve" smooth="yes"/>
      <point x="279" y="250"/>
      <point x="224" y="298"/>
      <point x="224" y="408" type="curve" smooth="yes"/>
      <point x="224" y="785" type="line" smooth="yes"/>
      <point x="224" y="894"/>
      <point x="286" y="943"/>
      <point x="382" y="943" type="curve" smooth="yes"/>
      <point x="477" y="943"/>
      <point x="539" y="893"/>
      <point x="539" y="785" type="curve" smooth="yes"/>
      <point x="539" y="782" type="line"/>
      <point x="685" y="782" type="line"/>
      <point x="685" y="785" type="line" smooth="yes"/>
      <point x="685" y="957"/>
      <point x="576" y="1053"/>
      <point x="379" y="1053" type="curve" smooth="yes"/>
      <point x="188" y="1053"/>
      <point x="78" y="956"/>
      <point x="78" y="785" type="curve" smooth="yes"/>
      <point x="78" y="408" type="line" smooth="yes"/>
      <point x="78" y="238"/>
      <point x="188" y="140"/>
    </contour>
  </outline>
</glyph>
<glyph name="seven_m" format="2">
  <advance width="649"/>
  <unicode hex="1047"/>
  <note>
seven_m
</note>
  <outline>
    <contour>
      <point x="372" y="-270" type="curve" smooth="yes"/>
      <point x="459" y="-270"/>
      <point x="524" y="-233"/>
      <point x="567" y="-158" type="curve"/>
      <point x="458" y="-92" type="line"/>
      <point x="437" y="-137"/>
      <point x="411" y="-161"/>
      <point x="382" y="-161" type="curve" smooth="yes"/>
      <point x="354" y="-161"/>
      <point x="330" y="-142"/>
      <point x="330" y="-108" type="curve" smooth="yes"/>
      <point x="330" y="-43"/>
      <point x="352" y="-12"/>
      <point x="457" y="122" type="curve" smooth="yes"/>
      <point x="567" y="262"/>
      <point x="599" y="332"/>
      <point x="599" y="402" type="curve" smooth="yes"/>
      <point x="599" y="551"/>
      <point x="491" y="649"/>
      <point x="320" y="649" type="curve" smooth="yes"/>
      <point x="148" y="649"/>
      <point x="45" y="527"/>
      <point x="45" y="377" type="curve" smooth="yes"/>
      <point x="45" y="247"/>
      <point x="122" y="165"/>
      <point x="179" y="141" type="curve"/>
      <point x="249" y="232" type="line"/>
      <point x="221" y="250"/>
      <point x="191" y="301"/>
      <point x="191" y="379" type="curve" smooth="yes"/>
      <point x="191" y="483"/>
      <point x="252" y="541"/>
      <point x="323" y="541" type="curve" smooth="yes"/>
      <point x="400" y="541"/>
      <point x="452" y="482"/>
      <point x="452" y="408" type="curve" smooth="yes"/>
      <point x="452" y="337"/>
      <point x="428" y="305"/>
      <point x="334" y="183" type="curve" smooth="yes"/>
      <point x="252" y="76"/>
      <point x="182" y="9"/>
      <point x="182" y="-102" type="curve" smooth="yes"/>
      <point x="182" y="-210"/>
      <point x="256" y="-270"/>
    </contour>
  </outline>
</glyph>
<glyph name="eight_m" format="2">
  <advance width="665"/>
  <unicode hex="1048"/>
  <note>
eight_m
</note>
  <outline>
    <contour>
      <point x="225" y="140" type="curve"/>
      <point x="294" y="208"/>
      <point x="340" y="281"/>
      <point x="340" y="381" type="curve" smooth="yes"/>
      <point x="340" y="437"/>
      <point x="321" y="495"/>
      <point x="283" y="552" type="curve"/>
      <point x="204" y="514" type="line"/>
      <point x="235" y="467"/>
      <point x="250" y="423"/>
      <point x="250" y="381" type="curve" smooth="yes"/>
      <point x="250" y="334"/>
      <point x="235" y="302"/>
      <point x="212" y="271" type="curve"/>
      <point x="177" y="308"/>
      <point x="167" y="346"/>
      <point x="167" y="392" type="curve" smooth="yes"/>
      <point x="167" y="474"/>
      <point x="233" y="541"/>
      <point x="321" y="541" type="curve" smooth="yes"/>
      <point x="413" y="541"/>
      <point x="468" y="488"/>
      <point x="468" y="395" type="curve" smooth="yes"/>
      <point x="468" y="342"/>
      <point x="453" y="294"/>
      <point x="405" y="248" type="curve"/>
      <point x="480" y="140" type="line"/>
      <point x="562" y="184"/>
      <point x="620" y="271"/>
      <point x="620" y="395" type="curve" smooth="yes"/>
      <point x="620" y="546"/>
      <point x="508" y="649"/>
      <point x="333" y="649" type="curve" smooth="yes"/>
      <point x="159" y="649"/>
      <point x="45" y="548"/>
      <point x="45" y="395" type="curve" smooth="yes"/>
      <point x="45" y="277"/>
      <point x="115" y="182"/>
    </contour>
  </outline>
</glyph>
<glyph name="nine_m" format="2">
  <advance width="763"/>
  <unicode hex="1049"/>
  <note>
nine_m
</note>
  <outline>
    <contour>
      <point x="379" y="-270" type="curve" smooth="yes"/>
      <point x="576" y="-270"/>
      <point x="685" y="-176"/>
      <point x="685" y="-3" type="curve" smooth="yes"/>
      <point x="685" y="0" type="line"/>
      <point x="539" y="0" type="line"/>
      <point x="539" y="-2" type="line" smooth="yes"/>
      <point x="539" y="-110"/>
      <point x="477" y="-161"/>
      <point x="382" y="-161" type="curve" smooth="yes"/>
      <point x="286" y="-161"/>
      <point x="224" y="-112"/>
      <point x="224" y="-2" type="curve" smooth="yes"/>
      <point x="224" y="382" type="line" smooth="yes"/>
      <point x="224" y="493"/>
      <point x="279" y="541"/>
      <point x="387" y="541" type="curve" smooth="yes"/>
      <point x="476" y="541"/>
      <point x="539" y="487"/>
      <point x="539" y="419" type="curve" smooth="yes"/>
      <point x="539" y="404"/>
      <point x="531" y="391"/>
      <point x="513" y="391" type="curve" smooth="yes"/>
      <point x="489" y="391"/>
      <point x="451" y="402"/>
      <point x="411" y="402" type="curve" smooth="yes"/>
      <point x="317" y="402"/>
      <point x="254" y="351"/>
      <point x="254" y="271" type="curve" smooth="yes"/>
      <point x="254" y="191"/>
      <point x="315" y="140"/>
      <point x="409" y="140" type="curve" smooth="yes"/>
      <point x="472" y="140"/>
      <point x="519" y="162"/>
      <point x="549" y="204" type="curve"/>
      <point x="470" y="262" type="line"/>
      <point x="455" y="251"/>
      <point x="446" y="240"/>
      <point x="422" y="240" type="curve" smooth="yes"/>
      <point x="406" y="240"/>
      <point x="387" y="251"/>
      <point x="387" y="271" type="curve" smooth="yes"/>
      <point x="387" y="289"/>
      <point x="403" y="304"/>
      <point x="425" y="304" type="curve" smooth="yes"/>
      <point x="459" y="304"/>
      <point x="511" y="291"/>
      <point x="546" y="291" type="curve" smooth="yes"/>
      <point x="631" y="291"/>
      <point x="685" y="347"/>
      <point x="685" y="419" type="curve" smooth="yes"/>
      <point x="685" y="559"/>
      <point x="568" y="650"/>
      <point x="379" y="650" type="curve" smooth="yes"/>
      <point x="188" y="650"/>
      <point x="78" y="552"/>
      <point x="78" y="382" type="curve" smooth="yes"/>
      <point x="78" y="-2" type="line" smooth="yes"/>
      <point x="78" y="-171"/>
      <point x="188" y="-270"/>
    </contour>
  </outline>
</glyph>
<glyph name="little_section" format="2">
  <advance width="305"/>
  <unicode hex="104A"/>
  <note>
little_section
</note>
  <outline>
    <contour>
      <point x="78" y="149" type="line"/>
      <point x="227" y="149" type="line"/>
      <point x="227" y="640" type="line"/>
      <point x="78" y="640" type="line"/>
    </contour>
  </outline>
</glyph>
<glyph name="locative" format="2">
  <advance width="679"/>
  <unicode hex="104C"/>
  <note>
locative
</note>
  <outline>
    <contour>
      <point x="279" y="-270" type="curve" smooth="yes"/>
      <point x="382" y="-270" type="line" smooth="yes"/>
      <point x="522" y="-270"/>
      <point x="593" y="-206"/>
      <point x="593" y="-77" type="curve" smooth="yes"/>
      <point x="593" y="157" type="line"/>
      <point x="540" y="124"/>
      <point x="455" y="95"/>
      <point x="365" y="95" type="curve" smooth="yes"/>
      <point x="297" y="95"/>
      <point x="253" y="101"/>
      <point x="228" y="108" type="curve"/>
      <point x="228" y="190" type="line"/>
      <point x="78" y="267" type="line"/>
      <point x="78" y="39" type="line"/>
      <point x="150" y="13"/>
      <point x="246" y="-5"/>
      <point x="344" y="-5" type="curve" smooth="yes"/>
      <point x="377" y="-5"/>
      <point x="410" y="-4"/>
      <point x="443" y="1" type="curve"/>
      <point x="443" y="-87" type="line" smooth="yes"/>
      <point x="443" y="-141"/>
      <point x="425" y="-167"/>
      <point x="369" y="-167" type="curve" smooth="yes"/>
      <point x="282" y="-167" type="line" smooth="yes"/>
      <point x="246" y="-167"/>
      <point x="222" y="-156"/>
      <point x="222" y="-137" type="curve" smooth="yes"/>
      <point x="222" y="-121"/>
      <point x="236" y="-108"/>
      <point x="263" y="-108" type="curve" smooth="yes"/>
      <point x="278" y="-108"/>
      <point x="294" y="-113"/>
      <point x="312" y="-122" type="curve"/>
      <point x="367" y="-50" type="line"/>
      <point x="320" y="-28"/>
      <point x="296" y="-19"/>
      <point x="234" y="-19" type="curve" smooth="yes"/>
      <point x="132" y="-19"/>
      <point x="71" y="-63"/>
      <point x="71" y="-138" type="curve" smooth="yes"/>
      <point x="71" y="-220"/>
      <point x="147" y="-270"/>
    </contour>
    <contour>
      <point x="349" y="141" type="curve" smooth="yes"/>
      <point x="514" y="141"/>
      <point x="615" y="253"/>
      <point x="615" y="396" type="curve" smooth="yes"/>
      <point x="615" y="545"/>
      <point x="498" y="650"/>
      <point x="327" y="650" type="curve" smooth="yes"/>
      <point x="211" y="650"/>
      <point x="122" y="602"/>
      <point x="89" y="532" type="curve"/>
      <point x="194" y="474" type="line"/>
      <point x="221" y="520"/>
      <point x="268" y="542"/>
      <point x="328" y="542" type="curve" smooth="yes"/>
      <point x="410" y="542"/>
      <point x="463" y="484"/>
      <point x="463" y="396" type="curve" smooth="yes"/>
      <point x="463" y="309"/>
      <point x="411" y="249"/>
      <point x="318" y="249" type="curve" smooth="yes"/>
      <point x="262" y="249"/>
      <point x="216" y="274"/>
      <point x="192" y="322" type="curve"/>
      <point x="78" y="267" type="line"/>
      <point x="191" y="165"/>
      <point x="247" y="141"/>
    </contour>
    <component base="asat" xOffset="742"/>
  </outline>
</glyph>
<glyph name="completed" format="2">
  <advance width="1014"/>
  <unicode hex="104D"/>
  <note>
completed
</note>
  <outline>
    <contour>
      <point x="259" y="-270" type="curve" smooth="yes"/>
      <point x="716" y="-270" type="line" smooth="yes"/>
      <point x="861" y="-270"/>
      <point x="933" y="-206"/>
      <point x="933" y="-77" type="curve" smooth="yes"/>
      <point x="933" y="397" type="line" smooth="yes"/>
      <point x="933" y="591"/>
      <point x="876" y="676"/>
      <point x="710" y="800" type="curve" smooth="yes"/>
      <point x="676" y="825"/>
      <point x="659" y="852"/>
      <point x="659" y="882" type="curve" smooth="yes"/>
      <point x="659" y="918"/>
      <point x="692" y="944"/>
      <point x="728" y="944" type="curve" smooth="yes"/>
      <point x="775" y="944"/>
      <point x="801" y="915"/>
      <point x="828" y="865" type="curve"/>
      <point x="936" y="917" type="line"/>
      <point x="899" y="1003"/>
      <point x="828" y="1052"/>
      <point x="723" y="1052" type="curve" smooth="yes"/>
      <point x="599" y="1052"/>
      <point x="513" y="980"/>
      <point x="513" y="883" type="curve" smooth="yes"/>
      <point x="513" y="809"/>
      <point x="541" y="757"/>
      <point x="642" y="685" type="curve" smooth="yes"/>
      <point x="743" y="613"/>
      <point x="784" y="532"/>
      <point x="784" y="401" type="curve" smooth="yes"/>
      <point x="784" y="-86" type="line" smooth="yes"/>
      <point x="784" y="-134"/>
      <point x="763" y="-158"/>
      <point x="720" y="-158" type="curve" smooth="yes"/>
      <point x="257" y="-158" type="line" smooth="yes"/>
      <point x="228" y="-158"/>
      <point x="196" y="-150"/>
      <point x="196" y="-123" type="curve" smooth="yes"/>
      <point x="196" y="-107"/>
      <point x="209" y="-93"/>
      <point x="242" y="-93" type="curve" smooth="yes"/>
      <point x="262" y="-93"/>
      <point x="282" y="-99"/>
      <point x="304" y="-111" type="curve"/>
      <point x="372" y="-19" type="line"/>
      <point x="333" y="4"/>
      <point x="288" y="20"/>
      <point x="215" y="20" type="curve" smooth="yes"/>
      <point x="121" y="20"/>
      <point x="45" y="-38"/>
      <point x="45" y="-122" type="curve" smooth="yes"/>
      <point x="45" y="-219"/>
      <point x="124" y="-270"/>
    </contour>
    <contour>
      <point x="471" y="-17" type="line"/>
      <point x="620" y="-17" type="line"/>
      <point x="620" y="395" type="line" smooth="yes"/>
      <point x="620" y="541"/>
      <point x="506" y="649"/>
      <point x="333" y="649" type="curve" smooth="yes"/>
      <point x="163" y="649"/>
      <point x="45" y="546"/>
      <point x="45" y="395" type="curve" smooth="yes"/>
      <point x="45" y="243"/>
      <point x="164" y="140"/>
      <point x="333" y="140" type="curve" smooth="yes"/>
      <point x="365" y="140"/>
      <point x="401" y="144"/>
      <point x="439" y="154" type="curve"/>
      <point x="436" y="331"/>
      <point x="362" y="428"/>
      <point x="156" y="462" type="curve"/>
      <point x="144" y="381" type="line"/>
      <point x="260" y="370"/>
      <point x="329" y="310"/>
      <point x="347" y="209" type="curve"/>
      <point x="375" y="246" type="line"/>
      <point x="362" y="246"/>
      <point x="348" y="246"/>
      <point x="335" y="246" type="curve" smooth="yes"/>
      <point x="233" y="246"/>
      <point x="161" y="307"/>
      <point x="161" y="392" type="curve" smooth="yes"/>
      <point x="161" y="474"/>
      <point x="220" y="541"/>
      <point x="319" y="541" type="curve" smooth="yes"/>
      <point x="413" y="541"/>
      <point x="471" y="481"/>
      <point x="471" y="395" type="curve" smooth="yes"/>
    </contour>
  </outline>
</glyph>
<glyph name="aforementioned" format="2">
  <advance width="660"/>
  <unicode hex="104E"/>
  <note>
aforementioned
</note>
  <outline>
    <contour>
      <point x="333" y="140" type="curve" smooth="yes"/>
      <point x="428" y="140"/>
      <point x="464" y="161"/>
      <point x="582" y="266" type="curve"/>
      <point x="468" y="321" type="line"/>
      <point x="424" y="262"/>
      <point x="386" y="248"/>
      <point x="342" y="248" type="curve" smooth="yes"/>
      <point x="252" y="248"/>
      <point x="197" y="307"/>
      <point x="197" y="395" type="curve" smooth="yes"/>
      <point x="197" y="478"/>
      <point x="249" y="541"/>
      <point x="332" y="541" type="curve" smooth="yes"/>
      <point x="381" y="541"/>
      <point x="424" y="527"/>
      <point x="466" y="473" type="curve"/>
      <point x="570" y="531" type="line"/>
      <point x="531" y="604"/>
      <point x="437" y="649"/>
      <point x="333" y="649" type="curve" smooth="yes"/>
      <point x="161" y="649"/>
      <point x="45" y="547"/>
      <point x="45" y="395" type="curve" smooth="yes"/>
      <point x="45" y="243"/>
      <point x="164" y="140"/>
    </contour>
    <contour>
      <point x="433" y="-270" type="line"/>
      <point x="582" y="-270" type="line"/>
      <point x="582" y="266" type="line"/>
      <point x="433" y="171" type="line"/>
    </contour>
  </outline>
</glyph>
<glyph name="genitive" format="2">
  <advance width="1291"/>
  <unicode hex="104F"/>
  <note>
genitive
</note>
  <outline>
    <contour>
      <point x="1061" y="149" type="line"/>
      <point x="1210" y="149" type="line"/>
      <point x="1210" y="397" type="line" smooth="yes"/>
      <point x="1210" y="590"/>
      <point x="1157" y="672"/>
      <point x="991" y="797" type="curve" smooth="yes"/>
      <point x="955" y="824"/>
      <point x="936" y="853"/>
      <point x="936" y="883" type="curve" smooth="yes"/>
      <point x="936" y="919"/>
      <point x="969" y="945"/>
      <point x="1005" y="945" type="curve" smooth="yes"/>
      <point x="1052" y="945"/>
      <point x="1078" y="916"/>
      <point x="1105" y="865" type="curve"/>
      <point x="1213" y="918" type="line"/>
      <point x="1174" y="1008"/>
      <point x="1103" y="1053"/>
      <point x="1000" y="1053" type="curve" smooth="yes"/>
      <point x="875" y="1053"/>
      <point x="790" y="981"/>
      <point x="790" y="884" type="curve" smooth="yes"/>
      <point x="790" y="809"/>
      <point x="819" y="757"/>
      <point x="918" y="687" type="curve" smooth="yes"/>
      <point x="1019" y="616"/>
      <point x="1061" y="533"/>
      <point x="1061" y="402" type="curve" smooth="yes"/>
    </contour>
    <contour>
      <point x="749" y="149" type="line"/>
      <point x="898" y="149" type="line"/>
      <point x="898" y="415" type="line" smooth="yes"/>
      <point x="898" y="558"/>
      <point x="817" y="649"/>
      <point x="678" y="649" type="curve" smooth="yes"/>
      <point x="599" y="649"/>
      <point x="541" y="614"/>
      <point x="517" y="575" type="curve"/>
      <point x="587" y="470" type="line"/>
      <point x="591" y="501"/>
      <point x="618" y="535"/>
      <point x="662" y="535" type="curve" smooth="yes"/>
      <point x="726" y="535"/>
      <point x="749" y="487"/>
      <point x="749" y="406" type="curve" smooth="yes"/>
    </contour>
    <component base="e_m"/>
  </outline>
</glyph>
<glyph name="sha_skt" format="2">
  <advance width="689"/>
  <unicode hex="1050"/>
  <note>
sha_skt
</note>
  <outline>
    <contour>
      <point x="344" y="320" type="curve" smooth="yes"/>
      <point x="381" y="320"/>
      <point x="414" y="340"/>
      <point x="414" y="388" type="curve" smooth="yes"/>
      <point x="414" y="437"/>
      <point x="382" y="456"/>
      <point x="344" y="456" type="curve" smooth="yes"/>
      <point x="308" y="456"/>
      <point x="275" y="438"/>
      <point x="275" y="388" type="curve" smooth="yes"/>
      <point x="275" y="340"/>
      <point x="309" y="320"/>
    </contour>
    <component base="ga"/>
  </outline>
</glyph>
<glyph name="ssa_skt" format="2">
  <advance width="697"/>
  <unicode hex="1051"/>
  <note>
ssa_skt
</note>
  <outline>
    <contour>
      <point x="349" y="140" type="curve" smooth="yes"/>
      <point x="536" y="140"/>
      <point x="652" y="244"/>
      <point x="652" y="395" type="curve" smooth="yes"/>
      <point x="652" y="518"/>
      <point x="590" y="605"/>
      <point x="504" y="649" type="curve"/>
      <point x="429" y="541" type="line"/>
      <point x="482" y="496"/>
      <point x="500" y="449"/>
      <point x="500" y="395" type="curve" smooth="yes"/>
      <point x="500" y="306"/>
      <point x="438" y="248"/>
      <point x="348" y="248" type="curve" smooth="yes"/>
      <point x="258" y="248"/>
      <point x="197" y="308"/>
      <point x="197" y="395" type="curve" smooth="yes"/>
      <point x="197" y="451"/>
      <point x="215" y="496"/>
      <point x="268" y="541" type="curve"/>
      <point x="193" y="649" type="line"/>
      <point x="107" y="605"/>
      <point x="45" y="518"/>
      <point x="45" y="395" type="curve" smooth="yes"/>
      <point x="45" y="244"/>
      <point x="163" y="140"/>
    </contour>
    <contour>
      <point x="348" y="332" type="curve" smooth="yes"/>
      <point x="386" y="332"/>
      <point x="418" y="352"/>
      <point x="418" y="400" type="curve" smooth="yes"/>
      <point x="418" y="449"/>
      <point x="386" y="468"/>
      <point x="348" y="468" type="curve" smooth="yes"/>
      <point x="312" y="468"/>
      <point x="279" y="449"/>
      <point x="279" y="400" type="curve" smooth="yes"/>
      <point x="279" y="352"/>
      <point x="313" y="332"/>
    </contour>
  </outline>
</glyph>
<glyph name="vocR_skt" format="2">
  <advance width="696"/>
  <unicode hex="1052"/>
  <note>
vocR_skt
</note>
  <outline>
    <contour>
      <point x="354" y="140" type="curve" smooth="yes"/>
      <point x="521" y="140"/>
      <point x="629" y="216"/>
      <point x="629" y="325" type="curve" smooth="yes"/>
      <point x="629" y="397"/>
      <point x="575" y="449"/>
      <point x="503" y="493" type="curve" smooth="yes"/>
      <point x="491" y="500"/>
      <point x="484" y="508"/>
      <point x="484" y="517" type="curve" smooth="yes"/>
      <point x="484" y="525"/>
      <point x="492" y="532"/>
      <point x="508" y="532" type="curve" smooth="yes"/>
      <point x="531" y="532"/>
      <point x="552" y="522"/>
      <point x="574" y="505" type="curve"/>
      <point x="649" y="575" type="line"/>
      <point x="610" y="625"/>
      <point x="561" y="650"/>
      <point x="492" y="650" type="curve" smooth="yes"/>
      <point x="395" y="650"/>
      <point x="345" y="601"/>
      <point x="345" y="536" type="curve" smooth="yes"/>
      <point x="345" y="480"/>
      <point x="379" y="445"/>
      <point x="436" y="406" type="curve" smooth="yes"/>
      <point x="464" y="386"/>
      <point x="478" y="361"/>
      <point x="478" y="334" type="curve" smooth="yes"/>
      <point x="478" y="286"/>
      <point x="421" y="248"/>
      <point x="350" y="248" type="curve" smooth="yes"/>
      <point x="248" y="248"/>
      <point x="182" y="301"/>
      <point x="182" y="395" type="curve" smooth="yes"/>
      <point x="182" y="460"/>
      <point x="212" y="508"/>
      <point x="267" y="541" type="curve"/>
      <point x="192" y="649" type="line"/>
      <point x="106" y="605"/>
      <point x="45" y="525"/>
      <point x="45" y="395" type="curve" smooth="yes"/>
      <point x="45" y="240"/>
      <point x="162" y="140"/>
    </contour>
  </outline>
</glyph>
<glyph name="vocRR_skt" format="2">
  <advance width="681"/>
  <unicode hex="1053"/>
  <note>
vocRR_skt
</note>
  <outline>
    <contour>
      <point x="340" y="140" type="curve" smooth="yes"/>
      <point x="521" y="140"/>
      <point x="629" y="210"/>
      <point x="629" y="325" type="curve" smooth="yes"/>
      <point x="629" y="401"/>
      <point x="575" y="447"/>
      <point x="532" y="477" type="curve" smooth="yes"/>
      <point x="510" y="492"/>
      <point x="499" y="505"/>
      <point x="499" y="519" type="curve" smooth="yes"/>
      <point x="499" y="528"/>
      <point x="506" y="538"/>
      <point x="521" y="538" type="curve" smooth="yes"/>
      <point x="540" y="538"/>
      <point x="558" y="528"/>
      <point x="577" y="508" type="curve"/>
      <point x="649" y="575" type="line"/>
      <point x="615" y="625"/>
      <point x="557" y="649"/>
      <point x="503" y="649" type="curve" smooth="yes"/>
      <point x="417" y="649"/>
      <point x="367" y="607"/>
      <point x="367" y="530" type="curve" smooth="yes"/>
      <point x="367" y="478"/>
      <point x="392" y="445"/>
      <point x="429" y="415" type="curve" smooth="yes"/>
      <point x="474" y="377"/>
      <point x="479" y="365"/>
      <point x="479" y="334" type="curve" smooth="yes"/>
      <point x="479" y="280"/>
      <point x="419" y="248"/>
      <point x="339" y="248" type="curve" smooth="yes"/>
      <point x="259" y="248"/>
      <point x="202" y="280"/>
      <point x="202" y="334" type="curve" smooth="yes"/>
      <point x="202" y="361"/>
      <point x="212" y="381"/>
      <point x="231" y="397" type="curve" smooth="yes"/>
      <point x="270" y="427"/>
      <point x="315" y="460"/>
      <point x="315" y="530" type="curve" smooth="yes"/>
      <point x="315" y="607"/>
      <point x="265" y="649"/>
      <point x="178" y="649" type="curve" smooth="yes"/>
      <point x="125" y="649"/>
      <point x="66" y="625"/>
      <point x="32" y="575" type="curve"/>
      <point x="104" y="508" type="line"/>
      <point x="123" y="528"/>
      <point x="141" y="538"/>
      <point x="160" y="538" type="curve" smooth="yes"/>
      <point x="176" y="538"/>
      <point x="183" y="528"/>
      <point x="183" y="519" type="curve" smooth="yes"/>
      <point x="183" y="508"/>
      <point x="175" y="496"/>
      <point x="159" y="485" type="curve" smooth="yes"/>
      <point x="86" y="431"/>
      <point x="51" y="395"/>
      <point x="51" y="325" type="curve" smooth="yes"/>
      <point x="51" y="210"/>
      <point x="159" y="140"/>
    </contour>
  </outline>
</glyph>
<glyph name="vocL_skt" format="2">
  <advance width="632"/>
  <unicode hex="1054"/>
  <note>
vocL_skt
</note>
  <outline>
    <contour>
      <point x="327" y="140" type="curve" smooth="yes"/>
      <point x="426" y="140"/>
      <point x="480" y="154"/>
      <point x="555" y="203" type="curve"/>
      <point x="506" y="289" type="line"/>
      <point x="458" y="252"/>
      <point x="403" y="241"/>
      <point x="348" y="241" type="curve" smooth="yes"/>
      <point x="261" y="241"/>
      <point x="195" y="293"/>
      <point x="195" y="395" type="curve" smooth="yes"/>
      <point x="195" y="494"/>
      <point x="252" y="547"/>
      <point x="337" y="547" type="curve" smooth="yes"/>
      <point x="396" y="547"/>
      <point x="430" y="521"/>
      <point x="446" y="495" type="curve"/>
      <point x="415" y="475"/>
      <point x="383" y="464"/>
      <point x="339" y="464" type="curve" smooth="yes"/>
      <point x="300" y="464"/>
      <point x="250" y="476"/>
      <point x="205" y="501" type="curve"/>
      <point x="180" y="413" type="line"/>
      <point x="239" y="388"/>
      <point x="300" y="375"/>
      <point x="354" y="375" type="curve" smooth="yes"/>
      <point x="436" y="375"/>
      <point x="493" y="388"/>
      <point x="589" y="445" type="curve"/>
      <point x="573" y="571"/>
      <point x="485" y="649"/>
      <point x="335" y="649" type="curve" smooth="yes"/>
      <point x="175" y="649"/>
      <point x="43" y="557"/>
      <point x="43" y="395" type="curve" smooth="yes"/>
      <point x="43" y="238"/>
      <point x="166" y="140"/>
    </contour>
  </outline>
</glyph>
<glyph name="vocLL_skt" format="2">
  <advance width="664"/>
  <unicode hex="1055"/>
  <note>
vocLL_skt
</note>
  <outline>
    <contour>
      <point x="250" y="141" type="curve" smooth="yes"/>
      <point x="304" y="141"/>
      <point x="360" y="167"/>
      <point x="375" y="226" type="curve"/>
      <point x="337" y="212" type="line"/>
      <point x="353" y="176"/>
      <point x="386" y="141"/>
      <point x="465" y="141" type="curve" smooth="yes"/>
      <point x="575" y="141"/>
      <point x="620" y="199"/>
      <point x="620" y="301" type="curve"/>
      <point x="480" y="322" type="line"/>
      <point x="479" y="292"/>
      <point x="473" y="254"/>
      <point x="447" y="254" type="curve" smooth="yes"/>
      <point x="431" y="254"/>
      <point x="415" y="265"/>
      <point x="415" y="298" type="curve" smooth="yes"/>
      <point x="415" y="316" type="line"/>
      <point x="286" y="316" type="line"/>
      <point x="286" y="298" type="line" smooth="yes"/>
      <point x="286" y="266"/>
      <point x="266" y="254"/>
      <point x="253" y="254" type="curve" smooth="yes"/>
      <point x="207" y="254"/>
      <point x="197" y="325"/>
      <point x="197" y="388" type="curve" smooth="yes"/>
      <point x="197" y="491"/>
      <point x="245" y="547"/>
      <point x="346" y="547" type="curve" smooth="yes"/>
      <point x="402" y="547"/>
      <point x="458" y="524"/>
      <point x="478" y="495" type="curve"/>
      <point x="432" y="475"/>
      <point x="383" y="464"/>
      <point x="337" y="464" type="curve" smooth="yes"/>
      <point x="290" y="464"/>
      <point x="245" y="482"/>
      <point x="197" y="507" type="curve"/>
      <point x="172" y="419" type="line"/>
      <point x="228" y="389"/>
      <point x="287" y="375"/>
      <point x="351" y="375" type="curve" smooth="yes"/>
      <point x="435" y="375"/>
      <point x="504" y="388"/>
      <point x="621" y="445" type="curve"/>
      <point x="601" y="571"/>
      <point x="495" y="649"/>
      <point x="349" y="649" type="curve" smooth="yes"/>
      <point x="159" y="649"/>
      <point x="45" y="550"/>
      <point x="45" y="388" type="curve" smooth="yes"/>
      <point x="45" y="235"/>
      <point x="123" y="141"/>
    </contour>
  </outline>
</glyph>
<glyph name="_vocR_skt" format="2">
  <advance width="376"/>
  <unicode hex="1056"/>
  <note>
_vocR_skt
</note>
  <outline>
    <contour>
      <point x="107" y="140" type="curve" smooth="yes"/>
      <point x="246" y="140"/>
      <point x="331" y="209"/>
      <point x="331" y="308" type="curve" smooth="yes"/>
      <point x="331" y="387"/>
      <point x="281" y="427"/>
      <point x="205" y="460" type="curve" smooth="yes"/>
      <point x="167" y="477"/>
      <point x="148" y="496"/>
      <point x="148" y="515" type="curve" smooth="yes"/>
      <point x="148" y="526"/>
      <point x="160" y="539"/>
      <point x="180" y="539" type="curve" smooth="yes"/>
      <point x="201" y="539"/>
      <point x="224" y="528"/>
      <point x="250" y="507" type="curve"/>
      <point x="329" y="581" type="line"/>
      <point x="278" y="637"/>
      <point x="218" y="648"/>
      <point x="150" y="648" type="curve" smooth="yes"/>
      <point x="60" y="648"/>
      <point x="-4" y="593"/>
      <point x="-4" y="514" type="curve" smooth="yes"/>
      <point x="-4" y="458"/>
      <point x="27" y="412"/>
      <point x="90" y="377" type="curve" smooth="yes"/>
      <point x="151" y="347"/>
      <point x="179" y="328"/>
      <point x="179" y="304" type="curve" smooth="yes"/>
      <point x="179" y="282"/>
      <point x="159" y="254"/>
      <point x="108" y="254" type="curve" smooth="yes"/>
      <point x="48" y="254"/>
      <point x="-11" y="290"/>
      <point x="-50" y="355" type="curve"/>
      <point x="-162" y="288" type="line"/>
      <point x="-98" y="184"/>
      <point x="-10" y="140"/>
    </contour>
  </outline>
</glyph>
<glyph name="_vocRR_skt" format="2">
  <advance width="396"/>
  <unicode hex="1057"/>
  <note>
_vocRR_skt
</note>
  <outline>
    <contour>
      <point x="-38" y="140" type="curve" smooth="yes"/>
      <point x="32" y="140"/>
      <point x="74" y="178"/>
      <point x="80" y="213" type="curve"/>
      <point x="46" y="223" type="line"/>
      <point x="67" y="167"/>
      <point x="109" y="140"/>
      <point x="176" y="140" type="curve" smooth="yes"/>
      <point x="285" y="140"/>
      <point x="351" y="201"/>
      <point x="351" y="299" type="curve" smooth="yes"/>
      <point x="351" y="384"/>
      <point x="291" y="431"/>
      <point x="221" y="462" type="curve" smooth="yes"/>
      <point x="186" y="478"/>
      <point x="168" y="496"/>
      <point x="168" y="515" type="curve" smooth="yes"/>
      <point x="168" y="526"/>
      <point x="180" y="539"/>
      <point x="200" y="539" type="curve" smooth="yes"/>
      <point x="221" y="539"/>
      <point x="244" y="528"/>
      <point x="270" y="507" type="curve"/>
      <point x="349" y="581" type="line"/>
      <point x="298" y="637"/>
      <point x="238" y="648"/>
      <point x="170" y="648" type="curve" smooth="yes"/>
      <point x="80" y="648"/>
      <point x="16" y="593"/>
      <point x="16" y="514" type="curve" smooth="yes"/>
      <point x="16" y="451"/>
      <point x="48" y="406"/>
      <point x="135" y="364" type="curve" smooth="yes"/>
      <point x="178" y="343"/>
      <point x="199" y="320"/>
      <point x="199" y="295" type="curve" smooth="yes"/>
      <point x="199" y="272"/>
      <point x="188" y="254"/>
      <point x="168" y="254" type="curve" smooth="yes"/>
      <point x="145" y="254"/>
      <point x="135" y="273"/>
      <point x="135" y="298" type="curve" smooth="yes"/>
      <point x="135" y="316" type="line"/>
      <point x="6" y="316" type="line"/>
      <point x="6" y="298" type="line" smooth="yes"/>
      <point x="6" y="269"/>
      <point x="-4" y="254"/>
      <point x="-23" y="254" type="curve" smooth="yes"/>
      <point x="-42" y="254"/>
      <point x="-53" y="277"/>
      <point x="-56" y="322" type="curve"/>
      <point x="-185" y="301" type="line"/>
      <point x="-185" y="199"/>
      <point x="-134" y="140"/>
    </contour>
  </outline>
</glyph>
<glyph name="_vocL_skt" format="2">
  <unicode hex="1058"/>
  <note>
_vocL_skt
</note>
  <outline>
    <contour>
      <point x="-319" y="-270" type="curve" smooth="yes"/>
      <point x="-260" y="-270"/>
      <point x="-205" y="-260"/>
      <point x="-140" y="-224" type="curve"/>
      <point x="-184" y="-148" type="line"/>
      <point x="-227" y="-172"/>
      <point x="-264" y="-180"/>
      <point x="-309" y="-180" type="curve" smooth="yes"/>
      <point x="-379" y="-180"/>
      <point x="-421" y="-152"/>
      <point x="-421" y="-83" type="curve" smooth="yes"/>
      <point x="-421" y="-16"/>
      <point x="-381" y="23"/>
      <point x="-323" y="23" type="curve" smooth="yes"/>
      <point x="-283" y="23"/>
      <point x="-253" y="-1"/>
      <point x="-243" y="-22" type="curve"/>
      <point x="-271" y="-32"/>
      <point x="-298" y="-37"/>
      <point x="-325" y="-37" type="curve" smooth="yes"/>
      <point x="-354" y="-37"/>
      <point x="-389" y="-29"/>
      <point x="-413" y="-14" type="curve"/>
      <point x="-435" y="-72" type="line"/>
      <point x="-397" y="-92"/>
      <point x="-356" y="-101"/>
      <point x="-309" y="-101" type="curve" smooth="yes"/>
      <point x="-231" y="-101"/>
      <point x="-175" y="-76"/>
      <point x="-120" y="-45" type="curve"/>
      <point x="-134" y="49"/>
      <point x="-216" y="107"/>
      <point x="-325" y="107" type="curve" smooth="yes"/>
      <point x="-462" y="107"/>
      <point x="-540" y="27"/>
      <point x="-540" y="-83" type="curve" smooth="yes"/>
      <point x="-540" y="-197"/>
      <point x="-457" y="-270"/>
    </contour>
  </outline>
</glyph>
<glyph name="_vocLL_skt" format="2">
  <unicode hex="1059"/>
  <note>
_vocLL_skt
</note>
  <outline>
    <contour>
      <point x="-398" y="-270" type="curve" smooth="yes"/>
      <point x="-357" y="-270"/>
      <point x="-311" y="-248"/>
      <point x="-307" y="-193" type="curve"/>
      <point x="-335" y="-210" type="line"/>
      <point x="-332" y="-239"/>
      <point x="-307" y="-270"/>
      <point x="-245" y="-270" type="curve" smooth="yes"/>
      <point x="-171" y="-270"/>
      <point x="-135" y="-228"/>
      <point x="-135" y="-153" type="curve"/>
      <point x="-232" y="-138" type="line"/>
      <point x="-233" y="-156"/>
      <point x="-239" y="-187"/>
      <point x="-257" y="-187" type="curve" smooth="yes"/>
      <point x="-270" y="-187"/>
      <point x="-278" y="-174"/>
      <point x="-278" y="-155" type="curve" smooth="yes"/>
      <point x="-278" y="-141" type="line"/>
      <point x="-375" y="-141" type="line"/>
      <point x="-375" y="-155" type="line" smooth="yes"/>
      <point x="-375" y="-171"/>
      <point x="-383" y="-187"/>
      <point x="-395" y="-187" type="curve" smooth="yes"/>
      <point x="-423" y="-187"/>
      <point x="-429" y="-132"/>
      <point x="-429" y="-89" type="curve" smooth="yes"/>
      <point x="-429" y="-18"/>
      <point x="-398" y="30"/>
      <point x="-329" y="30" type="curve" smooth="yes"/>
      <point x="-292" y="30"/>
      <point x="-255" y="9"/>
      <point x="-242" y="-18" type="curve"/>
      <point x="-273" y="-31"/>
      <point x="-304" y="-41"/>
      <point x="-333" y="-41" type="curve" smooth="yes"/>
      <point x="-365" y="-41"/>
      <point x="-393" y="-26"/>
      <point x="-424" y="-10" type="curve"/>
      <point x="-443" y="-68" type="line"/>
      <point x="-406" y="-87"/>
      <point x="-362" y="-98"/>
      <point x="-319" y="-98" type="curve" smooth="yes"/>
      <point x="-241" y="-98"/>
      <point x="-188" y="-77"/>
      <point x="-135" y="-47" type="curve"/>
      <point x="-150" y="47"/>
      <point x="-232" y="107"/>
      <point x="-333" y="107" type="curve" smooth="yes"/>
      <point x="-467" y="107"/>
      <point x="-543" y="30"/>
      <point x="-543" y="-88" type="curve" smooth="yes"/>
      <point x="-543" y="-200"/>
      <point x="-489" y="-270"/>
    </contour>
  </outline>
</glyph>
<glyph name="nga_mon" format="2">
  <advance width="625"/>
  <unicode hex="105A"/>
  <note>
nga_mon
</note>
  <outline>
    <contour>
      <point x="333" y="140" type="curve" smooth="yes"/>
      <point x="449" y="140"/>
      <point x="543" y="195"/>
      <point x="582" y="266" type="curve"/>
      <point x="468" y="321" type="line"/>
      <point x="424" y="262"/>
      <point x="386" y="248"/>
      <point x="342" y="248" type="curve" smooth="yes"/>
      <point x="252" y="248"/>
      <point x="197" y="307"/>
      <point x="197" y="395" type="curve" smooth="yes"/>
      <point x="197" y="482"/>
      <point x="251" y="541"/>
      <point x="332" y="541" type="curve" smooth="yes"/>
      <point x="381" y="541"/>
      <point x="424" y="527"/>
      <point x="466" y="473" type="curve"/>
      <point x="570" y="531" type="line"/>
      <point x="531" y="604"/>
      <point x="437" y="649"/>
      <point x="333" y="649" type="curve" smooth="yes"/>
      <point x="163" y="649"/>
      <point x="45" y="546"/>
      <point x="45" y="395" type="curve" smooth="yes"/>
      <point x="45" y="243"/>
      <point x="164" y="140"/>
    </contour>
    <contour>
      <point x="389" y="-270" type="curve" smooth="yes"/>
      <point x="432" y="-270"/>
      <point x="462" y="-261"/>
      <point x="485" y="-249" type="curve"/>
      <point x="445" y="-177" type="line"/>
      <point x="438" y="-182"/>
      <point x="426" y="-183"/>
      <point x="418" y="-183" type="curve" smooth="yes"/>
      <point x="408" y="-183"/>
      <point x="397" y="-179"/>
      <point x="397" y="-170" type="curve" smooth="yes"/>
      <point x="397" y="-160"/>
      <point x="404" y="-151"/>
      <point x="418" y="-143" type="curve" smooth="yes"/>
      <point x="444" y="-128"/>
      <point x="503" y="-80"/>
      <point x="503" y="-15" type="curve" smooth="yes"/>
      <point x="503" y="58"/>
      <point x="437" y="107"/>
      <point x="337" y="107" type="curve" smooth="yes"/>
      <point x="230" y="107"/>
      <point x="167" y="50"/>
      <point x="161" y="-26" type="curve"/>
      <point x="273" y="-26" type="line"/>
      <point x="278" y="2"/>
      <point x="298" y="23"/>
      <point x="333" y="23" type="curve" smooth="yes"/>
      <point x="364" y="23"/>
      <point x="384" y="8"/>
      <point x="384" y="-12" type="curve" smooth="yes"/>
      <point x="384" y="-31"/>
      <point x="375" y="-47"/>
      <point x="356" y="-61" type="curve" smooth="yes"/>
      <point x="319" y="-89"/>
      <point x="276" y="-125"/>
      <point x="276" y="-181" type="curve" smooth="yes"/>
      <point x="276" y="-239"/>
      <point x="326" y="-270"/>
    </contour>
  </outline>
</glyph>
<glyph name="jha_mon" format="2">
  <advance width="915"/>
  <unicode hex="105B"/>
  <note>
jha_mon
</note>
  <outline>
    <contour>
      <point x="333" y="140" type="curve" smooth="yes"/>
      <point x="420" y="140"/>
      <point x="464" y="154"/>
      <point x="527" y="200" type="curve"/>
      <point x="441" y="287" type="line"/>
      <point x="409" y="263"/>
      <point x="377" y="248"/>
      <point x="338" y="248" type="curve" smooth="yes"/>
      <point x="250" y="248"/>
      <point x="197" y="305"/>
      <point x="197" y="395" type="curve" smooth="yes"/>
      <point x="197" y="482"/>
      <point x="251" y="541"/>
      <point x="332" y="541" type="curve" smooth="yes"/>
      <point x="351" y="541"/>
      <point x="370" y="541"/>
      <point x="389" y="541" type="curve"/>
      <point x="377" y="568" type="line"/>
      <point x="339" y="547"/>
      <point x="320" y="514"/>
      <point x="320" y="471" type="curve" smooth="yes"/>
      <point x="320" y="401"/>
      <point x="372" y="360"/>
      <point x="449" y="360" type="curve" smooth="yes"/>
      <point x="482" y="360"/>
      <point x="505" y="364"/>
      <point x="508" y="382" type="curve"/>
      <point x="485" y="395" type="line"/>
      <point x="485" y="325"/>
      <point x="509" y="280"/>
      <point x="604" y="280" type="curve" smooth="yes"/>
      <point x="670" y="280" type="line"/>
      <point x="670" y="387" type="line"/>
      <point x="644" y="387" type="line" smooth="yes"/>
      <point x="601" y="387"/>
      <point x="579" y="397"/>
      <point x="579" y="428" type="curve" smooth="yes"/>
      <point x="579" y="444"/>
      <point x="582" y="453"/>
      <point x="582" y="480" type="curve" smooth="yes"/>
      <point x="582" y="575"/>
      <point x="460" y="649"/>
      <point x="333" y="649" type="curve" smooth="yes"/>
      <point x="161" y="649"/>
      <point x="45" y="547"/>
      <point x="45" y="395" type="curve" smooth="yes"/>
      <point x="45" y="243"/>
      <point x="164" y="140"/>
    </contour>
    <contour>
      <point x="570" y="-270" type="curve" smooth="yes"/>
      <point x="716" y="-270"/>
      <point x="805" y="-179"/>
      <point x="805" y="-35" type="curve" smooth="yes"/>
      <point x="805" y="641" type="line"/>
      <point x="654" y="641" type="line"/>
      <point x="654" y="-11" type="line" smooth="yes"/>
      <point x="654" y="-113"/>
      <point x="630" y="-156"/>
      <point x="573" y="-156" type="curve" smooth="yes"/>
      <point x="506" y="-156"/>
      <point x="491" y="-96"/>
      <point x="491" y="-12" type="curve" smooth="yes"/>
      <point x="491" y="190" type="line"/>
      <point x="340" y="154" type="line"/>
      <point x="340" y="-33" type="line" smooth="yes"/>
      <point x="340" y="-180"/>
      <point x="427" y="-270"/>
    </contour>
    <contour>
      <point x="446" y="431" type="curve" smooth="yes"/>
      <point x="415" y="431"/>
      <point x="399" y="447"/>
      <point x="399" y="473" type="curve" smooth="yes"/>
      <point x="399" y="499"/>
      <point x="419" y="515"/>
      <point x="446" y="515" type="curve" smooth="yes"/>
      <point x="473" y="515"/>
      <point x="493" y="499"/>
      <point x="493" y="473" type="curve" smooth="yes"/>
      <point x="493" y="447"/>
      <point x="473" y="431"/>
    </contour>
  </outline>
</glyph>
<glyph name="bba_mon" format="2">
  <advance width="685"/>
  <unicode hex="105C"/>
  <note>
bba_mon
</note>
  <outline>
    <contour>
      <point x="343" y="140" type="curve" smooth="yes"/>
      <point x="528" y="140"/>
      <point x="653" y="244"/>
      <point x="653" y="394" type="curve" smooth="yes"/>
      <point x="653" y="541"/>
      <point x="531" y="649"/>
      <point x="343" y="649" type="curve" smooth="yes"/>
      <point x="155" y="649"/>
      <point x="31" y="543"/>
      <point x="31" y="395" type="curve" smooth="yes"/>
      <point x="31" y="245"/>
      <point x="156" y="140"/>
    </contour>
    <contour>
      <point x="342" y="239" type="curve" smooth="yes"/>
      <point x="225" y="239"/>
      <point x="156" y="306"/>
      <point x="156" y="395" type="curve" smooth="yes"/>
      <point x="156" y="483"/>
      <point x="228" y="550"/>
      <point x="342" y="550" type="curve" smooth="yes"/>
      <point x="456" y="550"/>
      <point x="528" y="485"/>
      <point x="528" y="394" type="curve" smooth="yes"/>
      <point x="528" y="307"/>
      <point x="460" y="239"/>
    </contour>
    <contour>
      <point x="341" y="290" type="curve" smooth="yes"/>
      <point x="412" y="290"/>
      <point x="463" y="328"/>
      <point x="463" y="396" type="curve" smooth="yes"/>
      <point x="463" y="460"/>
      <point x="410" y="500"/>
      <point x="341" y="500" type="curve" smooth="yes"/>
      <point x="271" y="500"/>
      <point x="222" y="461"/>
      <point x="222" y="395" type="curve" smooth="yes"/>
      <point x="222" y="328"/>
      <point x="271" y="290"/>
    </contour>
    <contour>
      <point x="343" y="356" type="curve" smooth="yes"/>
      <point x="316" y="356"/>
      <point x="302" y="370"/>
      <point x="302" y="395" type="curve" smooth="yes"/>
      <point x="302" y="419"/>
      <point x="320" y="434"/>
      <point x="343" y="434" type="curve" smooth="yes"/>
      <point x="366" y="434"/>
      <point x="383" y="419"/>
      <point x="383" y="395" type="curve" smooth="yes"/>
      <point x="383" y="370"/>
      <point x="366" y="356"/>
    </contour>
  </outline>
</glyph>
<glyph name="bbe_mon" format="2">
  <advance width="665"/>
  <unicode hex="105D"/>
  <note>
bbe_mon
</note>
  <outline>
    <contour>
      <point x="259" y="-270" type="curve" smooth="yes"/>
      <point x="372" y="-270" type="line" smooth="yes"/>
      <point x="517" y="-270"/>
      <point x="589" y="-206"/>
      <point x="589" y="-77" type="curve" smooth="yes"/>
      <point x="589" y="283" type="line"/>
      <point x="440" y="169" type="line"/>
      <point x="440" y="-86" type="line" smooth="yes"/>
      <point x="440" y="-132"/>
      <point x="420" y="-158"/>
      <point x="376" y="-158" type="curve" smooth="yes"/>
      <point x="257" y="-158" type="line" smooth="yes"/>
      <point x="228" y="-158"/>
      <point x="196" y="-150"/>
      <point x="196" y="-123" type="curve" smooth="yes"/>
      <point x="196" y="-107"/>
      <point x="209" y="-93"/>
      <point x="242" y="-93" type="curve" smooth="yes"/>
      <point x="264" y="-93"/>
      <point x="284" y="-100"/>
      <point x="304" y="-111" type="curve"/>
      <point x="372" y="-19" type="line"/>
      <point x="333" y="4"/>
      <point x="288" y="20"/>
      <point x="215" y="20" type="curve" smooth="yes"/>
      <point x="121" y="20"/>
      <point x="45" y="-37"/>
      <point x="45" y="-122" type="curve" smooth="yes"/>
      <point x="45" y="-219"/>
      <point x="124" y="-270"/>
    </contour>
    <contour>
      <point x="205" y="293" type="line"/>
      <point x="241" y="311"/>
      <point x="278" y="325"/>
      <point x="333" y="325" type="curve" smooth="yes"/>
      <point x="389" y="325"/>
      <point x="423" y="314"/>
      <point x="462" y="295" type="curve"/>
      <point x="494" y="370" type="line"/>
      <point x="442" y="399"/>
      <point x="395" y="415"/>
      <point x="337" y="415" type="curve" smooth="yes"/>
      <point x="269" y="415"/>
      <point x="218" y="394"/>
      <point x="173" y="370" type="curve"/>
    </contour>
    <contour>
      <point x="335" y="140" type="curve" smooth="yes"/>
      <point x="510" y="140"/>
      <point x="620" y="244"/>
      <point x="620" y="395" type="curve" smooth="yes"/>
      <point x="620" y="518"/>
      <point x="558" y="605"/>
      <point x="472" y="649" type="curve"/>
      <point x="397" y="541" type="line"/>
      <point x="456" y="496"/>
      <point x="475" y="449"/>
      <point x="475" y="395" type="curve" smooth="yes"/>
      <point x="475" y="289"/>
      <point x="421" y="242"/>
      <point x="333" y="242" type="curve" smooth="yes"/>
      <point x="242" y="242"/>
      <point x="190" y="294"/>
      <point x="190" y="395" type="curve" smooth="yes"/>
      <point x="190" y="451"/>
      <point x="210" y="496"/>
      <point x="268" y="541" type="curve"/>
      <point x="193" y="649" type="line"/>
      <point x="107" y="605"/>
      <point x="45" y="518"/>
      <point x="45" y="395" type="curve" smooth="yes"/>
      <point x="45" y="243"/>
      <point x="158" y="140"/>
    </contour>
  </outline>
</glyph>
<glyph name="_medialNa_mon" format="2">
  <unicode hex="105E"/>
  <note>
_medialNa_mon
</note>
  <outline>
    <contour>
      <point x="-407" y="-270" type="curve" smooth="yes"/>
      <point x="-286" y="-270"/>
      <point x="-234" y="-219"/>
      <point x="-234" y="-125" type="curve" smooth="yes"/>
      <point x="-234" y="107" type="line"/>
      <point x="-363" y="107" type="line"/>
      <point x="-363" y="-133" type="line" smooth="yes"/>
      <point x="-363" y="-166"/>
      <point x="-378" y="-183"/>
      <point x="-408" y="-183" type="curve" smooth="yes"/>
      <point x="-429" y="-183"/>
      <point x="-452" y="-172"/>
      <point x="-452" y="-145" type="curve" smooth="yes"/>
      <point x="-452" y="-110"/>
      <point x="-415" y="-82"/>
      <point x="-330" y="-82" type="curve" smooth="yes"/>
      <point x="-243" y="-82"/>
      <point x="-206" y="-104"/>
      <point x="-139" y="-143" type="curve"/>
      <point x="-77" y="-66" type="line"/>
      <point x="-164" y="-19"/>
      <point x="-233" y="3"/>
      <point x="-333" y="3" type="curve" smooth="yes"/>
      <point x="-492" y="3"/>
      <point x="-580" y="-56"/>
      <point x="-580" y="-141" type="curve" smooth="yes"/>
      <point x="-580" y="-224"/>
      <point x="-515" y="-270"/>
    </contour>
  </outline>
</glyph>
<glyph name="_medialMa_mon" format="2">
  <unicode hex="105F"/>
  <note>
_medialMa_mon
</note>
  <outline>
    <contour>
      <point x="-335" y="-270" type="curve" smooth="yes"/>
      <point x="-246" y="-270"/>
      <point x="-145" y="-244"/>
      <point x="-75" y="-201" type="curve"/>
      <point x="-137" y="-123" type="line"/>
      <point x="-184" y="-154"/>
      <point x="-265" y="-183"/>
      <point x="-327" y="-183" type="curve" smooth="yes"/>
      <point x="-398" y="-183"/>
      <point x="-433" y="-166"/>
      <point x="-433" y="-134" type="curve" smooth="yes"/>
      <point x="-433" y="-103"/>
      <point x="-407" y="-82"/>
      <point x="-348" y="-82" type="curve" smooth="yes"/>
      <point x="-316" y="-82"/>
      <point x="-283" y="-85"/>
      <point x="-250" y="-93" type="curve"/>
      <point x="-250" y="107" type="line"/>
      <point x="-379" y="107" type="line"/>
      <point x="-379" y="3" type="line"/>
      <point x="-496" y="-2"/>
      <point x="-561" y="-56"/>
      <point x="-561" y="-129" type="curve" smooth="yes"/>
      <point x="-561" y="-224"/>
      <point x="-488" y="-270"/>
    </contour>
  </outline>
</glyph>
<glyph name="_medialLa_mon" format="2">
  <unicode hex="1060"/>
  <note>
_medialLa_mon
</note>
  <outline>
    <contour>
      <point x="-564" y="-270" type="line"/>
      <point x="-131" y="-270" type="line"/>
      <point x="-131" y="-162" type="line"/>
      <point x="-323" y="-162" type="line"/>
      <point x="-155" y="107" type="line"/>
      <point x="-328" y="107" type="line"/>
    </contour>
  </outline>
</glyph>
<glyph name="sha_skn" format="2">
  <advance width="738"/>
  <unicode hex="1061"/>
  <note>
sha_skn
</note>
  <outline>
    <contour>
      <point x="511" y="-270" type="line"/>
      <point x="660" y="-270" type="line"/>
      <point x="660" y="376" type="line" smooth="yes"/>
      <point x="660" y="540"/>
      <point x="541" y="649"/>
      <point x="353" y="649" type="curve" smooth="yes"/>
      <point x="170" y="649"/>
      <point x="45" y="545"/>
      <point x="45" y="395" type="curve" smooth="yes"/>
      <point x="45" y="222"/>
      <point x="193" y="143"/>
      <point x="305" y="143" type="curve" smooth="yes"/>
      <point x="342" y="143"/>
      <point x="388" y="145"/>
      <point x="439" y="154" type="curve"/>
      <point x="439" y="328"/>
      <point x="368" y="427"/>
      <point x="156" y="462" type="curve"/>
      <point x="144" y="381" type="line"/>
      <point x="260" y="370"/>
      <point x="334" y="307"/>
      <point x="350" y="203" type="curve"/>
      <point x="384" y="246" type="line"/>
      <point x="368" y="246"/>
      <point x="352" y="246"/>
      <point x="336" y="246" type="curve" smooth="yes"/>
      <point x="234" y="246"/>
      <point x="161" y="306"/>
      <point x="161" y="395" type="curve" smooth="yes"/>
      <point x="161" y="471"/>
      <point x="223" y="541"/>
      <point x="338" y="541" type="curve" smooth="yes"/>
      <point x="455" y="541"/>
      <point x="511" y="474"/>
      <point x="511" y="365" type="curve" smooth="yes"/>
    </contour>
    <contour>
      <point x="179" y="-270" type="line"/>
      <point x="439" y="-270" type="line"/>
      <point x="439" y="157" type="line"/>
      <point x="290" y="157" type="line"/>
      <point x="290" y="-162" type="line"/>
      <point x="179" y="-162" type="line"/>
    </contour>
  </outline>
</glyph>
<glyph name="kepho_skn" format="2">
  <advance width="424"/>
  <unicode hex="1064"/>
  <note>
kepho_skn
</note>
  <outline>
    <contour>
      <point x="138" y="149" type="line"/>
      <point x="398" y="149" type="line"/>
      <point x="398" y="258" type="line"/>
      <point x="287" y="258" type="line"/>
      <point x="287" y="640" type="line"/>
      <point x="26" y="640" type="line"/>
      <point x="26" y="532" type="line"/>
      <point x="138" y="532" type="line"/>
    </contour>
  </outline>
</glyph>
<glyph name="tha_wpk" format="2">
  <advance width="698"/>
  <unicode hex="1065"/>
  <note>
tha_wpk
</note>
  <outline>
    <contour>
      <point x="346" y="140" type="curve" smooth="yes"/>
      <point x="526" y="140"/>
      <point x="653" y="243"/>
      <point x="653" y="395" type="curve" smooth="yes"/>
      <point x="653" y="546"/>
      <point x="526" y="649"/>
      <point x="346" y="649" type="curve" smooth="yes"/>
      <point x="235" y="649"/>
      <point x="135" y="604"/>
      <point x="94" y="531" type="curve"/>
      <point x="198" y="473" type="line"/>
      <point x="243" y="525"/>
      <point x="290" y="541"/>
      <point x="349" y="541" type="curve" smooth="yes"/>
      <point x="438" y="541"/>
      <point x="501" y="483"/>
      <point x="501" y="395" type="curve" smooth="yes"/>
      <point x="501" y="305"/>
      <point x="438" y="248"/>
      <point x="338" y="248" type="curve" smooth="yes"/>
      <point x="279" y="248"/>
      <point x="231" y="273"/>
      <point x="196" y="321" type="curve"/>
      <point x="82" y="266" type="line"/>
      <point x="121" y="196"/>
      <point x="223" y="140"/>
    </contour>
  </outline>
</glyph>
<glyph name="pwa_wpk" format="2">
  <advance width="665"/>
  <unicode hex="1066"/>
  <note>
pwa_wpk
</note>
  <outline>
    <contour>
      <point x="336" y="140" type="curve" smooth="yes"/>
      <point x="510" y="140"/>
      <point x="620" y="244"/>
      <point x="620" y="395" type="curve" smooth="yes"/>
      <point x="620" y="518"/>
      <point x="561" y="605"/>
      <point x="480" y="649" type="curve"/>
      <point x="405" y="541" type="line"/>
      <point x="453" y="496"/>
      <point x="468" y="449"/>
      <point x="468" y="395" type="curve" smooth="yes"/>
      <point x="468" y="306"/>
      <point x="413" y="248"/>
      <point x="335" y="248" type="curve" smooth="yes"/>
      <point x="252" y="248"/>
      <point x="197" y="308"/>
      <point x="197" y="395" type="curve" smooth="yes"/>
      <point x="197" y="451"/>
      <point x="213" y="496"/>
      <point x="260" y="541" type="curve"/>
      <point x="185" y="649" type="line"/>
      <point x="104" y="605"/>
      <point x="45" y="518"/>
      <point x="45" y="395" type="curve" smooth="yes"/>
      <point x="45" y="243"/>
      <point x="159" y="140"/>
    </contour>
    <contour>
      <point x="155" y="-270" type="line"/>
      <point x="415" y="-270" type="line"/>
      <point x="415" y="163" type="line"/>
      <point x="266" y="160" type="line"/>
      <point x="266" y="-162" type="line"/>
      <point x="155" y="-162" type="line"/>
    </contour>
  </outline>
</glyph>
<glyph name="eu_wpk" format="2">
  <advance width="445"/>
  <unicode hex="1067"/>
  <note>
eu_wpk
</note>
  <outline>
    <contour>
      <point x="196" y="140" type="curve" smooth="yes"/>
      <point x="299" y="140"/>
      <point x="367" y="190"/>
      <point x="367" y="282" type="curve" smooth="yes"/>
      <point x="367" y="370"/>
      <point x="299" y="423"/>
      <point x="196" y="423" type="curve" smooth="yes"/>
      <point x="94" y="423"/>
      <point x="26" y="370"/>
      <point x="26" y="282" type="curve" smooth="yes"/>
      <point x="26" y="190"/>
      <point x="94" y="140"/>
    </contour>
    <contour>
      <point x="196" y="232" type="curve" smooth="yes"/>
      <point x="162" y="232"/>
      <point x="144" y="253"/>
      <point x="144" y="282" type="curve" smooth="yes"/>
      <point x="144" y="314"/>
      <point x="166" y="330"/>
      <point x="196" y="330" type="curve" smooth="yes"/>
      <point x="227" y="330"/>
      <point x="249" y="314"/>
      <point x="249" y="282" type="curve" smooth="yes"/>
      <point x="249" y="253"/>
      <point x="231" y="232"/>
    </contour>
    <contour>
      <point x="367" y="282" type="line"/>
      <point x="367" y="640" type="line"/>
      <point x="228" y="640" type="line"/>
      <point x="228" y="421" type="line"/>
    </contour>
  </outline>
</glyph>
<glyph name="ue_wpk" format="2">
  <advance width="401"/>
  <unicode hex="1068"/>
  <note>
ue_wpk
</note>
  <outline>
    <contour>
      <point x="26" y="149" type="line"/>
      <point x="287" y="149" type="line"/>
      <point x="287" y="640" type="line"/>
      <point x="138" y="640" type="line"/>
      <point x="138" y="258" type="line"/>
      <point x="26" y="258" type="line"/>
    </contour>
    <contour>
      <point x="207" y="724" type="curve" smooth="yes"/>
      <point x="283" y="724"/>
      <point x="337" y="763"/>
      <point x="337" y="832" type="curve" smooth="yes"/>
      <point x="337" y="893"/>
      <point x="285" y="937"/>
      <point x="207" y="937" type="curve" smooth="yes"/>
      <point x="129" y="937"/>
      <point x="80" y="897"/>
      <point x="80" y="831" type="curve" smooth="yes"/>
      <point x="80" y="763"/>
      <point x="131" y="724"/>
    </contour>
    <contour>
      <point x="209" y="793" type="curve" smooth="yes"/>
      <point x="182" y="793"/>
      <point x="169" y="808"/>
      <point x="169" y="831" type="curve" smooth="yes"/>
      <point x="169" y="856"/>
      <point x="186" y="867"/>
      <point x="209" y="867" type="curve" smooth="yes"/>
      <point x="232" y="867"/>
      <point x="249" y="856"/>
      <point x="249" y="831" type="curve" smooth="yes"/>
      <point x="249" y="808"/>
      <point x="232" y="793"/>
    </contour>
  </outline>
</glyph>
<glyph name="tone1_wpk" format="2">
  <advance width="458"/>
  <unicode hex="1069"/>
  <note>
tone1_wpk
</note>
  <outline>
    <contour>
      <point x="219" y="140" type="curve" smooth="yes"/>
      <point x="297" y="140"/>
      <point x="355" y="163"/>
      <point x="415" y="225" type="curve"/>
      <point x="337" y="295" type="line"/>
      <point x="318" y="272"/>
      <point x="266" y="249"/>
      <point x="237" y="249" type="curve" smooth="yes"/>
      <point x="211" y="249"/>
      <point x="194" y="261"/>
      <point x="194" y="285" type="curve" smooth="yes"/>
      <point x="194" y="305"/>
      <point x="208" y="322"/>
      <point x="237" y="337" type="curve" smooth="yes"/>
      <point x="369" y="407"/>
      <point x="398" y="444"/>
      <point x="398" y="515" type="curve" smooth="yes"/>
      <point x="398" y="596"/>
      <point x="333" y="649"/>
      <point x="228" y="649" type="curve" smooth="yes"/>
      <point x="148" y="649"/>
      <point x="99" y="624"/>
      <point x="50" y="586" type="curve"/>
      <point x="121" y="508" type="line"/>
      <point x="150" y="529"/>
      <point x="178" y="540"/>
      <point x="207" y="540" type="curve" smooth="yes"/>
      <point x="233" y="540"/>
      <point x="246" y="531"/>
      <point x="246" y="512" type="curve" smooth="yes"/>
      <point x="246" y="496"/>
      <point x="238" y="483"/>
      <point x="194" y="457" type="curve" smooth="yes"/>
      <point x="68" y="381"/>
      <point x="43" y="341"/>
      <point x="43" y="272" type="curve" smooth="yes"/>
      <point x="43" y="199"/>
      <point x="116" y="140"/>
    </contour>
  </outline>
</glyph>
<glyph name="tone2_wpk" format="2">
  <advance width="454"/>
  <unicode hex="106A"/>
  <note>
tone2_wpk
</note>
  <outline>
    <contour>
      <point x="199" y="140" type="curve" smooth="yes"/>
      <point x="320" y="140"/>
      <point x="376" y="200"/>
      <point x="376" y="300" type="curve" smooth="yes"/>
      <point x="376" y="640" type="line"/>
      <point x="236" y="640" type="line"/>
      <point x="236" y="305" type="line" smooth="yes"/>
      <point x="236" y="277"/>
      <point x="224" y="252"/>
      <point x="198" y="252" type="curve" smooth="yes"/>
      <point x="171" y="252"/>
      <point x="157" y="271"/>
      <point x="157" y="308" type="curve"/>
      <point x="17" y="308" type="line"/>
      <point x="17" y="201"/>
      <point x="79" y="140"/>
    </contour>
  </outline>
</glyph>
<glyph name="tone3_wpk" format="2">
  <advance width="454"/>
  <unicode hex="106B"/>
  <note>
tone3_wpk
</note>
  <outline>
    <contour>
      <point x="236" y="149" type="line"/>
      <point x="376" y="149" type="line"/>
      <point x="376" y="489" type="line" smooth="yes"/>
      <point x="376" y="589"/>
      <point x="320" y="649"/>
      <point x="199" y="649" type="curve" smooth="yes"/>
      <point x="79" y="649"/>
      <point x="17" y="589"/>
      <point x="17" y="481" type="curve"/>
      <point x="157" y="481" type="line"/>
      <point x="157" y="519"/>
      <point x="171" y="538"/>
      <point x="198" y="538" type="curve" smooth="yes"/>
      <point x="224" y="538"/>
      <point x="236" y="513"/>
      <point x="236" y="485" type="curve" smooth="yes"/>
    </contour>
  </outline>
</glyph>
<glyph name="tone4_wpk" format="2">
  <advance width="454"/>
  <unicode hex="106C"/>
  <note>
tone4_wpk
</note>
  <outline>
    <contour>
      <point x="255" y="140" type="curve" smooth="yes"/>
      <point x="375" y="140"/>
      <point x="437" y="201"/>
      <point x="437" y="308" type="curve"/>
      <point x="297" y="308" type="line"/>
      <point x="297" y="271"/>
      <point x="283" y="252"/>
      <point x="256" y="252" type="curve" smooth="yes"/>
      <point x="229" y="252"/>
      <point x="218" y="277"/>
      <point x="218" y="305" type="curve" smooth="yes"/>
      <point x="218" y="640" type="line"/>
      <point x="78" y="640" type="line"/>
      <point x="78" y="300" type="line" smooth="yes"/>
      <point x="78" y="200"/>
      <point x="134" y="140"/>
    </contour>
  </outline>
</glyph>
<glyph name="tone5_wpk" format="2">
  <advance width="458"/>
  <unicode hex="106D"/>
  <note>
tone5_wpk
</note>
  <outline>
    <contour>
      <point x="239" y="140" type="curve" smooth="yes"/>
      <point x="342" y="140"/>
      <point x="415" y="199"/>
      <point x="415" y="272" type="curve" smooth="yes"/>
      <point x="415" y="341"/>
      <point x="390" y="381"/>
      <point x="264" y="457" type="curve" smooth="yes"/>
      <point x="220" y="483"/>
      <point x="212" y="496"/>
      <point x="212" y="512" type="curve" smooth="yes"/>
      <point x="212" y="531"/>
      <point x="225" y="540"/>
      <point x="251" y="540" type="curve" smooth="yes"/>
      <point x="280" y="540"/>
      <point x="308" y="529"/>
      <point x="337" y="508" type="curve"/>
      <point x="408" y="586" type="line"/>
      <point x="359" y="624"/>
      <point x="310" y="649"/>
      <point x="230" y="649" type="curve" smooth="yes"/>
      <point x="125" y="649"/>
      <point x="60" y="596"/>
      <point x="60" y="515" type="curve" smooth="yes"/>
      <point x="60" y="444"/>
      <point x="89" y="407"/>
      <point x="221" y="337" type="curve" smooth="yes"/>
      <point x="250" y="322"/>
      <point x="264" y="305"/>
      <point x="264" y="285" type="curve" smooth="yes"/>
      <point x="264" y="261"/>
      <point x="247" y="249"/>
      <point x="221" y="249" type="curve" smooth="yes"/>
      <point x="192" y="249"/>
      <point x="140" y="272"/>
      <point x="121" y="295" type="curve"/>
      <point x="43" y="225" type="line"/>
      <point x="103" y="163"/>
      <point x="161" y="140"/>
    </contour>
  </outline>
</glyph>
<glyph name="nna_epk" format="2">
  <advance width="1352"/>
  <unicode hex="106E"/>
  <note>
nna_epk
</note>
  <outline>
    <contour>
      <point x="185" y="140" type="curve"/>
      <point x="260" y="248" type="line"/>
      <point x="212" y="294"/>
      <point x="197" y="338"/>
      <point x="197" y="395" type="curve" smooth="yes"/>
      <point x="197" y="482"/>
      <point x="251" y="541"/>
      <point x="332" y="541" type="curve" smooth="yes"/>
      <point x="413" y="541"/>
      <point x="468" y="484"/>
      <point x="468" y="395" type="curve" smooth="yes"/>
      <point x="468" y="342"/>
      <point x="453" y="294"/>
      <point x="405" y="248" type="curve"/>
      <point x="480" y="140" type="line"/>
      <point x="562" y="184"/>
      <point x="620" y="271"/>
      <point x="620" y="395" type="curve" smooth="yes"/>
      <point x="620" y="544"/>
      <point x="506" y="649"/>
      <point x="333" y="649" type="curve" smooth="yes"/>
      <point x="159" y="649"/>
      <point x="45" y="548"/>
      <point x="45" y="395" type="curve" smooth="yes"/>
      <point x="45" y="271"/>
      <point x="104" y="184"/>
    </contour>
    <contour>
      <point x="740" y="140" type="line"/>
      <point x="831" y="188"/>
      <point x="880" y="277"/>
      <point x="880" y="395" type="curve" smooth="yes"/>
      <point x="880" y="545"/>
      <point x="776" y="649"/>
      <point x="602" y="649" type="curve" smooth="yes"/>
      <point x="558" y="649"/>
      <point x="506" y="637"/>
      <point x="464" y="613" type="curve"/>
      <point x="561" y="535" type="line"/>
      <point x="576" y="540"/>
      <point x="592" y="541"/>
      <point x="607" y="541" type="curve" smooth="yes"/>
      <point x="689" y="541"/>
      <point x="743" y="482"/>
      <point x="743" y="395" type="curve" smooth="yes"/>
      <point x="743" y="341"/>
      <point x="724" y="289"/>
      <point x="665" y="248" type="curve"/>
    </contour>
    <contour>
      <point x="1052" y="140" type="curve" smooth="yes"/>
      <point x="1194" y="140"/>
      <point x="1307" y="245"/>
      <point x="1307" y="395" type="curve" smooth="yes"/>
      <point x="1307" y="546"/>
      <point x="1189" y="649"/>
      <point x="1020" y="649" type="curve" smooth="yes"/>
      <point x="932" y="649"/>
      <point x="854" y="620"/>
      <point x="805" y="559" type="curve"/>
      <point x="868" y="444" type="line"/>
      <point x="891" y="496"/>
      <point x="936" y="541"/>
      <point x="1012" y="541" type="curve" smooth="yes"/>
      <point x="1096" y="541"/>
      <point x="1155" y="487"/>
      <point x="1155" y="395" type="curve" smooth="yes"/>
      <point x="1155" y="308"/>
      <point x="1108" y="254"/>
      <point x="1036" y="254" type="curve" smooth="yes"/>
      <point x="1005" y="254"/>
      <point x="988" y="261"/>
      <point x="965" y="269" type="curve"/>
      <point x="914" y="169" type="line"/>
      <point x="949" y="148"/>
      <point x="1005" y="140"/>
    </contour>
  </outline>
</glyph>
<glyph name="ywa_epk" format="2">
  <advance width="1092"/>
  <unicode hex="106F"/>
  <note>
ywa_epk
</note>
  <outline>
    <contour>
      <point x="333" y="140" type="curve" smooth="yes"/>
      <point x="509" y="140"/>
      <point x="620" y="244"/>
      <point x="620" y="395" type="curve" smooth="yes"/>
      <point x="620" y="493"/>
      <point x="571" y="602"/>
      <point x="480" y="649" type="curve"/>
      <point x="405" y="541" type="line"/>
      <point x="448" y="499"/>
      <point x="468" y="460"/>
      <point x="468" y="395" type="curve" smooth="yes"/>
      <point x="468" y="306"/>
      <point x="412" y="248"/>
      <point x="332" y="248" type="curve" smooth="yes"/>
      <point x="252" y="248"/>
      <point x="197" y="308"/>
      <point x="197" y="395" type="curve" smooth="yes"/>
      <point x="197" y="460"/>
      <point x="219" y="503"/>
      <point x="260" y="541" type="curve"/>
      <point x="185" y="649" type="line"/>
      <point x="104" y="605"/>
      <point x="45" y="518"/>
      <point x="45" y="395" type="curve" smooth="yes"/>
      <point x="45" y="243"/>
      <point x="157" y="140"/>
    </contour>
    <contour>
      <point x="632" y="-270" type="line"/>
      <point x="892" y="-270" type="line"/>
      <point x="892" y="172" type="line"/>
      <point x="743" y="157" type="line"/>
      <point x="743" y="-162" type="line"/>
      <point x="632" y="-162" type="line"/>
    </contour>
    <contour>
      <point x="783" y="141" type="curve" smooth="yes"/>
      <point x="972" y="141"/>
      <point x="1047" y="275"/>
      <point x="1047" y="395" type="curve" smooth="yes"/>
      <point x="1047" y="544"/>
      <point x="931" y="649"/>
      <point x="760" y="649" type="curve" smooth="yes"/>
      <point x="667" y="649"/>
      <point x="589" y="616"/>
      <point x="555" y="568" type="curve"/>
      <point x="608" y="443" type="line"/>
      <point x="631" y="497"/>
      <point x="677" y="541"/>
      <point x="752" y="541" type="curve" smooth="yes"/>
      <point x="838" y="541"/>
      <point x="895" y="484"/>
      <point x="895" y="395" type="curve" smooth="yes"/>
      <point x="895" y="312"/>
      <point x="851" y="254"/>
      <point x="776" y="254" type="curve" smooth="yes"/>
      <point x="745" y="254"/>
      <point x="730" y="260"/>
      <point x="705" y="269" type="curve"/>
      <point x="654" y="169" type="line"/>
      <point x="683" y="153"/>
      <point x="719" y="141"/>
    </contour>
  </outline>
</glyph>
<glyph name="ghwa_epk" format="2">
  <advance width="1077"/>
  <unicode hex="1070"/>
  <note>
ghwa_epk
</note>
  <outline>
    <contour>
      <point x="318" y="140" type="curve" smooth="yes"/>
      <point x="488" y="140"/>
      <point x="605" y="234"/>
      <point x="605" y="394" type="curve" smooth="yes"/>
      <point x="605" y="525"/>
      <point x="546" y="605"/>
      <point x="465" y="649" type="curve"/>
      <point x="391" y="541" type="line"/>
      <point x="449" y="501"/>
      <point x="468" y="449"/>
      <point x="468" y="394" type="curve" smooth="yes"/>
      <point x="468" y="305"/>
      <point x="405" y="248"/>
      <point x="321" y="248" type="curve" smooth="yes"/>
      <point x="253" y="248"/>
      <point x="202" y="287"/>
      <point x="202" y="334" type="curve" smooth="yes"/>
      <point x="202" y="366"/>
      <point x="214" y="385"/>
      <point x="252" y="415" type="curve" smooth="yes"/>
      <point x="295" y="449"/>
      <point x="320" y="486"/>
      <point x="320" y="536" type="curve" smooth="yes"/>
      <point x="320" y="603"/>
      <point x="269" y="650"/>
      <point x="176" y="650" type="curve" smooth="yes"/>
      <point x="119" y="650"/>
      <point x="67" y="625"/>
      <point x="32" y="575" type="curve"/>
      <point x="107" y="505" type="line"/>
      <point x="121" y="519"/>
      <point x="140" y="532"/>
      <point x="158" y="532" type="curve" smooth="yes"/>
      <point x="174" y="532"/>
      <point x="181" y="527"/>
      <point x="181" y="517" type="curve" smooth="yes"/>
      <point x="181" y="497"/>
      <point x="158" y="488"/>
      <point x="121" y="458" type="curve" smooth="yes"/>
      <point x="78" y="422"/>
      <point x="51" y="381"/>
      <point x="51" y="325" type="curve" smooth="yes"/>
      <point x="51" y="213"/>
      <point x="162" y="140"/>
    </contour>
    <contour>
      <point x="574" y="-270" type="line"/>
      <point x="834" y="-270" type="line"/>
      <point x="834" y="172" type="line"/>
      <point x="685" y="157" type="line"/>
      <point x="685" y="-162" type="line"/>
      <point x="574" y="-162" type="line"/>
    </contour>
    <contour>
      <point x="740" y="140" type="curve" smooth="yes"/>
      <point x="921" y="140"/>
      <point x="1032" y="237"/>
      <point x="1032" y="394" type="curve" smooth="yes"/>
      <point x="1032" y="559"/>
      <point x="937" y="649"/>
      <point x="771" y="649" type="curve" smooth="yes"/>
      <point x="733" y="649"/>
      <point x="671" y="639"/>
      <point x="640" y="621" type="curve"/>
      <point x="690" y="521" type="line"/>
      <point x="726" y="532"/>
      <point x="737" y="535"/>
      <point x="767" y="535" type="curve" smooth="yes"/>
      <point x="831" y="535"/>
      <point x="880" y="479"/>
      <point x="880" y="394" type="curve" smooth="yes"/>
      <point x="880" y="309"/>
      <point x="823" y="247"/>
      <point x="742" y="247" type="curve" smooth="yes"/>
      <point x="670" y="247"/>
      <point x="614" y="291"/>
      <point x="590" y="344" type="curve"/>
      <point x="529" y="228" type="line"/>
      <point x="566" y="182"/>
      <point x="636" y="140"/>
    </contour>
  </outline>
</glyph>
